ClassWizCWDisplay-Regular.ufo
<glyph name="exclam" format="2">
  <advance width="110"/>
  <unicode hex="0021"/>
  <outline>
    <contour>
      <point x="40" y="120" type="line"/>
      <point x="40" y="40" type="line"/>
      <point x="60" y="40" type="line"/>
      <point x="60" y="120" type="line"/>
    </contour>
    <contour>
      <point x="40" y="20" type="line"/>
      <point x="60" y="20" type="line"/>
      <point x="60" y="0" type="line"/>
      <point x="40" y="0" type="line"/>
    </contour>
  </outline>
</glyph>
<glyph name="quotesingle" format="2">
  <advance width="110"/>
  <unicode hex="0027"/>
  <outline>
    <contour>
      <point x="40" y="80" type="line"/>
      <point x="60" y="80" type="line"/>
      <point x="60" y="120" type="line"/>
      <point x="40" y="120" type="line"/>
    </contour>
  </outline>
</glyph>
<glyph name="plus" format="2">
  <advance width="110"/>
  <unicode hex="002B"/>
  <outline>
    <contour>
      <point x="40" y="110" type="line"/>
      <point x="40" y="70" type="line"/>
      <point x="0" y="70" type="line"/>
      <point x="0" y="50" type="line"/>
      <point x="40" y="50" type="line"/>
      <point x="40" y="10" type="line"/>
      <point x="60" y="10" type="line"/>
      <point x="60" y="50" type="line"/>
      <point x="100" y="50" type="line"/>
      <point x="100" y="70" type="line"/>
      <point x="60" y="70" type="line"/>
      <point x="60" y="110" type="line"/>
    </contour>
  </outline>
</glyph>
<glyph name="comma" format="2">
  <advance width="110"/>
  <unicode hex="002C"/>
  <outline>
    <contour>
      <point x="20" y="-10" type="line"/>
      <point x="40" y="-10" type="line"/>
      <point x="40" y="10" type="line"/>
      <point x="50" y="10" type="line"/>
      <point x="50" y="40" type="line"/>
      <point x="20" y="40" type="line"/>
    </contour>
  </outline>
</glyph>
<glyph name="hyphen" format="2">
  <advance width="110"/>
  <unicode hex="002D"/>
  <outline>
    <contour>
      <point x="0" y="70" type="line"/>
      <point x="100" y="70" type="line"/>
      <point x="100" y="50" type="line"/>
      <point x="0" y="50" type="line"/>
    </contour>
  </outline>
</glyph>
<glyph name="period" format="2">
  <advance width="110"/>
  <unicode hex="002E"/>
  <outline>
    <contour>
      <point x="30" y="30" type="line"/>
      <point x="30" y="40" type="line"/>
      <point x="50" y="40" type="line"/>
      <point x="50" y="30" type="line"/>
      <point x="60" y="30" type="line"/>
      <point x="60" y="10" type="line"/>
      <point x="50" y="10" type="line"/>
      <point x="50" y="0" type="line"/>
      <point x="30" y="0" type="line"/>
      <point x="30" y="10" type="line"/>
      <point x="20" y="10" type="line"/>
      <point x="20" y="30" type="line"/>
    </contour>
  </outline>
</glyph>
<glyph name="zero" format="2">
  <advance width="110"/>
  <unicode hex="0030"/>
  <outline>
    <contour>
      <point x="30" y="20" type="line"/>
      <point x="30" y="100" type="line"/>
      <point x="70" y="100" type="line"/>
      <point x="70" y="20" type="line"/>
    </contour>
    <contour>
      <point x="10" y="10" type="line"/>
      <point x="20" y="10" type="line"/>
      <point x="20" y="0" type="line"/>
      <point x="80" y="0" type="line"/>
      <point x="80" y="10" type="line"/>
      <point x="90" y="10" type="line"/>
      <point x="90" y="110" type="line"/>
      <point x="80" y="110" type="line"/>
      <point x="80" y="120" type="line"/>
      <point x="20" y="120" type="line"/>
      <point x="20" y="110" type="line"/>
      <point x="10" y="110" type="line"/>
    </contour>
  </outline>
</glyph>
<glyph name="one" format="2">
  <advance width="110"/>
  <unicode hex="0031"/>
  <outline>
    <contour>
      <point x="50" y="0" type="line"/>
      <point x="70" y="0" type="line"/>
      <point x="70" y="120" type="line"/>
      <point x="40" y="120" type="line"/>
      <point x="40" y="110" type="line"/>
      <point x="30" y="110" type="line"/>
      <point x="30" y="100" type="line"/>
      <point x="20" y="100" type="line"/>
      <point x="20" y="80" type="line"/>
      <point x="40" y="80" type="line"/>
      <point x="40" y="90" type="line"/>
      <point x="50" y="90" type="line"/>
    </contour>
  </outline>
</glyph>
<glyph name="two" format="2">
  <advance width="110"/>
  <unicode hex="0032"/>
  <outline>
    <contour>
      <point x="10" y="0" type="line"/>
      <point x="90" y="0" type="line"/>
      <point x="90" y="20" type="line"/>
      <point x="40" y="20" type="line"/>
      <point x="40" y="30" type="line"/>
      <point x="50" y="30" type="line"/>
      <point x="50" y="40" type="line"/>
      <point x="70" y="40" type="line"/>
      <point x="70" y="50" type="line"/>
      <point x="80" y="50" type="line"/>
      <point x="80" y="60" type="line"/>
      <point x="90" y="60" type="line"/>
      <point x="90" y="110" type="line"/>
      <point x="80" y="110" type="line"/>
      <point x="80" y="120" type="line"/>
      <point x="20" y="120" type="line"/>
      <point x="20" y="110" type="line"/>
      <point x="10" y="110" type="line"/>
      <point x="10" y="90" type="line"/>
      <point x="30" y="90" type="line"/>
      <point x="30" y="100" type="line"/>
      <point x="70" y="100" type="line"/>
      <point x="70" y="70" type="line"/>
      <point x="60" y="70" type="line"/>
      <point x="60" y="60" type="line"/>
      <point x="40" y="60" type="line"/>
      <point x="40" y="50" type="line"/>
      <point x="30" y="50" type="line"/>
      <point x="30" y="40" type="line"/>
      <point x="20" y="40" type="line"/>
      <point x="20" y="30" type="line"/>
      <point x="10" y="30" type="line"/>
    </contour>
  </outline>
</glyph>
<glyph name="three" format="2">
  <advance width="110"/>
  <unicode hex="0033"/>
  <outline>
    <contour>
      <point x="70" y="100" type="line"/>
      <point x="70" y="70" type="line"/>
      <point x="30" y="70" type="line"/>
      <point x="30" y="50" type="line"/>
      <point x="70" y="50" type="line"/>
      <point x="70" y="20" type="line"/>
      <point x="30" y="20" type="line"/>
      <point x="30" y="30" type="line"/>
      <point x="10" y="30" type="line"/>
      <point x="10" y="10" type="line"/>
      <point x="20" y="10" type="line"/>
      <point x="20" y="0" type="line"/>
      <point x="80" y="0" type="line"/>
      <point x="80" y="10" type="line"/>
      <point x="90" y="10" type="line"/>
      <point x="90" y="60" type="line"/>
      <point x="80" y="60" type="line"/>
      <point x="80" y="70" type="line"/>
      <point x="90" y="70" type="line"/>
      <point x="90" y="110" type="line"/>
      <point x="80" y="110" type="line"/>
      <point x="80" y="120" type="line"/>
      <point x="20" y="120" type="line"/>
      <point x="20" y="110" type="line"/>
      <point x="10" y="110" type="line"/>
      <point x="10" y="90" type="line"/>
      <point x="30" y="90" type="line"/>
      <point x="30" y="100" type="line"/>
    </contour>
  </outline>
</glyph>
<glyph name="question" format="2">
  <advance width="110"/>
  <unicode hex="003F"/>
  <outline>
    <contour>
      <point x="20" y="90" type="line"/>
      <point x="40" y="90" type="line"/>
      <point x="40" y="100" type="line"/>
      <point x="60" y="100" type="line"/>
      <point x="60" y="80" type="line"/>
      <point x="50" y="80" type="line"/>
      <point x="50" y="60" type="line"/>
      <point x="40" y="60" type="line"/>
      <point x="40" y="40" type="line"/>
      <point x="60" y="40" type="line"/>
      <point x="60" y="60" type="line"/>
      <point x="70" y="60" type="line"/>
      <point x="70" y="80" type="line"/>
      <point x="80" y="80" type="line"/>
      <point x="80" y="110" type="line"/>
      <point x="70" y="110" type="line"/>
      <point x="70" y="120" type="line"/>
      <point x="30" y="120" type="line"/>
      <point x="30" y="110" type="line"/>
      <point x="20" y="110" type="line"/>
    </contour>
    <contour>
      <point x="40" y="0" type="line"/>
      <point x="60" y="0" type="line"/>
      <point x="60" y="20" type="line"/>
      <point x="40" y="20" type="line"/>
    </contour>
  </outline>
</glyph>
<glyph name="A" format="2">
  <advance width="110"/>
  <unicode hex="0041"/>
  <outline>
    <contour>
      <point x="70" y="50" type="line"/>
      <point x="40" y="50" type="line"/>
      <point x="40" y="70" type="line"/>
      <point x="50" y="70" type="line"/>
      <point x="50" y="90" type="line"/>
      <point x="60" y="90" type="line"/>
      <point x="60" y="70" type="line"/>
      <point x="70" y="70" type="line"/>
    </contour>
    <contour>
      <point x="10" y="0" type="line"/>
      <point x="30" y="0" type="line"/>
      <point x="30" y="30" type="line"/>
      <point x="80" y="30" type="line"/>
      <point x="80" y="0" type="line"/>
      <point x="100" y="0" type="line"/>
      <point x="100" y="50" type="line"/>
      <point x="90" y="50" type="line"/>
      <point x="90" y="80" type="line"/>
      <point x="80" y="80" type="line"/>
      <point x="80" y="100" type="line"/>
      <point x="70" y="100" type="line"/>
      <point x="70" y="120" type="line"/>
      <point x="40" y="120" type="line"/>
      <point x="40" y="100" type="line"/>
      <point x="30" y="100" type="line"/>
      <point x="30" y="80" type="line"/>
      <point x="20" y="80" type="line"/>
      <point x="20" y="50" type="line"/>
      <point x="10" y="50" type="line"/>
    </contour>
  </outline>
</glyph>
<glyph name="F" format="2">
  <advance width="110"/>
  <unicode hex="0046"/>
  <outline>
    <contour>
      <point x="10" y="0" type="line"/>
      <point x="30" y="0" type="line"/>
      <point x="30" y="50" type="line"/>
      <point x="80" y="50" type="line"/>
      <point x="80" y="70" type="line"/>
      <point x="30" y="70" type="line"/>
      <point x="30" y="100" type="line"/>
      <point x="90" y="100" type="line"/>
      <point x="90" y="120" type="line"/>
      <point x="10" y="120" type="line"/>
    </contour>
  </outline>
</glyph>
<glyph name="H" format="2">
  <advance width="104"/>
  <unicode hex="0048"/>
  <outline>
    <contour>
      <point x="10" y="0" type="line"/>
      <point x="30" y="0" type="line"/>
      <point x="30" y="50" type="line"/>
      <point x="70" y="50" type="line"/>
      <point x="70" y="0" type="line"/>
      <point x="90" y="0" type="line"/>
      <point x="90" y="120" type="line"/>
      <point x="70" y="120" type="line"/>
      <point x="70" y="70" type="line"/>
      <point x="30" y="70" type="line"/>
      <point x="30" y="120" type="line"/>
      <point x="10" y="120" type="line"/>
    </contour>
  </outline>
</glyph>
<glyph name="J" format="2">
  <advance width="110"/>
  <unicode hex="004A"/>
  <outline>
    <contour>
      <point x="20" y="-10" type="line"/>
      <point x="20" y="10" type="line"/>
      <point x="50" y="10" type="line"/>
      <point x="50" y="20" type="line"/>
      <point x="60" y="20" type="line"/>
      <point x="60" y="120" type="line"/>
      <point x="80" y="120" type="line"/>
      <point x="80" y="10" type="line"/>
      <point x="70" y="10" type="line"/>
      <point x="70" y="0" type="line"/>
      <point x="60" y="0" type="line"/>
      <point x="60" y="-10" type="line"/>
    </contour>
  </outline>
</glyph>
<glyph name="K" format="2">
  <advance width="110"/>
  <unicode hex="004B"/>
  <outline>
    <contour>
      <point x="10" y="0" type="line"/>
      <point x="30" y="0" type="line"/>
      <point x="30" y="50" type="line"/>
      <point x="40" y="50" type="line"/>
      <point x="40" y="60" type="line"/>
      <point x="50" y="60" type="line"/>
      <point x="50" y="40" type="line"/>
      <point x="60" y="40" type="line"/>
      <point x="60" y="20" type="line"/>
      <point x="70" y="20" type="line"/>
      <point x="70" y="0" type="line"/>
      <point x="90" y="0" type="line"/>
      <point x="90" y="30" type="line"/>
      <point x="80" y="30" type="line"/>
      <point x="80" y="50" type="line"/>
      <point x="70" y="50" type="line"/>
      <point x="70" y="70" type="line"/>
      <point x="60" y="70" type="line"/>
      <point x="60" y="80" type="line"/>
      <point x="70" y="80" type="line"/>
      <point x="70" y="90" type="line"/>
      <point x="80" y="90" type="line"/>
      <point x="80" y="100" type="line"/>
      <point x="90" y="100" type="line"/>
      <point x="90" y="120" type="line"/>
      <point x="70" y="120" type="line"/>
      <point x="70" y="110" type="line"/>
      <point x="60" y="110" type="line"/>
      <point x="60" y="100" type="line"/>
      <point x="50" y="100" type="line"/>
      <point x="50" y="90" type="line"/>
      <point x="40" y="90" type="line"/>
      <point x="40" y="80" type="line"/>
      <point x="30" y="80" type="line"/>
      <point x="30" y="120" type="line"/>
      <point x="10" y="120" type="line"/>
    </contour>
  </outline>
</glyph>
<glyph name="L" format="2">
  <advance width="110"/>
  <unicode hex="004C"/>
  <outline>
    <contour>
      <point x="10" y="0" type="line"/>
      <point x="90" y="0" type="line"/>
      <point x="90" y="20" type="line"/>
      <point x="30" y="20" type="line"/>
      <point x="30" y="120" type="line"/>
      <point x="10" y="120" type="line"/>
    </contour>
  </outline>
</glyph>
<glyph name="M" format="2">
  <advance width="110"/>
  <unicode hex="004D"/>
  <outline>
    <contour>
      <point x="10" y="0" type="line"/>
      <point x="30" y="0" type="line"/>
      <point x="30" y="40" type="line"/>
      <point x="40" y="40" type="line"/>
      <point x="40" y="0" type="line"/>
      <point x="60" y="0" type="line"/>
      <point x="60" y="40" type="line"/>
      <point x="70" y="40" type="line"/>
      <point x="70" y="0" type="line"/>
      <point x="90" y="0" type="line"/>
      <point x="90" y="120" type="line"/>
      <point x="70" y="120" type="line"/>
      <point x="70" y="90" type="line"/>
      <point x="60" y="90" type="line"/>
      <point x="60" y="60" type="line"/>
      <point x="40" y="60" type="line"/>
      <point x="40" y="90" type="line"/>
      <point x="30" y="90" type="line"/>
      <point x="30" y="120" type="line"/>
      <point x="10" y="120" type="line"/>
    </contour>
  </outline>
</glyph>
<glyph name="P" format="2">
  <advance width="110"/>
  <unicode hex="0050"/>
  <outline>
    <contour>
      <point x="30" y="100" type="line"/>
      <point x="70" y="100" type="line"/>
      <point x="70" y="70" type="line"/>
      <point x="30" y="70" type="line"/>
    </contour>
    <contour>
      <point x="10" y="0" type="line"/>
      <point x="30" y="0" type="line"/>
      <point x="30" y="50" type="line"/>
      <point x="80" y="50" type="line"/>
      <point x="80" y="60" type="line"/>
      <point x="90" y="60" type="line"/>
      <point x="90" y="110" type="line"/>
      <point x="80" y="110" type="line"/>
      <point x="80" y="120" type="line"/>
      <point x="10" y="120" type="line"/>
    </contour>
  </outline>
</glyph>
<glyph name="T" format="2">
  <advance width="110"/>
  <unicode hex="0054"/>
  <outline>
    <contour>
      <point x="10" y="100" type="line"/>
      <point x="40" y="100" type="line"/>
      <point x="40" y="0" type="line"/>
      <point x="60" y="0" type="line"/>
      <point x="60" y="100" type="line"/>
      <point x="90" y="100" type="line"/>
      <point x="90" y="120" type="line"/>
      <point x="10" y="120" type="line"/>
    </contour>
  </outline>
</glyph>
<glyph name="W" format="2">
  <advance width="110"/>
  <unicode hex="0057"/>
  <outline>
    <contour>
      <point x="90" y="120" type="line"/>
      <point x="70" y="120" type="line"/>
      <point x="70" y="50" type="line"/>
      <point x="60" y="50" type="line"/>
      <point x="60" y="100" type="line"/>
      <point x="40" y="100" type="line"/>
      <point x="40" y="50" type="line"/>
      <point x="30" y="50" type="line"/>
      <point x="30" y="120" type="line"/>
      <point x="10" y="120" type="line"/>
      <point x="10" y="50" type="line"/>
      <point x="20" y="50" type="line"/>
      <point x="20" y="0" type="line"/>
      <point x="40" y="0" type="line"/>
      <point x="40" y="30" type="line"/>
      <point x="60" y="30" type="line"/>
      <point x="60" y="0" type="line"/>
      <point x="80" y="0" type="line"/>
      <point x="80" y="50" type="line"/>
      <point x="90" y="50" type="line"/>
    </contour>
  </outline>
</glyph>
<glyph name="bracketleft" format="2">
  <advance width="110"/>
  <unicode hex="005B"/>
  <outline>
    <contour>
      <point x="20" y="0" type="line"/>
      <point x="70" y="0" type="line"/>
      <point x="70" y="20" type="line"/>
      <point x="40" y="20" type="line"/>
      <point x="40" y="100" type="line"/>
      <point x="70" y="100" type="line"/>
      <point x="70" y="120" type="line"/>
      <point x="20" y="120" type="line"/>
    </contour>
  </outline>
</glyph>
<glyph name="bracketright" format="2">
  <advance width="110"/>
  <unicode hex="005D"/>
  <outline>
    <contour>
      <point x="30" y="120" type="line"/>
      <point x="30" y="100" type="line"/>
      <point x="60" y="100" type="line"/>
      <point x="60" y="20" type="line"/>
      <point x="30" y="20" type="line"/>
      <point x="30" y="0" type="line"/>
      <point x="80" y="0" type="line"/>
      <point x="80" y="120" type="line"/>
    </contour>
  </outline>
</glyph>
<glyph name="asciicircum" format="2">
  <advance width="110"/>
  <unicode hex="005E"/>
  <outline>
    <contour>
      <point x="10" y="80" type="line"/>
      <point x="30" y="80" type="line"/>
      <point x="30" y="90" type="line"/>
      <point x="40" y="90" type="line"/>
      <point x="40" y="100" type="line"/>
      <point x="60" y="100" type="line"/>
      <point x="60" y="90" type="line"/>
      <point x="70" y="90" type="line"/>
      <point x="70" y="80" type="line"/>
      <point x="90" y="80" type="line"/>
      <point x="90" y="100" type="line"/>
      <point x="80" y="100" type="line"/>
      <point x="80" y="110" type="line"/>
      <point x="70" y="110" type="line"/>
      <point x="70" y="120" type="line"/>
      <point x="30" y="120" type="line"/>
      <point x="30" y="110" type="line"/>
      <point x="20" y="110" type="line"/>
      <point x="20" y="100" type="line"/>
      <point x="10" y="100" type="line"/>
    </contour>
  </outline>
</glyph>
<glyph name="underscore" format="2">
  <advance width="110"/>
  <unicode hex="005F"/>
  <outline>
    <contour>
      <point x="0" y="10" type="line"/>
      <point x="100" y="10" type="line"/>
      <point x="100" y="-10" type="line"/>
      <point x="0" y="-10" type="line"/>
    </contour>
  </outline>
</glyph>
<glyph name="i" format="2">
  <advance width="110"/>
  <unicode hex="0069"/>
  <outline>
    <contour>
      <point x="20" y="70" type="line"/>
      <point x="40" y="70" type="line"/>
      <point x="40" y="20" type="line"/>
      <point x="20" y="20" type="line"/>
      <point x="20" y="0" type="line"/>
      <point x="80" y="0" type="line"/>
      <point x="80" y="20" type="line"/>
      <point x="60" y="20" type="line"/>
      <point x="60" y="90" type="line"/>
      <point x="20" y="90" type="line"/>
    </contour>
    <contour>
      <point x="40" y="100" type="line"/>
      <point x="60" y="100" type="line"/>
      <point x="60" y="120" type="line"/>
      <point x="40" y="120" type="line"/>
    </contour>
  </outline>
</glyph>
<glyph name="m" format="2">
  <advance width="110"/>
  <unicode hex="006D"/>
  <outline>
    <contour>
      <point x="60" y="0" type="line"/>
      <point x="60" y="60" type="line"/>
      <point x="70" y="60" type="line"/>
      <point x="70" y="70" type="line"/>
      <point x="80" y="70" type="line"/>
      <point x="80" y="0" type="line"/>
      <point x="100" y="0" type="line"/>
      <point x="100" y="80" type="line"/>
      <point x="90" y="80" type="line"/>
      <point x="90" y="90" type="line"/>
      <point x="60" y="90" type="line"/>
      <point x="60" y="80" type="line"/>
      <point x="50" y="80" type="line"/>
      <point x="50" y="90" type="line"/>
      <point x="30" y="90" type="line"/>
      <point x="30" y="80" type="line"/>
      <point x="20" y="80" type="line"/>
      <point x="20" y="90" type="line"/>
      <point x="0" y="90" type="line"/>
      <point x="0" y="0" type="line"/>
      <point x="20" y="0" type="line"/>
      <point x="20" y="60" type="line"/>
      <point x="30" y="60" type="line"/>
      <point x="30" y="70" type="line"/>
      <point x="40" y="70" type="line"/>
      <point x="40" y="0" type="line"/>
    </contour>
  </outline>
</glyph>
<glyph name="n" format="2">
  <advance width="110"/>
  <unicode hex="006E"/>
  <outline>
    <contour>
      <point x="90" y="0" type="line"/>
      <point x="90" y="80" type="line"/>
      <point x="80" y="80" type="line"/>
      <point x="80" y="90" type="line"/>
      <point x="40" y="90" type="line"/>
      <point x="40" y="80" type="line"/>
      <point x="30" y="80" type="line"/>
      <point x="30" y="90" type="line"/>
      <point x="10" y="90" type="line"/>
      <point x="10" y="0" type="line"/>
      <point x="30" y="0" type="line"/>
      <point x="30" y="60" type="line"/>
      <point x="40" y="60" type="line"/>
      <point x="40" y="70" type="line"/>
      <point x="70" y="70" type="line"/>
      <point x="70" y="0" type="line"/>
    </contour>
  </outline>
</glyph>
<glyph name="p" format="2">
  <advance width="110"/>
  <unicode hex="0070"/>
  <outline>
    <contour>
      <point x="30" y="70" type="line"/>
      <point x="70" y="70" type="line"/>
      <point x="70" y="40" type="line"/>
      <point x="30" y="40" type="line"/>
    </contour>
    <contour>
      <point x="10" y="-10" type="line"/>
      <point x="30" y="-10" type="line"/>
      <point x="30" y="20" type="line"/>
      <point x="80" y="20" type="line"/>
      <point x="80" y="30" type="line"/>
      <point x="90" y="30" type="line"/>
      <point x="90" y="80" type="line"/>
      <point x="80" y="80" type="line"/>
      <point x="80" y="90" type="line"/>
      <point x="10" y="90" type="line"/>
    </contour>
  </outline>
</glyph>
<glyph name="q" format="2">
  <advance width="110"/>
  <unicode hex="0071"/>
  <outline>
    <contour>
      <point x="70" y="70" type="line"/>
      <point x="70" y="40" type="line"/>
      <point x="30" y="40" type="line"/>
      <point x="30" y="70" type="line"/>
    </contour>
    <contour>
      <point x="90" y="-10" type="line"/>
      <point x="90" y="90" type="line"/>
      <point x="20" y="90" type="line"/>
      <point x="20" y="80" type="line"/>
      <point x="10" y="80" type="line"/>
      <point x="10" y="30" type="line"/>
      <point x="20" y="30" type="line"/>
      <point x="20" y="20" type="line"/>
      <point x="70" y="20" type="line"/>
      <point x="70" y="-10" type="line"/>
    </contour>
  </outline>
</glyph>
<glyph name="r" format="2">
  <advance width="110"/>
  <unicode hex="0072"/>
  <outline>
    <contour>
      <point x="90" y="70" type="line"/>
      <point x="90" y="90" type="line"/>
      <point x="50" y="90" type="line"/>
      <point x="50" y="80" type="line"/>
      <point x="40" y="80" type="line"/>
      <point x="40" y="90" type="line"/>
      <point x="20" y="90" type="line"/>
      <point x="20" y="0" type="line"/>
      <point x="40" y="0" type="line"/>
      <point x="40" y="60" type="line"/>
      <point x="50" y="60" type="line"/>
      <point x="50" y="70" type="line"/>
    </contour>
  </outline>
</glyph>
<glyph name="t" format="2">
  <advance width="110"/>
  <unicode hex="0074"/>
  <outline>
    <contour>
      <point x="10" y="90" type="line"/>
      <point x="10" y="70" type="line"/>
      <point x="30" y="70" type="line"/>
      <point x="30" y="10" type="line"/>
      <point x="40" y="10" type="line"/>
      <point x="40" y="0" type="line"/>
      <point x="80" y="0" type="line"/>
      <point x="80" y="20" type="line"/>
      <point x="50" y="20" type="line"/>
      <point x="50" y="70" type="line"/>
      <point x="80" y="70" type="line"/>
      <point x="80" y="90" type="line"/>
      <point x="50" y="90" type="line"/>
      <point x="50" y="110" type="line"/>
      <point x="30" y="110" type="line"/>
      <point x="30" y="90" type="line"/>
    </contour>
  </outline>
</glyph>
<glyph name="u" format="2">
  <advance width="110"/>
  <unicode hex="0075"/>
  <outline>
    <contour>
      <point x="10" y="90" type="line"/>
      <point x="10" y="10" type="line"/>
      <point x="20" y="10" type="line"/>
      <point x="20" y="0" type="line"/>
      <point x="60" y="0" type="line"/>
      <point x="60" y="10" type="line"/>
      <point x="70" y="10" type="line"/>
      <point x="70" y="0" type="line"/>
      <point x="90" y="0" type="line"/>
      <point x="90" y="90" type="line"/>
      <point x="70" y="90" type="line"/>
      <point x="70" y="30" type="line"/>
      <point x="60" y="30" type="line"/>
      <point x="60" y="20" type="line"/>
      <point x="30" y="20" type="line"/>
      <point x="30" y="90" type="line"/>
    </contour>
  </outline>
</glyph>
<glyph name="bar" format="2">
  <advance width="110"/>
  <unicode hex="007C"/>
  <outline>
    <contour>
      <point x="-10" y="120" type="line"/>
      <point x="20" y="120" type="line"/>
      <point x="20" y="0" type="line"/>
      <point x="-10" y="0" type="line"/>
    </contour>
  </outline>
</glyph>
<glyph name="braceright" format="2">
  <advance width="110"/>
  <unicode hex="007D"/>
  <outline>
    <contour>
      <point x="30" y="120" type="line"/>
      <point x="60" y="120" type="line"/>
      <point x="60" y="110" type="line"/>
      <point x="70" y="110" type="line"/>
      <point x="70" y="80" type="line"/>
      <point x="80" y="80" type="line"/>
      <point x="80" y="70" type="line"/>
      <point x="90" y="70" type="line"/>
      <point x="90" y="40" type="line"/>
      <point x="80" y="40" type="line"/>
      <point x="80" y="30" type="line"/>
      <point x="70" y="30" type="line"/>
      <point x="70" y="0" type="line"/>
      <point x="60" y="0" type="line"/>
      <point x="60" y="-10" type="line"/>
      <point x="30" y="-10" type="line"/>
      <point x="30" y="10" type="line"/>
      <point x="50" y="10" type="line"/>
      <point x="50" y="40" type="line"/>
      <point x="60" y="40" type="line"/>
      <point x="60" y="50" type="line"/>
      <point x="70" y="50" type="line"/>
      <point x="70" y="60" type="line"/>
      <point x="60" y="60" type="line"/>
      <point x="60" y="70" type="line"/>
      <point x="50" y="70" type="line"/>
      <point x="50" y="100" type="line"/>
      <point x="30" y="100" type="line"/>
    </contour>
  </outline>
</glyph>
<glyph name="asciitilde" format="2">
  <advance width="110"/>
  <unicode hex="007E"/>
  <outline>
    <contour>
      <point x="0" y="40" type="line"/>
      <point x="20" y="40" type="line"/>
      <point x="20" y="60" type="line"/>
      <point x="40" y="60" type="line"/>
      <point x="40" y="50" type="line"/>
      <point x="60" y="50" type="line"/>
      <point x="60" y="40" type="line"/>
      <point x="90" y="40" type="line"/>
      <point x="90" y="50" type="line"/>
      <point x="100" y="50" type="line"/>
      <point x="100" y="80" type="line"/>
      <point x="80" y="80" type="line"/>
      <point x="80" y="60" type="line"/>
      <point x="70" y="60" type="line"/>
      <point x="70" y="70" type="line"/>
      <point x="50" y="70" type="line"/>
      <point x="50" y="80" type="line"/>
      <point x="10" y="80" type="line"/>
      <point x="10" y="70" type="line"/>
      <point x="0" y="70" type="line"/>
    </contour>
  </outline>
</glyph>
<glyph name="twosuperior" format="2">
  <advance width="110"/>
  <unicode hex="00B2"/>
  <outline>
    <contour>
      <point x="20" y="100" type="line"/>
      <point x="60" y="100" type="line"/>
      <point x="60" y="90" type="line"/>
      <point x="40" y="90" type="line"/>
      <point x="40" y="80" type="line"/>
      <point x="30" y="80" type="line"/>
      <point x="30" y="70" type="line"/>
      <point x="20" y="70" type="line"/>
      <point x="20" y="50" type="line"/>
      <point x="80" y="50" type="line"/>
      <point x="80" y="70" type="line"/>
      <point x="50" y="70" type="line"/>
      <point x="50" y="80" type="line"/>
      <point x="70" y="80" type="line"/>
      <point x="70" y="90" type="line"/>
      <point x="80" y="90" type="line"/>
      <point x="80" y="110" type="line"/>
      <point x="70" y="110" type="line"/>
      <point x="70" y="120" type="line"/>
      <point x="20" y="120" type="line"/>
    </contour>
  </outline>
</glyph>
<glyph name="onesuperior" format="2">
  <advance width="110"/>
  <unicode hex="00B9"/>
  <outline>
    <contour>
      <point x="20" y="90" type="line"/>
      <point x="40" y="90" type="line"/>
      <point x="40" y="51" type="line"/>
      <point x="60" y="51" type="line"/>
      <point x="60" y="120" type="line"/>
      <point x="40" y="120" type="line"/>
      <point x="40" y="110" type="line"/>
      <point x="20" y="110" type="line"/>
    </contour>
  </outline>
</glyph>
<glyph name="AE" format="2">
  <advance width="110"/>
  <unicode hex="00C6"/>
  <outline>
    <contour>
      <point x="0" y="0" type="line"/>
      <point x="20" y="0" type="line"/>
      <point x="20" y="30" type="line"/>
      <point x="50" y="30" type="line"/>
      <point x="50" y="0" type="line"/>
      <point x="100" y="0" type="line"/>
      <point x="100" y="20" type="line"/>
      <point x="70" y="20" type="line"/>
      <point x="70" y="50" type="line"/>
      <point x="90" y="50" type="line"/>
      <point x="90" y="70" type="line"/>
      <point x="70" y="70" type="line"/>
      <point x="70" y="100" type="line"/>
      <point x="100" y="100" type="line"/>
      <point x="100" y="120" type="line"/>
      <point x="30" y="120" type="line"/>
      <point x="30" y="110" type="line"/>
      <point x="20" y="110" type="line"/>
      <point x="20" y="80" type="line"/>
      <point x="10" y="80" type="line"/>
      <point x="10" y="50" type="line"/>
      <point x="0" y="50" type="line"/>
    </contour>
    <contour>
      <point x="50" y="50" type="line"/>
      <point x="30" y="50" type="line"/>
      <point x="30" y="70" type="line"/>
      <point x="40" y="70" type="line"/>
      <point x="40" y="100" type="line"/>
      <point x="50" y="100" type="line"/>
    </contour>
  </outline>
</glyph>
<glyph name="Ccedilla" format="2">
  <advance width="110"/>
  <unicode hex="00C7"/>
  <outline>
    <contour>
      <point x="10" y="30" type="line"/>
      <point x="20" y="30" type="line"/>
      <point x="20" y="20" type="line"/>
      <point x="30" y="20" type="line"/>
      <point x="30" y="10" type="line"/>
      <point x="50" y="10" type="line"/>
      <point x="50" y="0" type="line"/>
      <point x="30" y="0" type="line"/>
      <point x="30" y="-10" type="line"/>
      <point x="60" y="-10" type="line"/>
      <point x="60" y="0" type="line"/>
      <point x="70" y="0" type="line"/>
      <point x="70" y="10" type="line"/>
      <point x="80" y="10" type="line"/>
      <point x="80" y="20" type="line"/>
      <point x="90" y="20" type="line"/>
      <point x="90" y="40" type="line"/>
      <point x="70" y="40" type="line"/>
      <point x="70" y="30" type="line"/>
      <point x="40" y="30" type="line"/>
      <point x="40" y="40" type="line"/>
      <point x="30" y="40" type="line"/>
      <point x="30" y="90" type="line"/>
      <point x="40" y="90" type="line"/>
      <point x="40" y="100" type="line"/>
      <point x="70" y="100" type="line"/>
      <point x="70" y="90" type="line"/>
      <point x="90" y="90" type="line"/>
      <point x="90" y="110" type="line"/>
      <point x="80" y="110" type="line"/>
      <point x="80" y="120" type="line"/>
      <point x="30" y="120" type="line"/>
      <point x="30" y="110" type="line"/>
      <point x="20" y="110" type="line"/>
      <point x="20" y="100" type="line"/>
      <point x="10" y="100" type="line"/>
    </contour>
  </outline>
</glyph>
<glyph name="Eacute" format="2">
  <advance width="110"/>
  <unicode hex="00C9"/>
  <outline>
    <contour>
      <point x="10" y="0" type="line"/>
      <point x="90" y="0" type="line"/>
      <point x="90" y="20" type="line"/>
      <point x="30" y="20" type="line"/>
      <point x="30" y="40" type="line"/>
      <point x="80" y="40" type="line"/>
      <point x="80" y="60" type="line"/>
      <point x="30" y="60" type="line"/>
      <point x="30" y="80" type="line"/>
      <point x="90" y="80" type="line"/>
      <point x="90" y="100" type="line"/>
      <point x="60" y="100" type="line"/>
      <point x="60" y="110" type="line"/>
      <point x="80" y="110" type="line"/>
      <point x="80" y="120" type="line"/>
      <point x="50" y="120" type="line"/>
      <point x="50" y="110" type="line"/>
      <point x="40" y="110" type="line"/>
      <point x="40" y="100" type="line"/>
      <point x="10" y="100" type="line"/>
    </contour>
  </outline>
</glyph>
<glyph name="Iacute" format="2">
  <advance width="110"/>
  <unicode hex="00CD"/>
  <outline>
    <contour>
      <point x="20" y="70" type="line"/>
      <point x="40" y="70" type="line"/>
      <point x="40" y="20" type="line"/>
      <point x="20" y="20" type="line"/>
      <point x="20" y="0" type="line"/>
      <point x="80" y="0" type="line"/>
      <point x="80" y="20" type="line"/>
      <point x="60" y="20" type="line"/>
      <point x="60" y="70" type="line"/>
      <point x="80" y="70" type="line"/>
      <point x="80" y="90" type="line"/>
      <point x="20" y="90" type="line"/>
    </contour>
    <contour>
      <point x="30" y="100" type="line"/>
      <point x="60" y="100" type="line"/>
      <point x="60" y="110" type="line"/>
      <point x="80" y="110" type="line"/>
      <point x="80" y="120" type="line"/>
      <point x="50" y="120" type="line"/>
      <point x="50" y="110" type="line"/>
      <point x="30" y="110" type="line"/>
    </contour>
  </outline>
</glyph>
<glyph name="Idieresis" format="2">
  <advance width="110"/>
  <unicode hex="00CF"/>
  <outline>
    <contour>
      <point x="20" y="70" type="line"/>
      <point x="40" y="70" type="line"/>
      <point x="40" y="20" type="line"/>
      <point x="20" y="20" type="line"/>
      <point x="20" y="0" type="line"/>
      <point x="80" y="0" type="line"/>
      <point x="80" y="20" type="line"/>
      <point x="60" y="20" type="line"/>
      <point x="60" y="70" type="line"/>
      <point x="80" y="70" type="line"/>
      <point x="80" y="90" type="line"/>
      <point x="20" y="90" type="line"/>
    </contour>
    <contour>
      <point x="20" y="100" type="line"/>
      <point x="40" y="100" type="line"/>
      <point x="40" y="120" type="line"/>
      <point x="20" y="120" type="line"/>
    </contour>
    <contour>
      <point x="50" y="100" type="line"/>
      <point x="70" y="100" type="line"/>
      <point x="70" y="120" type="line"/>
      <point x="50" y="120" type="line"/>
    </contour>
  </outline>
</glyph>
<glyph name="Eth" format="2">
  <advance width="110"/>
  <unicode hex="00D0"/>
  <outline>
    <component base="D"/>
    <contour>
      <point x="0" y="50" type="line"/>
      <point x="60" y="50" type="line"/>
      <point x="60" y="70" type="line"/>
      <point x="0" y="70" type="line"/>
    </contour>
  </outline>
</glyph>
<glyph name="Thorn" format="2">
  <advance width="110"/>
  <unicode hex="00DE"/>
  <outline>
    <contour>
      <point x="10" y="0" type="line"/>
      <point x="30" y="0" type="line"/>
      <point x="30" y="30" type="line"/>
      <point x="80" y="30" type="line"/>
      <point x="80" y="40" type="line"/>
      <point x="90" y="40" type="line"/>
      <point x="90" y="80" type="line"/>
      <point x="80" y="80" type="line"/>
      <point x="80" y="90" type="line"/>
      <point x="30" y="90" type="line"/>
      <point x="30" y="120" type="line"/>
      <point x="10" y="120" type="line"/>
    </contour>
    <contour>
      <point x="30" y="70" type="line"/>
      <point x="70" y="70" type="line"/>
      <point x="70" y="50" type="line"/>
      <point x="30" y="50" type="line"/>
    </contour>
  </outline>
</glyph>
<glyph name="germandbls" format="2">
  <advance width="110"/>
  <unicode hex="00DF"/>
  <outline>
    <contour>
      <point x="10" y="0" type="line"/>
      <point x="30" y="0" type="line"/>
      <point x="30" y="100" type="line"/>
      <point x="60" y="100" type="line"/>
      <point x="60" y="80" type="line"/>
      <point x="50" y="80" type="line"/>
      <point x="50" y="70" type="line"/>
      <point x="40" y="70" type="line"/>
      <point x="40" y="50" type="line"/>
      <point x="60" y="50" type="line"/>
      <point x="60" y="40" type="line"/>
      <point x="70" y="40" type="line"/>
      <point x="70" y="20" type="line"/>
      <point x="40" y="20" type="line"/>
      <point x="40" y="0" type="line"/>
      <point x="80" y="0" type="line"/>
      <point x="80" y="10" type="line"/>
      <point x="90" y="10" type="line"/>
      <point x="90" y="50" type="line"/>
      <point x="80" y="50" type="line"/>
      <point x="80" y="60" type="line"/>
      <point x="70" y="60" type="line"/>
      <point x="70" y="70" type="line"/>
      <point x="80" y="70" type="line"/>
      <point x="80" y="110" type="line"/>
      <point x="70" y="110" type="line"/>
      <point x="70" y="120" type="line"/>
      <point x="20" y="120" type="line"/>
      <point x="20" y="110" type="line"/>
      <point x="10" y="110" type="line"/>
    </contour>
  </outline>
</glyph>
<glyph name="agrave" format="2">
  <advance width="110"/>
  <unicode hex="00E0"/>
  <outline>
    <component base="a"/>
    <contour>
      <point x="70" y="100" type="line"/>
      <point x="70" y="110" type="line"/>
      <point x="50" y="110" type="line"/>
      <point x="50" y="120" type="line"/>
      <point x="20" y="120" type="line"/>
      <point x="20" y="110" type="line"/>
      <point x="40" y="110" type="line"/>
      <point x="40" y="100" type="line"/>
    </contour>
  </outline>
</glyph>
<glyph name="aacute" format="2">
  <advance width="110"/>
  <unicode hex="00E1"/>
  <outline>
    <component base="a"/>
    <contour>
      <point x="30" y="100" type="line"/>
      <point x="60" y="100" type="line"/>
      <point x="60" y="110" type="line"/>
      <point x="80" y="110" type="line"/>
      <point x="80" y="120" type="line"/>
      <point x="50" y="120" type="line"/>
      <point x="50" y="110" type="line"/>
      <point x="30" y="110" type="line"/>
    </contour>
  </outline>
</glyph>
<glyph name="acircumflex" format="2">
  <advance width="110"/>
  <unicode hex="00E2"/>
  <outline>
    <component base="a"/>
    <contour>
      <point x="60" y="100" type="line"/>
      <point x="80" y="100" type="line"/>
      <point x="80" y="110" type="line"/>
      <point x="70" y="110" type="line"/>
      <point x="70" y="120" type="line"/>
      <point x="30" y="120" type="line"/>
      <point x="30" y="110" type="line"/>
      <point x="20" y="110" type="line"/>
      <point x="20" y="100" type="line"/>
      <point x="40" y="100" type="line"/>
      <point x="40" y="110" type="line"/>
      <point x="60" y="110" type="line"/>
    </contour>
  </outline>
</glyph>
<glyph name="adieresis" format="2">
  <advance width="110"/>
  <unicode hex="00E4"/>
  <outline>
    <component base="a"/>
    <contour>
      <point x="20" y="100" type="line"/>
      <point x="40" y="100" type="line"/>
      <point x="40" y="120" type="line"/>
      <point x="20" y="120" type="line"/>
    </contour>
    <contour>
      <point x="50" y="100" type="line"/>
      <point x="70" y="100" type="line"/>
      <point x="70" y="120" type="line"/>
      <point x="50" y="120" type="line"/>
    </contour>
  </outline>
</glyph>
<glyph name="egrave" format="2">
  <advance width="110"/>
  <unicode hex="00E8"/>
  <outline>
    <component base="e"/>
    <contour>
      <point x="70" y="100" type="line"/>
      <point x="70" y="110" type="line"/>
      <point x="50" y="110" type="line"/>
      <point x="50" y="120" type="line"/>
      <point x="20" y="120" type="line"/>
      <point x="20" y="110" type="line"/>
      <point x="40" y="110" type="line"/>
      <point x="40" y="100" type="line"/>
    </contour>
  </outline>
</glyph>
<glyph name="eacute" format="2">
  <advance width="110"/>
  <unicode hex="00E9"/>
  <outline>
    <component base="e"/>
    <contour>
      <point x="30" y="100" type="line"/>
      <point x="60" y="100" type="line"/>
      <point x="60" y="110" type="line"/>
      <point x="80" y="110" type="line"/>
      <point x="80" y="120" type="line"/>
      <point x="50" y="120" type="line"/>
      <point x="50" y="110" type="line"/>
      <point x="30" y="110" type="line"/>
    </contour>
  </outline>
</glyph>
<glyph name="edieresis" format="2">
  <advance width="110"/>
  <unicode hex="00EB"/>
  <outline>
    <component base="e"/>
    <contour>
      <point x="20" y="100" type="line"/>
      <point x="40" y="100" type="line"/>
      <point x="40" y="120" type="line"/>
      <point x="20" y="120" type="line"/>
    </contour>
    <contour>
      <point x="50" y="100" type="line"/>
      <point x="70" y="100" type="line"/>
      <point x="70" y="120" type="line"/>
      <point x="50" y="120" type="line"/>
    </contour>
  </outline>
</glyph>
<glyph name="ntilde" format="2">
  <advance width="110"/>
  <unicode hex="00F1"/>
  <outline>
    <component base="n"/>
    <contour>
      <point x="50" y="100" type="line"/>
      <point x="80" y="100" type="line"/>
      <point x="80" y="110" type="line"/>
      <point x="90" y="110" type="line"/>
      <point x="90" y="120" type="line"/>
      <point x="70" y="120" type="line"/>
      <point x="70" y="110" type="line"/>
      <point x="60" y="110" type="line"/>
      <point x="60" y="120" type="line"/>
      <point x="30" y="120" type="line"/>
      <point x="30" y="110" type="line"/>
      <point x="20" y="110" type="line"/>
      <point x="20" y="100" type="line"/>
      <point x="40" y="100" type="line"/>
      <point x="40" y="110" type="line"/>
      <point x="50" y="110" type="line"/>
    </contour>
  </outline>
</glyph>
<glyph name="odieresis" format="2">
  <advance width="110"/>
  <unicode hex="00F6"/>
  <outline>
    <component base="o"/>
    <contour>
      <point x="20" y="100" type="line"/>
      <point x="40" y="100" type="line"/>
      <point x="40" y="120" type="line"/>
      <point x="20" y="120" type="line"/>
    </contour>
    <contour>
      <point x="60" y="100" type="line"/>
      <point x="80" y="100" type="line"/>
      <point x="80" y="120" type="line"/>
      <point x="60" y="120" type="line"/>
    </contour>
  </outline>
</glyph>
<glyph name="ugrave" format="2">
  <advance width="110"/>
  <unicode hex="00F9"/>
  <outline>
    <component base="u"/>
    <contour>
      <point x="70" y="100" type="line"/>
      <point x="70" y="110" type="line"/>
      <point x="50" y="110" type="line"/>
      <point x="50" y="120" type="line"/>
      <point x="20" y="120" type="line"/>
      <point x="20" y="110" type="line"/>
      <point x="40" y="110" type="line"/>
      <point x="40" y="100" type="line"/>
    </contour>
  </outline>
</glyph>
<glyph name="yacute" format="2">
  <advance width="110"/>
  <unicode hex="00FD"/>
  <outline>
    <component base="y"/>
    <contour>
      <point x="30" y="100" type="line"/>
      <point x="60" y="100" type="line"/>
      <point x="60" y="110" type="line"/>
      <point x="80" y="110" type="line"/>
      <point x="80" y="120" type="line"/>
      <point x="50" y="120" type="line"/>
      <point x="50" y="110" type="line"/>
      <point x="30" y="110" type="line"/>
    </contour>
  </outline>
</glyph>
<glyph name="abreve" format="2">
  <advance width="110"/>
  <unicode hex="0103"/>
  <outline>
    <component base="a"/>
    <contour>
      <point x="60" y="120" type="line"/>
      <point x="60" y="110" type="line"/>
      <point x="40" y="110" type="line"/>
      <point x="40" y="120" type="line"/>
      <point x="20" y="120" type="line"/>
      <point x="20" y="110" type="line"/>
      <point x="30" y="110" type="line"/>
      <point x="30" y="100" type="line"/>
      <point x="70" y="100" type="line"/>
      <point x="70" y="110" type="line"/>
      <point x="80" y="110" type="line"/>
      <point x="80" y="120" type="line"/>
    </contour>
  </outline>
</glyph>
<glyph name="aogonek" format="2">
  <advance width="110"/>
  <unicode hex="0105"/>
  <outline>
    <component base="a" xOffset="-10" yOffset="10"/>
    <contour>
      <point x="60" y="0" type="line"/>
      <point x="70" y="0" type="line"/>
      <point x="70" y="-10" type="line"/>
      <point x="100" y="-10" type="line"/>
      <point x="100" y="0" type="line"/>
      <point x="80" y="0" type="line"/>
      <point x="80" y="10" type="line"/>
      <point x="60" y="10" type="line"/>
    </contour>
  </outline>
</glyph>
<glyph name="Ccaron" format="2">
  <advance width="110"/>
  <unicode hex="010C"/>
  <outline>
    <contour>
      <point x="10" y="20" type="line"/>
      <point x="20" y="20" type="line"/>
      <point x="20" y="10" type="line"/>
      <point x="30" y="10" type="line"/>
      <point x="30" y="0" type="line"/>
      <point x="80" y="0" type="line"/>
      <point x="80" y="10" type="line"/>
      <point x="90" y="10" type="line"/>
      <point x="90" y="30" type="line"/>
      <point x="70" y="30" type="line"/>
      <point x="70" y="20" type="line"/>
      <point x="40" y="20" type="line"/>
      <point x="40" y="30" type="line"/>
      <point x="30" y="30" type="line"/>
      <point x="30" y="70" type="line"/>
      <point x="40" y="70" type="line"/>
      <point x="40" y="80" type="line"/>
      <point x="70" y="80" type="line"/>
      <point x="70" y="70" type="line"/>
      <point x="90" y="70" type="line"/>
      <point x="90" y="90" type="line"/>
      <point x="80" y="90" type="line"/>
      <point x="80" y="100" type="line"/>
      <point x="70" y="100" type="line"/>
      <point x="70" y="110" type="line"/>
      <point x="80" y="110" type="line"/>
      <point x="80" y="120" type="line"/>
      <point x="60" y="120" type="line"/>
      <point x="60" y="110" type="line"/>
      <point x="40" y="110" type="line"/>
      <point x="40" y="120" type="line"/>
      <point x="20" y="120" type="line"/>
      <point x="20" y="110" type="line"/>
      <point x="30" y="110" type="line"/>
      <point x="30" y="90" type="line"/>
      <point x="20" y="90" type="line"/>
      <point x="20" y="80" type="line"/>
      <point x="10" y="80" type="line"/>
    </contour>
  </outline>
</glyph>
<glyph name="eogonek" format="2">
  <advance width="110"/>
  <unicode hex="0119"/>
  <outline>
    <component base="e" yOffset="10"/>
    <contour>
      <point x="40" y="0" type="line"/>
      <point x="50" y="0" type="line"/>
      <point x="50" y="-10" type="line"/>
      <point x="80" y="-10" type="line"/>
      <point x="80" y="0" type="line"/>
      <point x="60" y="0" type="line"/>
      <point x="60" y="10" type="line"/>
      <point x="40" y="10" type="line"/>
    </contour>
  </outline>
</glyph>
<glyph name="lcaron" format="2">
  <advance width="110"/>
  <unicode hex="013E"/>
  <outline>
    <component base="l"/>
    <contour>
      <point x="80" y="80" type="line"/>
      <point x="80" y="90" type="line"/>
      <point x="90" y="90" type="line"/>
      <point x="90" y="120" type="line"/>
      <point x="70" y="120" type="line"/>
      <point x="70" y="80" type="line"/>
    </contour>
  </outline>
</glyph>
<glyph name="Lslash" format="2">
  <advance width="110"/>
  <unicode hex="0141"/>
  <outline>
    <component base="L"/>
    <contour>
      <point x="30" y="50" type="line"/>
      <point x="50" y="50" type="line"/>
      <point x="50" y="60" type="line"/>
      <point x="60" y="60" type="line"/>
      <point x="60" y="80" type="line"/>
      <point x="40" y="80" type="line"/>
      <point x="40" y="70" type="line"/>
      <point x="30" y="70" type="line"/>
    </contour>
    <contour>
      <point x="0" y="40" type="line"/>
      <point x="10" y="40" type="line"/>
      <point x="10" y="60" type="line"/>
      <point x="0" y="60" type="line"/>
    </contour>
  </outline>
</glyph>
<glyph name="lslash" format="2">
  <advance width="110"/>
  <unicode hex="0142"/>
  <outline>
    <component base="l"/>
    <contour>
      <point x="60" y="70" type="line"/>
      <point x="70" y="70" type="line"/>
      <point x="70" y="80" type="line"/>
      <point x="80" y="80" type="line"/>
      <point x="80" y="100" type="line"/>
      <point x="70" y="100" type="line"/>
      <point x="70" y="90" type="line"/>
      <point x="60" y="90" type="line"/>
    </contour>
    <contour>
      <point x="30" y="50" type="line"/>
      <point x="40" y="50" type="line"/>
      <point x="40" y="70" type="line"/>
      <point x="30" y="70" type="line"/>
      <point x="30" y="60" type="line"/>
      <point x="20" y="60" type="line"/>
      <point x="20" y="40" type="line"/>
      <point x="30" y="40" type="line"/>
    </contour>
  </outline>
</glyph>
<glyph name="nacute" format="2">
  <advance width="110"/>
  <unicode hex="0144"/>
  <outline>
    <component base="n"/>
    <contour>
      <point x="30" y="100" type="line"/>
      <point x="60" y="100" type="line"/>
      <point x="60" y="110" type="line"/>
      <point x="80" y="110" type="line"/>
      <point x="80" y="120" type="line"/>
      <point x="50" y="120" type="line"/>
      <point x="50" y="110" type="line"/>
      <point x="30" y="110" type="line"/>
    </contour>
  </outline>
</glyph>
<glyph name="oe" format="2">
  <advance width="110"/>
  <unicode hex="0153"/>
  <outline>
    <contour>
      <point x="0" y="10" type="line"/>
      <point x="10" y="10" type="line"/>
      <point x="10" y="0" type="line"/>
      <point x="40" y="0" type="line"/>
      <point x="40" y="10" type="line"/>
      <point x="50" y="10" type="line"/>
      <point x="50" y="0" type="line"/>
      <point x="90" y="0" type="line"/>
      <point x="90" y="10" type="line"/>
      <point x="100" y="10" type="line"/>
      <point x="100" y="30" type="line"/>
      <point x="80" y="30" type="line"/>
      <point x="80" y="20" type="line"/>
      <point x="60" y="20" type="line"/>
      <point x="60" y="40" type="line"/>
      <point x="100" y="40" type="line"/>
      <point x="100" y="80" type="line"/>
      <point x="90" y="80" type="line"/>
      <point x="90" y="90" type="line"/>
      <point x="50" y="90" type="line"/>
      <point x="50" y="80" type="line"/>
      <point x="40" y="80" type="line"/>
      <point x="40" y="90" type="line"/>
      <point x="10" y="90" type="line"/>
      <point x="10" y="80" type="line"/>
      <point x="0" y="80" type="line"/>
    </contour>
    <contour>
      <point x="20" y="20" type="line"/>
      <point x="20" y="70" type="line"/>
      <point x="40" y="70" type="line"/>
      <point x="40" y="20" type="line"/>
    </contour>
    <contour>
      <point x="60" y="60" type="line"/>
      <point x="60" y="70" type="line"/>
      <point x="80" y="70" type="line"/>
      <point x="80" y="60" type="line"/>
    </contour>
  </outline>
</glyph>
<glyph name="racute" format="2">
  <advance width="110"/>
  <unicode hex="0155"/>
  <outline>
    <component base="r"/>
    <contour>
      <point x="30" y="100" type="line"/>
      <point x="60" y="100" type="line"/>
      <point x="60" y="110" type="line"/>
      <point x="80" y="110" type="line"/>
      <point x="80" y="120" type="line"/>
      <point x="50" y="120" type="line"/>
      <point x="50" y="110" type="line"/>
      <point x="30" y="110" type="line"/>
    </contour>
  </outline>
</glyph>
<glyph name="tcaron" format="2">
  <advance width="110"/>
  <unicode hex="0165"/>
  <outline>
    <component base="t" xOffset="-10"/>
    <contour>
      <point x="90" y="80" type="line"/>
      <point x="90" y="90" type="line"/>
      <point x="100" y="90" type="line"/>
      <point x="100" y="120" type="line"/>
      <point x="80" y="120" type="line"/>
      <point x="80" y="80" type="line"/>
    </contour>
  </outline>
</glyph>
<glyph name="Utilde" format="2">
  <advance width="110"/>
  <unicode hex="0168"/>
  <outline>
    <contour>
      <point x="20" y="10" type="line"/>
      <point x="20" y="0" type="line"/>
      <point x="80" y="0" type="line"/>
      <point x="80" y="10" type="line"/>
      <point x="90" y="10" type="line"/>
      <point x="90" y="90" type="line"/>
      <point x="70" y="90" type="line"/>
      <point x="70" y="20" type="line"/>
      <point x="30" y="20" type="line"/>
      <point x="30" y="90" type="line"/>
      <point x="10" y="90" type="line"/>
      <point x="10" y="10" type="line"/>
    </contour>
    <contour>
      <point x="50" y="100" type="line"/>
      <point x="80" y="100" type="line"/>
      <point x="80" y="110" type="line"/>
      <point x="90" y="110" type="line"/>
      <point x="90" y="120" type="line"/>
      <point x="70" y="120" type="line"/>
      <point x="70" y="110" type="line"/>
      <point x="60" y="110" type="line"/>
      <point x="60" y="120" type="line"/>
      <point x="30" y="120" type="line"/>
      <point x="30" y="110" type="line"/>
      <point x="20" y="110" type="line"/>
      <point x="20" y="100" type="line"/>
      <point x="40" y="100" type="line"/>
      <point x="40" y="110" type="line"/>
      <point x="50" y="110" type="line"/>
    </contour>
  </outline>
</glyph>
<glyph name="Uhungarumlaut" format="2">
  <advance width="110"/>
  <unicode hex="0170"/>
  <outline>
    <contour>
      <point x="50" y="100" type="line"/>
      <point x="70" y="100" type="line"/>
      <point x="70" y="110" type="line"/>
      <point x="80" y="110" type="line"/>
      <point x="80" y="120" type="line"/>
      <point x="60" y="120" type="line"/>
      <point x="60" y="110" type="line"/>
      <point x="50" y="110" type="line"/>
      <point x="50" y="120" type="line"/>
      <point x="30" y="120" type="line"/>
      <point x="30" y="110" type="line"/>
      <point x="20" y="110" type="line"/>
      <point x="20" y="100" type="line"/>
      <point x="40" y="100" type="line"/>
      <point x="40" y="110" type="line"/>
      <point x="50" y="110" type="line"/>
    </contour>
    <contour>
      <point x="20" y="10" type="line"/>
      <point x="20" y="0" type="line"/>
      <point x="80" y="0" type="line"/>
      <point x="80" y="10" type="line"/>
      <point x="90" y="10" type="line"/>
      <point x="90" y="91" type="line"/>
      <point x="70" y="91" type="line"/>
      <point x="70" y="20" type="line"/>
      <point x="30" y="20" type="line"/>
      <point x="30" y="91" type="line"/>
      <point x="10" y="91" type="line"/>
      <point x="10" y="10" type="line"/>
    </contour>
  </outline>
</glyph>
<glyph name="zacute" format="2">
  <advance width="110"/>
  <unicode hex="017A"/>
  <outline>
    <component base="z"/>
    <contour>
      <point x="30" y="100" type="line"/>
      <point x="60" y="100" type="line"/>
      <point x="60" y="110" type="line"/>
      <point x="80" y="110" type="line"/>
      <point x="80" y="120" type="line"/>
      <point x="50" y="120" type="line"/>
      <point x="50" y="110" type="line"/>
      <point x="30" y="110" type="line"/>
    </contour>
  </outline>
</glyph>
<glyph name="Zdotaccent" format="2">
  <advance width="110"/>
  <unicode hex="017B"/>
  <outline>
    <component base="z"/>
    <contour>
      <point x="40" y="100" type="line"/>
      <point x="60" y="100" type="line"/>
      <point x="60" y="120" type="line"/>
      <point x="40" y="120" type="line"/>
    </contour>
  </outline>
</glyph>
<glyph name="zcaron" format="2">
  <advance width="110"/>
  <unicode hex="017E"/>
  <outline>
    <component base="z"/>
    <contour>
      <point x="60" y="120" type="line"/>
      <point x="60" y="110" type="line"/>
      <point x="40" y="110" type="line"/>
      <point x="40" y="120" type="line"/>
      <point x="20" y="120" type="line"/>
      <point x="20" y="110" type="line"/>
      <point x="30" y="110" type="line"/>
      <point x="30" y="100" type="line"/>
      <point x="70" y="100" type="line"/>
      <point x="70" y="110" type="line"/>
      <point x="80" y="110" type="line"/>
      <point x="80" y="120" type="line"/>
    </contour>
  </outline>
</glyph>
<glyph name="Ohorn" format="2">
  <advance width="110"/>
  <unicode hex="01A0"/>
  <outline>
    <contour>
      <point x="0" y="20" type="line"/>
      <point x="10" y="20" type="line"/>
      <point x="10" y="10" type="line"/>
      <point x="20" y="10" type="line"/>
      <point x="20" y="0" type="line"/>
      <point x="70" y="0" type="line"/>
      <point x="70" y="10" type="line"/>
      <point x="80" y="10" type="line"/>
      <point x="80" y="20" type="line"/>
      <point x="90" y="20" type="line"/>
      <point x="90" y="90" type="line"/>
      <point x="100" y="90" type="line"/>
      <point x="100" y="120" type="line"/>
      <point x="80" y="120" type="line"/>
      <point x="80" y="100" type="line"/>
      <point x="70" y="100" type="line"/>
      <point x="70" y="110" type="line"/>
      <point x="20" y="110" type="line"/>
      <point x="20" y="100" type="line"/>
      <point x="10" y="100" type="line"/>
      <point x="10" y="90" type="line"/>
      <point x="0" y="90" type="line"/>
    </contour>
    <contour>
      <point x="30" y="20" type="line"/>
      <point x="30" y="30" type="line"/>
      <point x="20" y="30" type="line"/>
      <point x="20" y="80" type="line"/>
      <point x="30" y="80" type="line"/>
      <point x="30" y="90" type="line"/>
      <point x="60" y="90" type="line"/>
      <point x="60" y="80" type="line"/>
      <point x="70" y="80" type="line"/>
      <point x="70" y="30" type="line"/>
      <point x="60" y="30" type="line"/>
      <point x="60" y="20" type="line"/>
    </contour>
  </outline>
</glyph>
<glyph name="ohorn" format="2">
  <advance width="110"/>
  <unicode hex="01A1"/>
  <outline>
    <contour>
      <point x="10" y="10" type="line"/>
      <point x="20" y="10" type="line"/>
      <point x="20" y="0" type="line"/>
      <point x="80" y="0" type="line"/>
      <point x="80" y="10" type="line"/>
      <point x="90" y="10" type="line"/>
      <point x="90" y="70" type="line"/>
      <point x="100" y="70" type="line"/>
      <point x="100" y="100" type="line"/>
      <point x="80" y="100" type="line"/>
      <point x="80" y="80" type="line"/>
      <point x="70" y="80" type="line"/>
      <point x="70" y="90" type="line"/>
      <point x="20" y="90" type="line"/>
      <point x="20" y="80" type="line"/>
      <point x="10" y="80" type="line"/>
    </contour>
    <contour>
      <point x="30" y="20" type="line"/>
      <point x="30" y="70" type="line"/>
      <point x="70" y="70" type="line"/>
      <point x="70" y="20" type="line"/>
    </contour>
  </outline>
</glyph>
<glyph name="uhorn" format="2">
  <advance width="110"/>
  <unicode hex="01B0"/>
  <outline>
    <component base="u" xOffset="-10"/>
    <contour>
      <point x="80" y="60" type="line"/>
      <point x="90" y="60" type="line"/>
      <point x="90" y="70" type="line"/>
      <point x="100" y="70" type="line"/>
      <point x="100" y="100" type="line"/>
      <point x="90" y="100" type="line"/>
      <point x="90" y="80" type="line"/>
      <point x="80" y="80" type="line"/>
    </contour>
  </outline>
</glyph>
<glyph name="Ismall" format="2">
  <advance width="110"/>
  <unicode hex="026A"/>
  <outline>
    <contour>
      <point x="30" y="40" type="line"/>
      <point x="40" y="40" type="line"/>
      <point x="40" y="10" type="line"/>
      <point x="30" y="10" type="line"/>
      <point x="30" y="-10" type="line"/>
      <point x="70" y="-10" type="line"/>
      <point x="70" y="10" type="line"/>
      <point x="60" y="10" type="line"/>
      <point x="60" y="40" type="line"/>
      <point x="70" y="40" type="line"/>
      <point x="70" y="60" type="line"/>
      <point x="30" y="60" type="line"/>
    </contour>
  </outline>
</glyph>
<glyph name="rsupmod" format="2">
  <advance width="110"/>
  <unicode hex="02B3"/>
  <outline>
    <contour>
      <point x="80" y="100" type="line"/>
      <point x="80" y="120" type="line"/>
      <point x="50" y="120" type="line"/>
      <point x="50" y="110" type="line"/>
      <point x="40" y="110" type="line"/>
      <point x="40" y="120" type="line"/>
      <point x="20" y="120" type="line"/>
      <point x="20" y="60" type="line"/>
      <point x="40" y="60" type="line"/>
      <point x="40" y="90" type="line"/>
      <point x="50" y="90" type="line"/>
      <point x="50" y="100" type="line"/>
    </contour>
  </outline>
</glyph>
<glyph name="Djecyr" format="2">
  <advance width="110"/>
  <unicode hex="0402"/>
  <outline>
    <component base="T" xOffset="-10"/>
    <contour>
      <point x="50" y="50" type="line"/>
      <point x="80" y="50" type="line"/>
      <point x="80" y="20" type="line"/>
      <point x="60" y="20" type="line"/>
      <point x="60" y="0" type="line"/>
      <point x="90" y="0" type="line"/>
      <point x="90" y="10" type="line"/>
      <point x="100" y="10" type="line"/>
      <point x="100" y="60" type="line"/>
      <point x="90" y="60" type="line"/>
      <point x="90" y="70" type="line"/>
      <point x="50" y="70" type="line"/>
    </contour>
  </outline>
</glyph>
<glyph name="Tshecyr" format="2">
  <advance width="110"/>
  <unicode hex="040B"/>
  <outline>
    <component base="T" xOffset="-10"/>
    <contour>
      <point x="50" y="50" type="line"/>
      <point x="80" y="50" type="line"/>
      <point x="80" y="0" type="line"/>
      <point x="100" y="0" type="line"/>
      <point x="100" y="60" type="line"/>
      <point x="90" y="60" type="line"/>
      <point x="90" y="70" type="line"/>
      <point x="50" y="70" type="line"/>
    </contour>
  </outline>
</glyph>
<glyph name="Dzhecyr" format="2">
  <advance width="110"/>
  <unicode hex="040F"/>
  <outline>
    <component base="Pecyr" yScale="-1" yOffset="120"/>
    <contour>
      <point x="40" y="-10" type="line"/>
      <point x="60" y="-10" type="line"/>
      <point x="60" y="0" type="line"/>
      <point x="40" y="0" type="line"/>
    </contour>
  </outline>
</glyph>
<glyph name="Decyr" format="2">
  <advance width="110"/>
  <unicode hex="0414"/>
  <outline>
    <contour>
      <point x="70" y="20" type="line"/>
      <point x="30" y="20" type="line"/>
      <point x="30" y="40" type="line"/>
      <point x="40" y="40" type="line"/>
      <point x="40" y="100" type="line"/>
      <point x="70" y="100" type="line"/>
    </contour>
    <contour>
      <point x="0" y="-10" type="line"/>
      <point x="20" y="-10" type="line"/>
      <point x="20" y="0" type="line"/>
      <point x="80" y="0" type="line"/>
      <point x="80" y="-10" type="line"/>
      <point x="100" y="-10" type="line"/>
      <point x="100" y="20" type="line"/>
      <point x="90" y="20" type="line"/>
      <point x="90" y="120" type="line"/>
      <point x="20" y="120" type="line"/>
      <point x="20" y="50" type="line"/>
      <point x="10" y="50" type="line"/>
      <point x="10" y="20" type="line"/>
      <point x="0" y="20" type="line"/>
    </contour>
  </outline>
</glyph>
<glyph name="Pecyr" format="2">
  <advance width="110"/>
  <unicode hex="041F"/>
  <outline>
    <contour>
      <point x="10" y="0" type="line"/>
      <point x="30" y="0" type="line"/>
      <point x="30" y="100" type="line"/>
      <point x="70" y="100" type="line"/>
      <point x="70" y="0" type="line"/>
      <point x="90" y="0" type="line"/>
      <point x="90" y="120" type="line"/>
      <point x="10" y="120" type="line"/>
    </contour>
  </outline>
</glyph>
<glyph name="Ercyr" format="2">
  <advance width="110"/>
  <unicode hex="0420"/>
  <outline>
    <contour>
      <point x="30" y="100" type="line"/>
      <point x="70" y="100" type="line"/>
      <point x="70" y="60" type="line"/>
      <point x="30" y="60" type="line"/>
    </contour>
    <contour>
      <point x="10" y="0" type="line"/>
      <point x="30" y="0" type="line"/>
      <point x="30" y="40" type="line"/>
      <point x="80" y="40" type="line"/>
      <point x="80" y="50" type="line"/>
      <point x="90" y="50" type="line"/>
      <point x="90" y="110" type="line"/>
      <point x="80" y="110" type="line"/>
      <point x="80" y="120" type="line"/>
      <point x="10" y="120" type="line"/>
    </contour>
  </outline>
</glyph>
<glyph name="Efcyr" format="2">
  <advance width="110"/>
  <unicode hex="0424"/>
  <outline>
    <contour>
      <point x="15" y="30" type="line"/>
      <point x="25" y="30" type="line"/>
      <point x="25" y="20" type="line"/>
      <point x="45" y="20" type="line"/>
      <point x="45" y="0" type="line"/>
      <point x="65" y="0" type="line"/>
      <point x="65" y="20" type="line"/>
      <point x="85" y="20" type="line"/>
      <point x="85" y="30" type="line"/>
      <point x="95" y="30" type="line"/>
      <point x="95" y="90" type="line"/>
      <point x="85" y="90" type="line"/>
      <point x="85" y="100" type="line"/>
      <point x="65" y="100" type="line"/>
      <point x="65" y="120" type="line"/>
      <point x="45" y="120" type="line"/>
      <point x="45" y="100" type="line"/>
      <point x="25" y="100" type="line"/>
      <point x="25" y="90" type="line"/>
      <point x="15" y="90" type="line"/>
    </contour>
    <contour>
      <point x="35" y="40" type="line"/>
      <point x="35" y="80" type="line"/>
      <point x="45" y="80" type="line"/>
      <point x="45" y="40" type="line"/>
    </contour>
    <contour>
      <point x="65" y="40" type="line"/>
      <point x="65" y="80" type="line"/>
      <point x="75" y="80" type="line"/>
      <point x="75" y="40" type="line"/>
    </contour>
  </outline>
</glyph>
<glyph name="Tsecyr" format="2">
  <advance width="110"/>
  <unicode hex="0426"/>
  <outline>
    <component base="Pecyr" yScale="-1" yOffset="120"/>
    <contour>
      <point x="80" y="-10" type="line"/>
      <point x="100" y="-10" type="line"/>
      <point x="100" y="20" type="line"/>
      <point x="80" y="20" type="line"/>
    </contour>
  </outline>
</glyph>
<glyph name="Shacyr" format="2">
  <advance width="110"/>
  <unicode hex="0428"/>
  <outline>
    <component base="Pecyr" yScale="-1" yOffset="120"/>
    <contour>
      <point x="40" y="20" type="line"/>
      <point x="60" y="20" type="line"/>
      <point x="60" y="120" type="line"/>
      <point x="40" y="120" type="line"/>
    </contour>
  </outline>
</glyph>
<glyph name="Shchacyr" format="2">
  <advance width="110"/>
  <unicode hex="0429"/>
  <outline>
    <component base="Shacyr"/>
    <contour>
      <point x="80" y="-10" type="line"/>
      <point x="100" y="-10" type="line"/>
      <point x="100" y="20" type="line"/>
      <point x="80" y="20" type="line"/>
    </contour>
  </outline>
</glyph>
<glyph name="Hardcyr" format="2">
  <advance width="110"/>
  <unicode hex="042A"/>
  <outline>
    <component base="Softcyr" xOffset="10"/>
    <contour>
      <point x="0" y="100" type="line"/>
      <point x="20" y="100" type="line"/>
      <point x="20" y="120" type="line"/>
      <point x="0" y="120" type="line"/>
    </contour>
  </outline>
</glyph>
<glyph name="Ylongcyr" format="2">
  <advance width="110"/>
  <unicode hex="042B"/>
  <outline>
    <contour>
      <point x="10" y="120" type="line"/>
      <point x="30" y="120" type="line"/>
      <point x="30" y="70" type="line"/>
      <point x="60" y="70" type="line"/>
      <point x="60" y="60" type="line"/>
      <point x="70" y="60" type="line"/>
      <point x="70" y="10" type="line"/>
      <point x="60" y="10" type="line"/>
      <point x="60" y="0" type="line"/>
      <point x="10" y="0" type="line"/>
    </contour>
    <contour>
      <point x="80" y="120" type="line"/>
      <point x="100" y="120" type="line"/>
      <point x="100" y="0" type="line"/>
      <point x="80" y="0" type="line"/>
    </contour>
    <contour>
      <point x="30" y="20" type="line"/>
      <point x="50" y="20" type="line"/>
      <point x="50" y="50" type="line"/>
      <point x="30" y="50" type="line"/>
    </contour>
  </outline>
</glyph>
<glyph name="Ereversedcyr" format="2">
  <advance width="110"/>
  <unicode hex="042D"/>
  <outline>
    <component base="C" xScale="-1" xOffset="100"/>
    <contour>
      <point x="30" y="50" type="line"/>
      <point x="70" y="50" type="line"/>
      <point x="70" y="70" type="line"/>
      <point x="30" y="70" type="line"/>
    </contour>
  </outline>
</glyph>
<glyph name="Yucyr" format="2">
  <advance width="110"/>
  <unicode hex="042E"/>
  <outline>
    <contour>
      <point x="40" y="10" type="line"/>
      <point x="50" y="10" type="line"/>
      <point x="50" y="0" type="line"/>
      <point x="90" y="0" type="line"/>
      <point x="90" y="10" type="line"/>
      <point x="100" y="10" type="line"/>
      <point x="100" y="110" type="line"/>
      <point x="90" y="110" type="line"/>
      <point x="90" y="120" type="line"/>
      <point x="50" y="120" type="line"/>
      <point x="50" y="110" type="line"/>
      <point x="40" y="110" type="line"/>
      <point x="40" y="70" type="line"/>
      <point x="20" y="70" type="line"/>
      <point x="20" y="120" type="line"/>
      <point x="0" y="120" type="line"/>
      <point x="0" y="0" type="line"/>
      <point x="20" y="0" type="line"/>
      <point x="20" y="50" type="line"/>
      <point x="40" y="50" type="line"/>
    </contour>
    <contour>
      <point x="60" y="20" type="line"/>
      <point x="60" y="100" type="line"/>
      <point x="80" y="100" type="line"/>
      <point x="80" y="20" type="line"/>
    </contour>
  </outline>
</glyph>
<glyph name="becyr" format="2">
  <advance width="110"/>
  <unicode hex="0431"/>
  <outline>
    <contour>
      <point x="30" y="20" type="line"/>
      <point x="30" y="60" type="line"/>
      <point x="70" y="60" type="line"/>
      <point x="70" y="20" type="line"/>
    </contour>
    <contour>
      <point x="30" y="90" type="line"/>
      <point x="50" y="90" type="line"/>
      <point x="50" y="100" type="line"/>
      <point x="90" y="100" type="line"/>
      <point x="90" y="120" type="line"/>
      <point x="40" y="120" type="line"/>
      <point x="40" y="110" type="line"/>
      <point x="20" y="110" type="line"/>
      <point x="20" y="100" type="line"/>
      <point x="10" y="100" type="line"/>
      <point x="10" y="10" type="line"/>
      <point x="20" y="10" type="line"/>
      <point x="20" y="0" type="line"/>
      <point x="80" y="0" type="line"/>
      <point x="80" y="10" type="line"/>
      <point x="90" y="10" type="line"/>
      <point x="90" y="70" type="line"/>
      <point x="80" y="70" type="line"/>
      <point x="80" y="80" type="line"/>
      <point x="30" y="80" type="line"/>
    </contour>
  </outline>
</glyph>
<glyph name="gecyr" format="2">
  <advance width="110"/>
  <unicode hex="0433"/>
  <outline>
    <contour>
      <point x="20" y="0" type="line"/>
      <point x="40" y="0" type="line"/>
      <point x="40" y="70" type="line"/>
      <point x="90" y="70" type="line"/>
      <point x="90" y="90" type="line"/>
      <point x="20" y="90" type="line"/>
    </contour>
  </outline>
</glyph>
<glyph name="decyr" format="2">
  <advance width="110"/>
  <unicode hex="0434"/>
  <outline>
    <contour>
      <point x="70" y="20" type="line"/>
      <point x="40" y="20" type="line"/>
      <point x="40" y="30" type="line"/>
      <point x="50" y="30" type="line"/>
      <point x="50" y="70" type="line"/>
      <point x="70" y="70" type="line"/>
    </contour>
    <contour>
      <point x="10" y="-10" type="line"/>
      <point x="30" y="-10" type="line"/>
      <point x="30" y="0" type="line"/>
      <point x="80" y="0" type="line"/>
      <point x="80" y="-10" type="line"/>
      <point x="100" y="-10" type="line"/>
      <point x="100" y="20" type="line"/>
      <point x="90" y="20" type="line"/>
      <point x="90" y="90" type="line"/>
      <point x="30" y="90" type="line"/>
      <point x="30" y="40" type="line"/>
      <point x="20" y="40" type="line"/>
      <point x="20" y="20" type="line"/>
      <point x="10" y="20" type="line"/>
    </contour>
  </outline>
</glyph>
<glyph name="zhecyr" format="2">
  <advance width="110"/>
  <unicode hex="0436"/>
  <outline>
    <contour>
      <point x="60" y="0" type="line"/>
      <point x="40" y="0" type="line"/>
      <point x="40" y="30" type="line"/>
      <point x="30" y="30" type="line"/>
      <point x="30" y="0" type="line"/>
      <point x="10" y="0" type="line"/>
      <point x="10" y="30" type="line"/>
      <point x="20" y="30" type="line"/>
      <point x="20" y="60" type="line"/>
      <point x="10" y="60" type="line"/>
      <point x="10" y="90" type="line"/>
      <point x="30" y="90" type="line"/>
      <point x="30" y="60" type="line"/>
      <point x="40" y="60" type="line"/>
      <point x="40" y="90" type="line"/>
      <point x="60" y="90" type="line"/>
      <point x="60" y="60" type="line"/>
      <point x="70" y="60" type="line"/>
      <point x="70" y="90" type="line"/>
      <point x="90" y="90" type="line"/>
      <point x="90" y="60" type="line"/>
      <point x="80" y="60" type="line"/>
      <point x="80" y="30" type="line"/>
      <point x="90" y="30" type="line"/>
      <point x="90" y="0" type="line"/>
      <point x="70" y="0" type="line"/>
      <point x="70" y="30" type="line"/>
      <point x="60" y="30" type="line"/>
    </contour>
  </outline>
</glyph>
<glyph name="ishortcyr" format="2">
  <advance width="110"/>
  <unicode hex="0439"/>
  <outline>
    <component base="icyr"/>
    <contour>
      <point x="60" y="120" type="line"/>
      <point x="60" y="110" type="line"/>
      <point x="40" y="110" type="line"/>
      <point x="40" y="120" type="line"/>
      <point x="20" y="120" type="line"/>
      <point x="20" y="110" type="line"/>
      <point x="30" y="110" type="line"/>
      <point x="30" y="100" type="line"/>
      <point x="70" y="100" type="line"/>
      <point x="70" y="110" type="line"/>
      <point x="80" y="110" type="line"/>
      <point x="80" y="120" type="line"/>
    </contour>
  </outline>
</glyph>
<glyph name="elcyr" format="2">
  <advance width="110"/>
  <unicode hex="043B"/>
  <outline>
    <contour>
      <point x="30" y="0" type="line"/>
      <point x="30" y="10" type="line"/>
      <point x="40" y="10" type="line"/>
      <point x="40" y="30" type="line"/>
      <point x="50" y="30" type="line"/>
      <point x="50" y="70" type="line"/>
      <point x="80" y="70" type="line"/>
      <point x="80" y="0" type="line"/>
      <point x="100" y="0" type="line"/>
      <point x="100" y="90" type="line"/>
      <point x="30" y="90" type="line"/>
      <point x="30" y="40" type="line"/>
      <point x="20" y="40" type="line"/>
      <point x="20" y="20" type="line"/>
      <point x="10" y="20" type="line"/>
      <point x="10" y="0" type="line"/>
    </contour>
  </outline>
</glyph>
<glyph name="emcyr" format="2">
  <advance width="110"/>
  <unicode hex="043C"/>
  <outline>
    <contour>
      <point x="10" y="0" type="line"/>
      <point x="30" y="0" type="line"/>
      <point x="30" y="30" type="line"/>
      <point x="40" y="30" type="line"/>
      <point x="40" y="0" type="line"/>
      <point x="60" y="0" type="line"/>
      <point x="60" y="30" type="line"/>
      <point x="70" y="30" type="line"/>
      <point x="70" y="0" type="line"/>
      <point x="90" y="0" type="line"/>
      <point x="90" y="90" type="line"/>
      <point x="70" y="90" type="line"/>
      <point x="70" y="70" type="line"/>
      <point x="60" y="70" type="line"/>
      <point x="60" y="50" type="line"/>
      <point x="40" y="50" type="line"/>
      <point x="40" y="70" type="line"/>
      <point x="30" y="70" type="line"/>
      <point x="30" y="90" type="line"/>
      <point x="10" y="90" type="line"/>
    </contour>
  </outline>
</glyph>
<glyph name="encyr" format="2">
  <advance width="110"/>
  <unicode hex="043D"/>
  <outline>
    <contour>
      <point x="10" y="0" type="line"/>
      <point x="30" y="0" type="line"/>
      <point x="30" y="40" type="line"/>
      <point x="70" y="40" type="line"/>
      <point x="70" y="0" type="line"/>
      <point x="90" y="0" type="line"/>
      <point x="90" y="90" type="line"/>
      <point x="70" y="90" type="line"/>
      <point x="70" y="60" type="line"/>
      <point x="30" y="60" type="line"/>
      <point x="30" y="90" type="line"/>
      <point x="10" y="90" type="line"/>
    </contour>
  </outline>
</glyph>
<glyph name="pecyr" format="2">
  <advance width="110"/>
  <unicode hex="043F"/>
  <outline>
    <contour>
      <point x="10" y="0" type="line"/>
      <point x="30" y="0" type="line"/>
      <point x="30" y="70" type="line"/>
      <point x="70" y="70" type="line"/>
      <point x="70" y="0" type="line"/>
      <point x="90" y="0" type="line"/>
      <point x="90" y="90" type="line"/>
      <point x="10" y="90" type="line"/>
    </contour>
  </outline>
</glyph>
<glyph name="tecyr" format="2">
  <advance width="110"/>
  <unicode hex="0442"/>
  <outline>
    <contour>
      <point x="10" y="70" type="line"/>
      <point x="40" y="70" type="line"/>
      <point x="40" y="0" type="line"/>
      <point x="60" y="0" type="line"/>
      <point x="60" y="70" type="line"/>
      <point x="90" y="70" type="line"/>
      <point x="90" y="90" type="line"/>
      <point x="10" y="90" type="line"/>
    </contour>
  </outline>
</glyph>
<glyph name="efcyr" format="2">
  <advance width="110"/>
  <unicode hex="0444"/>
  <outline>
    <contour>
      <point x="15" y="20" type="line"/>
      <point x="25" y="20" type="line"/>
      <point x="25" y="10" type="line"/>
      <point x="45" y="10" type="line"/>
      <point x="45" y="-10" type="line"/>
      <point x="65" y="-10" type="line"/>
      <point x="65" y="10" type="line"/>
      <point x="85" y="10" type="line"/>
      <point x="85" y="20" type="line"/>
      <point x="95" y="20" type="line"/>
      <point x="95" y="80" type="line"/>
      <point x="85" y="80" type="line"/>
      <point x="85" y="90" type="line"/>
      <point x="65" y="90" type="line"/>
      <point x="65" y="120" type="line"/>
      <point x="45" y="120" type="line"/>
      <point x="45" y="90" type="line"/>
      <point x="25" y="90" type="line"/>
      <point x="25" y="80" type="line"/>
      <point x="15" y="80" type="line"/>
    </contour>
    <contour>
      <point x="35" y="30" type="line"/>
      <point x="35" y="70" type="line"/>
      <point x="45" y="70" type="line"/>
      <point x="45" y="30" type="line"/>
    </contour>
    <contour>
      <point x="65" y="30" type="line"/>
      <point x="65" y="70" type="line"/>
      <point x="75" y="70" type="line"/>
      <point x="75" y="30" type="line"/>
    </contour>
  </outline>
</glyph>
<glyph name="tsecyr" format="2">
  <advance width="110"/>
  <unicode hex="0446"/>
  <outline>
    <component base="pecyr" yScale="-1" yOffset="90"/>
    <contour>
      <point x="80" y="-10" type="line"/>
      <point x="100" y="-10" type="line"/>
      <point x="100" y="20" type="line"/>
      <point x="80" y="20" type="line"/>
    </contour>
  </outline>
</glyph>
<glyph name="shacyr" format="2">
  <advance width="110"/>
  <unicode hex="0448"/>
  <outline>
    <component base="pecyr" yScale="-1" yOffset="90"/>
    <contour>
      <point x="40" y="20" type="line"/>
      <point x="60" y="20" type="line"/>
      <point x="60" y="90" type="line"/>
      <point x="40" y="90" type="line"/>
    </contour>
  </outline>
</glyph>
<glyph name="shchacyr" format="2">
  <advance width="110"/>
  <unicode hex="0449"/>
  <outline>
    <component base="shacyr"/>
    <contour>
      <point x="80" y="-10" type="line"/>
      <point x="100" y="-10" type="line"/>
      <point x="100" y="20" type="line"/>
      <point x="80" y="20" type="line"/>
    </contour>
  </outline>
</glyph>
<glyph name="hardcyr" format="2">
  <advance width="110"/>
  <unicode hex="044A"/>
  <outline>
    <component base="softcyr"/>
    <contour>
      <point x="0" y="70" type="line"/>
      <point x="20" y="70" type="line"/>
      <point x="20" y="90" type="line"/>
      <point x="0" y="90" type="line"/>
    </contour>
  </outline>
</glyph>
<glyph name="ylongcyr" format="2">
  <advance width="109"/>
  <unicode hex="044B"/>
  <outline>
    <contour>
      <point x="30" y="20" type="line"/>
      <point x="50" y="20" type="line"/>
      <point x="50" y="40" type="line"/>
      <point x="30" y="40" type="line"/>
    </contour>
    <contour>
      <point x="10" y="90" type="line"/>
      <point x="30" y="90" type="line"/>
      <point x="30" y="60" type="line"/>
      <point x="60" y="60" type="line"/>
      <point x="60" y="50" type="line"/>
      <point x="70" y="50" type="line"/>
      <point x="70" y="10" type="line"/>
      <point x="60" y="10" type="line"/>
      <point x="60" y="0" type="line"/>
      <point x="10" y="0" type="line"/>
    </contour>
    <contour>
      <point x="80" y="90" type="line"/>
      <point x="100" y="90" type="line"/>
      <point x="100" y="0" type="line"/>
      <point x="80" y="0" type="line"/>
    </contour>
  </outline>
</glyph>
<glyph name="ereversedcyr" format="2">
  <advance width="110"/>
  <unicode hex="044D"/>
  <outline>
    <component base="c" xScale="-1" xOffset="100"/>
    <contour>
      <point x="40" y="40" type="line"/>
      <point x="70" y="40" type="line"/>
      <point x="70" y="60" type="line"/>
      <point x="40" y="60" type="line"/>
    </contour>
  </outline>
</glyph>
<glyph name="yucyr" format="2">
  <advance width="110"/>
  <unicode hex="044E"/>
  <outline>
    <contour>
      <point x="40" y="10" type="line"/>
      <point x="50" y="10" type="line"/>
      <point x="50" y="0" type="line"/>
      <point x="90" y="0" type="line"/>
      <point x="90" y="10" type="line"/>
      <point x="100" y="10" type="line"/>
      <point x="100" y="80" type="line"/>
      <point x="90" y="80" type="line"/>
      <point x="90" y="90" type="line"/>
      <point x="50" y="90" type="line"/>
      <point x="50" y="80" type="line"/>
      <point x="40" y="80" type="line"/>
      <point x="40" y="60" type="line"/>
      <point x="30" y="60" type="line"/>
      <point x="30" y="90" type="line"/>
      <point x="10" y="90" type="line"/>
      <point x="10" y="0" type="line"/>
      <point x="30" y="0" type="line"/>
      <point x="30" y="40" type="line"/>
      <point x="40" y="40" type="line"/>
    </contour>
    <contour>
      <point x="60" y="20" type="line"/>
      <point x="60" y="70" type="line"/>
      <point x="80" y="70" type="line"/>
      <point x="80" y="20" type="line"/>
    </contour>
  </outline>
</glyph>
<glyph name="dzhecyr" format="2">
  <advance width="110"/>
  <unicode hex="045F"/>
  <outline>
    <component base="pecyr" yScale="-1" yOffset="90"/>
    <contour>
      <point x="40" y="-10" type="line"/>
      <point x="60" y="-10" type="line"/>
      <point x="60" y="0" type="line"/>
      <point x="40" y="0" type="line"/>
    </contour>
  </outline>
</glyph>
<glyph name="Asmall" format="2">
  <advance width="110"/>
  <unicode hex="1D00"/>
  <outline>
    <contour>
      <point x="10" y="-10" type="line"/>
      <point x="30" y="-10" type="line"/>
      <point x="30" y="0" type="line"/>
      <point x="70" y="0" type="line"/>
      <point x="70" y="-10" type="line"/>
      <point x="90" y="-10" type="line"/>
      <point x="90" y="10" type="line"/>
      <point x="80" y="10" type="line"/>
      <point x="80" y="30" type="line"/>
      <point x="70" y="30" type="line"/>
      <point x="70" y="50" type="line"/>
      <point x="60" y="50" type="line"/>
      <point x="60" y="60" type="line"/>
      <point x="40" y="60" type="line"/>
      <point x="40" y="50" type="line"/>
      <point x="30" y="50" type="line"/>
      <point x="30" y="30" type="line"/>
      <point x="20" y="30" type="line"/>
      <point x="20" y="10" type="line"/>
      <point x="10" y="10" type="line"/>
    </contour>
    <contour>
      <point x="60" y="20" type="line"/>
      <point x="40" y="20" type="line"/>
      <point x="40" y="30" type="line"/>
      <point x="60" y="30" type="line"/>
    </contour>
  </outline>
</glyph>
<glyph name="Csmall" format="2">
  <advance width="110"/>
  <unicode hex="1D04"/>
  <outline>
    <contour>
      <point x="10" y="0" type="line"/>
      <point x="20" y="0" type="line"/>
      <point x="20" y="-10" type="line"/>
      <point x="70" y="-10" type="line"/>
      <point x="70" y="0" type="line"/>
      <point x="80" y="0" type="line"/>
      <point x="80" y="20" type="line"/>
      <point x="60" y="20" type="line"/>
      <point x="60" y="10" type="line"/>
      <point x="30" y="10" type="line"/>
      <point x="30" y="40" type="line"/>
      <point x="60" y="40" type="line"/>
      <point x="60" y="30" type="line"/>
      <point x="80" y="30" type="line"/>
      <point x="80" y="50" type="line"/>
      <point x="70" y="50" type="line"/>
      <point x="70" y="60" type="line"/>
      <point x="20" y="60" type="line"/>
      <point x="20" y="50" type="line"/>
      <point x="10" y="50" type="line"/>
    </contour>
  </outline>
</glyph>
<glyph name="Jsmall" format="2">
  <advance width="110"/>
  <unicode hex="1D0A"/>
  <outline>
    <contour>
      <point x="10" y="0" type="line"/>
      <point x="20" y="0" type="line"/>
      <point x="20" y="-10" type="line"/>
      <point x="60" y="-10" type="line"/>
      <point x="60" y="0" type="line"/>
      <point x="70" y="0" type="line"/>
      <point x="70" y="60" type="line"/>
      <point x="50" y="60" type="line"/>
      <point x="50" y="10" type="line"/>
      <point x="30" y="10" type="line"/>
      <point x="30" y="20" type="line"/>
      <point x="10" y="20" type="line"/>
    </contour>
  </outline>
</glyph>
<glyph name="Ksmall" format="2">
  <advance width="110"/>
  <unicode hex="1D0B"/>
  <outline>
    <contour>
      <point x="20" y="-10" type="line"/>
      <point x="40" y="-10" type="line"/>
      <point x="40" y="10" type="line"/>
      <point x="50" y="10" type="line"/>
      <point x="50" y="0" type="line"/>
      <point x="60" y="0" type="line"/>
      <point x="60" y="-10" type="line"/>
      <point x="90" y="-10" type="line"/>
      <point x="90" y="0" type="line"/>
      <point x="80" y="0" type="line"/>
      <point x="80" y="10" type="line"/>
      <point x="70" y="10" type="line"/>
      <point x="70" y="20" type="line"/>
      <point x="60" y="20" type="line"/>
      <point x="60" y="30" type="line"/>
      <point x="70" y="30" type="line"/>
      <point x="70" y="40" type="line"/>
      <point x="80" y="40" type="line"/>
      <point x="80" y="50" type="line"/>
      <point x="90" y="50" type="line"/>
      <point x="90" y="60" type="line"/>
      <point x="60" y="60" type="line"/>
      <point x="60" y="50" type="line"/>
      <point x="50" y="50" type="line"/>
      <point x="50" y="40" type="line"/>
      <point x="40" y="40" type="line"/>
      <point x="40" y="60" type="line"/>
      <point x="20" y="60" type="line"/>
    </contour>
  </outline>
</glyph>
<glyph name="Tsmall" format="2">
  <advance width="100"/>
  <unicode hex="1D1B"/>
  <outline>
    <contour>
      <point x="20" y="40" type="line"/>
      <point x="40" y="40" type="line"/>
      <point x="40" y="-10" type="line"/>
      <point x="60" y="-10" type="line"/>
      <point x="60" y="40" type="line"/>
      <point x="80" y="40" type="line"/>
      <point x="80" y="60" type="line"/>
      <point x="20" y="60" type="line"/>
    </contour>
  </outline>
</glyph>
<glyph name="uinferior" format="2">
  <advance width="110"/>
  <unicode hex="1D64"/>
  <outline>
    <contour>
      <point x="20" y="50" type="line"/>
      <point x="20" y="10" type="line"/>
      <point x="30" y="10" type="line"/>
      <point x="30" y="0" type="line"/>
      <point x="60" y="0" type="line"/>
      <point x="60" y="10" type="line"/>
      <point x="70" y="10" type="line"/>
      <point x="70" y="0" type="line"/>
      <point x="90" y="0" type="line"/>
      <point x="90" y="10" type="line"/>
      <point x="80" y="10" type="line"/>
      <point x="80" y="50" type="line"/>
      <point x="60" y="50" type="line"/>
      <point x="60" y="20" type="line"/>
      <point x="40" y="20" type="line"/>
      <point x="40" y="50" type="line"/>
    </contour>
  </outline>
</glyph>
<glyph name="adotbelow" format="2">
  <advance width="110"/>
  <unicode hex="1EA1"/>
  <outline>
    <component base="a" yOffset="10"/>
    <contour>
      <point x="40" y="-10" type="line"/>
      <point x="60" y="-10" type="line"/>
      <point x="60" y="0" type="line"/>
      <point x="40" y="0" type="line"/>
    </contour>
  </outline>
</glyph>
<glyph name="ahoi" format="2">
  <advance width="110"/>
  <unicode hex="1EA3"/>
  <outline>
    <component base="a"/>
    <contour>
      <point x="40" y="110" type="line"/>
      <point x="60" y="110" type="line"/>
      <point x="60" y="120" type="line"/>
      <point x="40" y="120" type="line"/>
    </contour>
    <contour>
      <point x="60" y="100" type="line"/>
      <point x="70" y="100" type="line"/>
      <point x="70" y="110" type="line"/>
      <point x="60" y="110" type="line"/>
    </contour>
    <contour>
      <point x="50" y="90" type="line"/>
      <point x="60" y="90" type="line"/>
      <point x="60" y="100" type="line"/>
      <point x="50" y="100" type="line"/>
    </contour>
  </outline>
</glyph>
<glyph name="Acircumflexgrave" format="2">
  <advance width="110"/>
  <unicode hex="1EA6"/>
  <outline>
    <contour>
      <point x="30" y="40" type="line"/>
      <point x="30" y="50" type="line"/>
      <point x="40" y="50" type="line"/>
      <point x="40" y="70" type="line"/>
      <point x="50" y="70" type="line"/>
      <point x="50" y="50" type="line"/>
      <point x="60" y="50" type="line"/>
      <point x="60" y="40" type="line"/>
    </contour>
    <contour>
      <point x="90" y="0" type="line"/>
      <point x="90" y="30" type="line"/>
      <point x="80" y="30" type="line"/>
      <point x="80" y="60" type="line"/>
      <point x="70" y="60" type="line"/>
      <point x="70" y="80" type="line"/>
      <point x="60" y="80" type="line"/>
      <point x="60" y="90" type="line"/>
      <point x="30" y="90" type="line"/>
      <point x="30" y="80" type="line"/>
      <point x="20" y="80" type="line"/>
      <point x="20" y="60" type="line"/>
      <point x="10" y="60" type="line"/>
      <point x="10" y="30" type="line"/>
      <point x="0" y="30" type="line"/>
      <point x="0" y="0" type="line"/>
      <point x="20" y="0" type="line"/>
      <point x="20" y="20" type="line"/>
      <point x="70" y="20" type="line"/>
      <point x="70" y="0" type="line"/>
    </contour>
    <contour>
      <point x="60" y="100" type="line"/>
      <point x="60" y="110" type="line"/>
      <point x="80" y="110" type="line"/>
      <point x="80" y="100" type="line"/>
      <point x="100" y="100" type="line"/>
      <point x="100" y="110" type="line"/>
      <point x="90" y="110" type="line"/>
      <point x="90" y="120" type="line"/>
      <point x="50" y="120" type="line"/>
      <point x="50" y="110" type="line"/>
      <point x="40" y="110" type="line"/>
      <point x="40" y="100" type="line"/>
    </contour>
    <contour>
      <point x="30" y="100" type="line"/>
      <point x="30" y="110" type="line"/>
      <point x="20" y="110" type="line"/>
      <point x="20" y="120" type="line"/>
      <point x="0" y="120" type="line"/>
      <point x="0" y="110" type="line"/>
      <point x="10" y="110" type="line"/>
      <point x="10" y="100" type="line"/>
    </contour>
  </outline>
</glyph>
<glyph name="Acircumflexdotbelow" format="2">
  <advance width="110"/>
  <unicode hex="1EAC"/>
  <outline>
    <component base="Acircumflex"/>
    <contour>
      <point x="40" y="-10" type="line"/>
      <point x="60" y="-10" type="line"/>
      <point x="60" y="0" type="line"/>
      <point x="40" y="0" type="line"/>
    </contour>
  </outline>
</glyph>
<glyph name="Abrevedotbelow" format="2">
  <advance width="110"/>
  <unicode hex="1EB6"/>
  <outline>
    <component base="Abreve"/>
    <contour>
      <point x="40" y="-10" type="line"/>
      <point x="60" y="-10" type="line"/>
      <point x="60" y="0" type="line"/>
      <point x="40" y="0" type="line"/>
    </contour>
  </outline>
</glyph>
<glyph name="Edotbelow" format="2">
  <advance width="110"/>
  <unicode hex="1EB8"/>
  <outline>
    <contour>
      <point x="10" y="10" type="line"/>
      <point x="90" y="10" type="line"/>
      <point x="90" y="30" type="line"/>
      <point x="30" y="30" type="line"/>
      <point x="30" y="60" type="line"/>
      <point x="80" y="60" type="line"/>
      <point x="80" y="80" type="line"/>
      <point x="30" y="80" type="line"/>
      <point x="30" y="100" type="line"/>
      <point x="90" y="100" type="line"/>
      <point x="90" y="120" type="line"/>
      <point x="10" y="120" type="line"/>
    </contour>
    <contour>
      <point x="40" y="-10" type="line"/>
      <point x="60" y="-10" type="line"/>
      <point x="60" y="0" type="line"/>
      <point x="40" y="0" type="line"/>
    </contour>
  </outline>
</glyph>
<glyph name="edotbelow" format="2">
  <advance width="110"/>
  <unicode hex="1EB9"/>
  <outline>
    <component base="e" yOffset="10"/>
    <contour>
      <point x="40" y="-10" type="line"/>
      <point x="60" y="-10" type="line"/>
      <point x="60" y="0" type="line"/>
      <point x="40" y="0" type="line"/>
    </contour>
  </outline>
</glyph>
<glyph name="Ecircumflexacute" format="2">
  <advance width="110"/>
  <unicode hex="1EBE"/>
  <outline>
    <contour>
      <point x="10" y="0" type="line"/>
      <point x="90" y="0" type="line"/>
      <point x="90" y="20" type="line"/>
      <point x="30" y="20" type="line"/>
      <point x="30" y="40" type="line"/>
      <point x="80" y="40" type="line"/>
      <point x="80" y="60" type="line"/>
      <point x="30" y="60" type="line"/>
      <point x="30" y="70" type="line"/>
      <point x="90" y="70" type="line"/>
      <point x="90" y="90" type="line"/>
      <point x="10" y="90" type="line"/>
    </contour>
    <contour>
      <point x="40" y="100" type="line"/>
      <point x="60" y="100" type="line"/>
      <point x="60" y="110" type="line"/>
      <point x="50" y="110" type="line"/>
      <point x="50" y="120" type="line"/>
      <point x="10" y="120" type="line"/>
      <point x="10" y="110" type="line"/>
      <point x="0" y="110" type="line"/>
      <point x="0" y="100" type="line"/>
      <point x="20" y="100" type="line"/>
      <point x="20" y="110" type="line"/>
      <point x="40" y="110" type="line"/>
    </contour>
    <contour>
      <point x="70" y="100" type="line"/>
      <point x="90" y="100" type="line"/>
      <point x="90" y="110" type="line"/>
      <point x="100" y="110" type="line"/>
      <point x="100" y="120" type="line"/>
      <point x="80" y="120" type="line"/>
      <point x="80" y="110" type="line"/>
      <point x="70" y="110" type="line"/>
    </contour>
  </outline>
</glyph>
<glyph name="odotbelow" format="2">
  <advance width="110"/>
  <unicode hex="1ECD"/>
  <outline>
    <component base="o" yOffset="10"/>
    <contour>
      <point x="40" y="-10" type="line"/>
      <point x="60" y="-10" type="line"/>
      <point x="60" y="0" type="line"/>
      <point x="40" y="0" type="line"/>
    </contour>
  </outline>
</glyph>
<glyph name="ohoi" format="2">
  <advance width="110"/>
  <unicode hex="1ECF"/>
  <outline>
    <component base="o"/>
    <contour>
      <point x="40" y="110" type="line"/>
      <point x="60" y="110" type="line"/>
      <point x="60" y="120" type="line"/>
      <point x="40" y="120" type="line"/>
    </contour>
    <contour>
      <point x="60" y="100" type="line"/>
      <point x="70" y="100" type="line"/>
      <point x="70" y="110" type="line"/>
      <point x="60" y="110" type="line"/>
    </contour>
    <contour>
      <point x="50" y="90" type="line"/>
      <point x="60" y="90" type="line"/>
      <point x="60" y="100" type="line"/>
      <point x="50" y="100" type="line"/>
    </contour>
  </outline>
</glyph>
<glyph name="ocircumflextilde" format="2">
  <advance width="110"/>
  <unicode hex="1ED7"/>
  <outline>
    <contour>
      <point x="50" y="80" type="line"/>
      <point x="70" y="80" type="line"/>
      <point x="70" y="90" type="line"/>
      <point x="60" y="90" type="line"/>
      <point x="60" y="100" type="line"/>
      <point x="70" y="100" type="line"/>
      <point x="70" y="110" type="line"/>
      <point x="80" y="110" type="line"/>
      <point x="80" y="120" type="line"/>
      <point x="60" y="120" type="line"/>
      <point x="60" y="110" type="line"/>
      <point x="50" y="110" type="line"/>
      <point x="50" y="120" type="line"/>
      <point x="20" y="120" type="line"/>
      <point x="20" y="110" type="line"/>
      <point x="10" y="110" type="line"/>
      <point x="10" y="100" type="line"/>
      <point x="30" y="100" type="line"/>
      <point x="30" y="110" type="line"/>
      <point x="40" y="110" type="line"/>
      <point x="40" y="100" type="line"/>
      <point x="30" y="100" type="line"/>
      <point x="30" y="90" type="line"/>
      <point x="20" y="90" type="line"/>
      <point x="20" y="80" type="line"/>
      <point x="40" y="80" type="line"/>
      <point x="40" y="90" type="line"/>
      <point x="50" y="90" type="line"/>
    </contour>
    <contour>
      <point x="10" y="10" type="line"/>
      <point x="20" y="10" type="line"/>
      <point x="20" y="0" type="line"/>
      <point x="80" y="0" type="line"/>
      <point x="80" y="10" type="line"/>
      <point x="90" y="10" type="line"/>
      <point x="90" y="60" type="line"/>
      <point x="80" y="60" type="line"/>
      <point x="80" y="70" type="line"/>
      <point x="20" y="70" type="line"/>
      <point x="20" y="60" type="line"/>
      <point x="10" y="60" type="line"/>
    </contour>
    <contour>
      <point x="30" y="20" type="line"/>
      <point x="30" y="50" type="line"/>
      <point x="70" y="50" type="line"/>
      <point x="70" y="20" type="line"/>
    </contour>
  </outline>
</glyph>
<glyph name="ohornacute" format="2">
  <advance width="110"/>
  <unicode hex="1EDB"/>
  <outline>
    <component base="ohorn"/>
    <contour>
      <point x="30" y="100" type="line"/>
      <point x="60" y="100" type="line"/>
      <point x="60" y="110" type="line"/>
      <point x="80" y="110" type="line"/>
      <point x="80" y="120" type="line"/>
      <point x="50" y="120" type="line"/>
      <point x="50" y="110" type="line"/>
      <point x="30" y="110" type="line"/>
    </contour>
  </outline>
</glyph>
<glyph name="Ohorndotbelow" format="2">
  <advance width="110"/>
  <unicode hex="1EE2"/>
  <outline>
    <contour>
      <point x="0" y="30" type="line"/>
      <point x="10" y="30" type="line"/>
      <point x="10" y="20" type="line"/>
      <point x="20" y="20" type="line"/>
      <point x="20" y="10" type="line"/>
      <point x="70" y="10" type="line"/>
      <point x="70" y="20" type="line"/>
      <point x="80" y="20" type="line"/>
      <point x="80" y="30" type="line"/>
      <point x="90" y="30" type="line"/>
      <point x="90" y="90" type="line"/>
      <point x="100" y="90" type="line"/>
      <point x="100" y="120" type="line"/>
      <point x="80" y="120" type="line"/>
      <point x="80" y="100" type="line"/>
      <point x="70" y="100" type="line"/>
      <point x="70" y="110" type="line"/>
      <point x="20" y="110" type="line"/>
      <point x="20" y="100" type="line"/>
      <point x="10" y="100" type="line"/>
      <point x="10" y="90" type="line"/>
      <point x="0" y="90" type="line"/>
    </contour>
    <contour>
      <point x="30" y="30" type="line"/>
      <point x="30" y="40" type="line"/>
      <point x="20" y="40" type="line"/>
      <point x="20" y="80" type="line"/>
      <point x="30" y="80" type="line"/>
      <point x="30" y="90" type="line"/>
      <point x="60" y="90" type="line"/>
      <point x="60" y="80" type="line"/>
      <point x="70" y="80" type="line"/>
      <point x="70" y="40" type="line"/>
      <point x="60" y="40" type="line"/>
      <point x="60" y="30" type="line"/>
    </contour>
    <contour>
      <point x="30" y="-10" type="line"/>
      <point x="50" y="-10" type="line"/>
      <point x="50" y="0" type="line"/>
      <point x="30" y="0" type="line"/>
    </contour>
  </outline>
</glyph>
<glyph name="ohorndotbelow" format="2">
  <advance width="110"/>
  <unicode hex="1EE3"/>
  <outline>
    <component base="ohorn" yOffset="10"/>
    <contour>
      <point x="40" y="-10" type="line"/>
      <point x="60" y="-10" type="line"/>
      <point x="60" y="0" type="line"/>
      <point x="40" y="0" type="line"/>
    </contour>
  </outline>
</glyph>
<glyph name="Udotbelow" format="2">
  <advance width="110"/>
  <unicode hex="1EE4"/>
  <outline>
    <contour>
      <point x="20" y="20" type="line"/>
      <point x="20" y="10" type="line"/>
      <point x="80" y="10" type="line"/>
      <point x="80" y="20" type="line"/>
      <point x="90" y="20" type="line"/>
      <point x="90" y="120" type="line"/>
      <point x="70" y="120" type="line"/>
      <point x="70" y="30" type="line"/>
      <point x="30" y="30" type="line"/>
      <point x="30" y="120" type="line"/>
      <point x="10" y="120" type="line"/>
      <point x="10" y="20" type="line"/>
    </contour>
    <contour>
      <point x="40" y="-10" type="line"/>
      <point x="60" y="-10" type="line"/>
      <point x="60" y="0" type="line"/>
      <point x="40" y="0" type="line"/>
    </contour>
  </outline>
</glyph>
<glyph name="udotbelow" format="2">
  <advance width="110"/>
  <unicode hex="1EE5"/>
  <outline>
    <component base="u" yOffset="10"/>
    <contour>
      <point x="40" y="-10" type="line"/>
      <point x="60" y="-10" type="line"/>
      <point x="60" y="0" type="line"/>
      <point x="40" y="0" type="line"/>
    </contour>
  </outline>
</glyph>
<glyph name="uhornacute" format="2">
  <advance width="110"/>
  <unicode hex="1EE9"/>
  <outline>
    <component base="uhorn"/>
    <contour>
      <point x="20" y="100" type="line"/>
      <point x="50" y="100" type="line"/>
      <point x="50" y="110" type="line"/>
      <point x="70" y="110" type="line"/>
      <point x="70" y="120" type="line"/>
      <point x="40" y="120" type="line"/>
      <point x="40" y="110" type="line"/>
      <point x="20" y="110" type="line"/>
    </contour>
  </outline>
</glyph>
<glyph name="uhornhoi" format="2">
  <advance width="110"/>
  <unicode hex="1EED"/>
  <outline>
    <component base="uhorn"/>
    <contour>
      <point x="30" y="110" type="line"/>
      <point x="50" y="110" type="line"/>
      <point x="50" y="120" type="line"/>
      <point x="30" y="120" type="line"/>
    </contour>
    <contour>
      <point x="50" y="100" type="line"/>
      <point x="60" y="100" type="line"/>
      <point x="60" y="110" type="line"/>
      <point x="50" y="110" type="line"/>
    </contour>
    <contour>
      <point x="40" y="90" type="line"/>
      <point x="50" y="90" type="line"/>
      <point x="50" y="100" type="line"/>
      <point x="40" y="100" type="line"/>
    </contour>
  </outline>
</glyph>
<glyph name="uhorntilde" format="2">
  <advance width="110"/>
  <unicode hex="1EEF"/>
  <outline>
    <component base="uhorn"/>
    <contour>
      <point x="40" y="100" type="line"/>
      <point x="70" y="100" type="line"/>
      <point x="70" y="110" type="line"/>
      <point x="80" y="110" type="line"/>
      <point x="80" y="120" type="line"/>
      <point x="60" y="120" type="line"/>
      <point x="60" y="110" type="line"/>
      <point x="50" y="110" type="line"/>
      <point x="50" y="120" type="line"/>
      <point x="20" y="120" type="line"/>
      <point x="20" y="110" type="line"/>
      <point x="10" y="110" type="line"/>
      <point x="10" y="100" type="line"/>
      <point x="30" y="100" type="line"/>
      <point x="30" y="110" type="line"/>
      <point x="40" y="110" type="line"/>
    </contour>
  </outline>
</glyph>
<glyph name="ellipsis" format="2">
  <advance width="110"/>
  <unicode hex="2026"/>
  <outline>
    <contour>
      <point x="0" y="80" type="line"/>
      <point x="20" y="80" type="line"/>
      <point x="20" y="60" type="line"/>
      <point x="0" y="60" type="line"/>
    </contour>
    <contour>
      <point x="40" y="80" type="line"/>
      <point x="60" y="80" type="line"/>
      <point x="60" y="60" type="line"/>
      <point x="40" y="60" type="line"/>
    </contour>
    <contour>
      <point x="80" y="80" type="line"/>
      <point x="100" y="80" type="line"/>
      <point x="100" y="60" type="line"/>
      <point x="80" y="60" type="line"/>
    </contour>
  </outline>
</glyph>
<glyph name="four.superior" format="2">
  <advance width="110"/>
  <unicode hex="2074"/>
  <outline>
    <contour>
      <point x="40" y="100" type="line"/>
      <point x="50" y="100" type="line"/>
      <point x="50" y="80" type="line"/>
      <point x="40" y="80" type="line"/>
    </contour>
    <contour>
      <point x="30" y="90" type="line"/>
      <point x="20" y="90" type="line"/>
      <point x="20" y="60" type="line"/>
      <point x="50" y="60" type="line"/>
      <point x="50" y="51" type="line"/>
      <point x="70" y="51" type="line"/>
      <point x="70" y="60" type="line"/>
      <point x="80" y="60" type="line"/>
      <point x="80" y="80" type="line"/>
      <point x="70" y="80" type="line"/>
      <point x="70" y="120" type="line"/>
      <point x="40" y="120" type="line"/>
      <point x="40" y="110" type="line"/>
      <point x="30" y="110" type="line"/>
    </contour>
  </outline>
</glyph>
<glyph name="six.superior" format="2">
  <advance width="110"/>
  <unicode hex="2076"/>
  <outline>
    <contour>
      <point x="70" y="100" type="line"/>
      <point x="70" y="120" type="line"/>
      <point x="30" y="120" type="line"/>
      <point x="30" y="110" type="line"/>
      <point x="20" y="110" type="line"/>
      <point x="20" y="60" type="line"/>
      <point x="30" y="60" type="line"/>
      <point x="30" y="50" type="line"/>
      <point x="70" y="50" type="line"/>
      <point x="70" y="60" type="line"/>
      <point x="80" y="60" type="line"/>
      <point x="80" y="80" type="line"/>
      <point x="70" y="80" type="line"/>
      <point x="70" y="90" type="line"/>
      <point x="40" y="90" type="line"/>
      <point x="40" y="100" type="line"/>
    </contour>
    <contour>
      <point x="40" y="70" type="line"/>
      <point x="40" y="80" type="line"/>
      <point x="60" y="80" type="line"/>
      <point x="60" y="70" type="line"/>
    </contour>
  </outline>
</glyph>
<glyph name="seven.superior" format="2">
  <advance width="110"/>
  <unicode hex="2077"/>
  <outline>
    <contour>
      <point x="10" y="100" type="line"/>
      <point x="50" y="100" type="line"/>
      <point x="50" y="90" type="line"/>
      <point x="40" y="90" type="line"/>
      <point x="40" y="70" type="line"/>
      <point x="30" y="70" type="line"/>
      <point x="30" y="50" type="line"/>
      <point x="50" y="50" type="line"/>
      <point x="50" y="70" type="line"/>
      <point x="60" y="70" type="line"/>
      <point x="60" y="90" type="line"/>
      <point x="70" y="90" type="line"/>
      <point x="70" y="120" type="line"/>
      <point x="10" y="120" type="line"/>
    </contour>
  </outline>
</glyph>
<glyph name="zero.inferior" format="2">
  <advance width="110"/>
  <unicode hex="2080"/>
  <outline>
    <contour>
      <point x="40" y="10" type="line"/>
      <point x="40" y="40" type="line"/>
      <point x="60" y="40" type="line"/>
      <point x="60" y="10" type="line"/>
    </contour>
    <contour>
      <point x="20" y="0" type="line"/>
      <point x="30" y="0" type="line"/>
      <point x="30" y="-10" type="line"/>
      <point x="70" y="-10" type="line"/>
      <point x="70" y="0" type="line"/>
      <point x="80" y="0" type="line"/>
      <point x="80" y="50" type="line"/>
      <point x="70" y="50" type="line"/>
      <point x="70" y="60" type="line"/>
      <point x="30" y="60" type="line"/>
      <point x="30" y="50" type="line"/>
      <point x="20" y="50" type="line"/>
    </contour>
  </outline>
</glyph>
<glyph name="one.inferior" format="2">
  <advance width="110"/>
  <unicode hex="2081"/>
  <outline>
    <contour>
      <point x="20" y="30" type="line"/>
      <point x="40" y="30" type="line"/>
      <point x="40" y="-9" type="line"/>
      <point x="60" y="-9" type="line"/>
      <point x="60" y="60" type="line"/>
      <point x="40" y="60" type="line"/>
      <point x="40" y="50" type="line"/>
      <point x="20" y="50" type="line"/>
    </contour>
  </outline>
</glyph>
<glyph name="two.inferior" format="2">
  <advance width="110"/>
  <unicode hex="2082"/>
  <outline>
    <contour>
      <point x="20" y="40" type="line"/>
      <point x="60" y="40" type="line"/>
      <point x="60" y="30" type="line"/>
      <point x="40" y="30" type="line"/>
      <point x="40" y="20" type="line"/>
      <point x="30" y="20" type="line"/>
      <point x="30" y="10" type="line"/>
      <point x="20" y="10" type="line"/>
      <point x="20" y="-10" type="line"/>
      <point x="80" y="-10" type="line"/>
      <point x="80" y="10" type="line"/>
      <point x="50" y="10" type="line"/>
      <point x="50" y="20" type="line"/>
      <point x="70" y="20" type="line"/>
      <point x="70" y="30" type="line"/>
      <point x="80" y="30" type="line"/>
      <point x="80" y="50" type="line"/>
      <point x="70" y="50" type="line"/>
      <point x="70" y="60" type="line"/>
      <point x="20" y="60" type="line"/>
    </contour>
  </outline>
</glyph>
<glyph name="four.inferior" format="2">
  <advance width="110"/>
  <unicode hex="2084"/>
  <outline>
    <contour>
      <point x="40" y="40" type="line"/>
      <point x="50" y="40" type="line"/>
      <point x="50" y="20" type="line"/>
      <point x="40" y="20" type="line"/>
    </contour>
    <contour>
      <point x="30" y="30" type="line"/>
      <point x="20" y="30" type="line"/>
      <point x="20" y="0" type="line"/>
      <point x="50" y="0" type="line"/>
      <point x="50" y="-9" type="line"/>
      <point x="70" y="-9" type="line"/>
      <point x="70" y="0" type="line"/>
      <point x="80" y="0" type="line"/>
      <point x="80" y="20" type="line"/>
      <point x="70" y="20" type="line"/>
      <point x="70" y="60" type="line"/>
      <point x="40" y="60" type="line"/>
      <point x="40" y="50" type="line"/>
      <point x="30" y="50" type="line"/>
    </contour>
  </outline>
</glyph>
<glyph name="five.inferior" format="2">
  <advance width="110"/>
  <unicode hex="2085"/>
  <outline>
    <contour>
      <point x="20" y="10" type="line"/>
      <point x="20" y="-10" type="line"/>
      <point x="70" y="-10" type="line"/>
      <point x="70" y="0" type="line"/>
      <point x="80" y="0" type="line"/>
      <point x="80" y="20" type="line"/>
      <point x="70" y="20" type="line"/>
      <point x="70" y="30" type="line"/>
      <point x="40" y="30" type="line"/>
      <point x="40" y="40" type="line"/>
      <point x="80" y="40" type="line"/>
      <point x="80" y="60" type="line"/>
      <point x="20" y="60" type="line"/>
      <point x="20" y="20" type="line"/>
      <point x="60" y="20" type="line"/>
      <point x="60" y="10" type="line"/>
    </contour>
  </outline>
</glyph>
<glyph name="hinferior" format="2">
  <advance width="110"/>
  <unicode hex="2095"/>
  <outline>
    <contour>
      <point x="70" y="-10" type="line"/>
      <point x="70" y="30" type="line"/>
      <point x="60" y="30" type="line"/>
      <point x="60" y="40" type="line"/>
      <point x="30" y="40" type="line"/>
      <point x="30" y="60" type="line"/>
      <point x="10" y="60" type="line"/>
      <point x="10" y="-10" type="line"/>
      <point x="30" y="-10" type="line"/>
      <point x="30" y="20" type="line"/>
      <point x="50" y="20" type="line"/>
      <point x="50" y="-10" type="line"/>
    </contour>
  </outline>
</glyph>
<glyph name="ninferior" format="2">
  <advance width="110"/>
  <unicode hex="2099"/>
  <outline>
    <contour>
      <point x="80" y="-10" type="line"/>
      <point x="80" y="40" type="line"/>
      <point x="70" y="40" type="line"/>
      <point x="70" y="50" type="line"/>
      <point x="40" y="50" type="line"/>
      <point x="40" y="40" type="line"/>
      <point x="30" y="40" type="line"/>
      <point x="30" y="50" type="line"/>
      <point x="10" y="50" type="line"/>
      <point x="10" y="-10" type="line"/>
      <point x="30" y="-10" type="line"/>
      <point x="30" y="20" type="line"/>
      <point x="40" y="20" type="line"/>
      <point x="40" y="30" type="line"/>
      <point x="60" y="30" type="line"/>
      <point x="60" y="-10" type="line"/>
    </contour>
  </outline>
</glyph>
<glyph name="tinferior" format="2">
  <advance width="110"/>
  <unicode hex="209C"/>
  <outline>
    <contour>
      <point x="20" y="50" type="line"/>
      <point x="20" y="30" type="line"/>
      <point x="30" y="30" type="line"/>
      <point x="30" y="0" type="line"/>
      <point x="40" y="0" type="line"/>
      <point x="40" y="-10" type="line"/>
      <point x="70" y="-10" type="line"/>
      <point x="70" y="10" type="line"/>
      <point x="50" y="10" type="line"/>
      <point x="50" y="30" type="line"/>
      <point x="70" y="30" type="line"/>
      <point x="70" y="50" type="line"/>
      <point x="50" y="50" type="line"/>
      <point x="50" y="60" type="line"/>
      <point x="30" y="60" type="line"/>
      <point x="30" y="50" type="line"/>
    </contour>
  </outline>
</glyph>
<glyph name="litre" format="2">
  <advance width="110"/>
  <unicode hex="2113"/>
  <outline>
    <contour>
      <point x="30" y="0" type="line"/>
      <point x="0" y="0" type="line"/>
      <point x="0" y="20" type="line"/>
      <point x="20" y="20" type="line"/>
      <point x="20" y="30" type="line"/>
      <point x="30" y="30" type="line"/>
      <point x="30" y="40" type="line"/>
      <point x="20" y="40" type="line"/>
      <point x="20" y="80" type="line"/>
      <point x="30" y="80" type="line"/>
      <point x="30" y="100" type="line"/>
      <point x="40" y="100" type="line"/>
      <point x="40" y="110" type="line"/>
      <point x="50" y="110" type="line"/>
      <point x="50" y="120" type="line"/>
      <point x="80" y="120" type="line"/>
      <point x="80" y="110" type="line"/>
      <point x="90" y="110" type="line"/>
      <point x="90" y="60" type="line"/>
      <point x="80" y="60" type="line"/>
      <point x="80" y="40" type="line"/>
      <point x="70" y="40" type="line"/>
      <point x="70" y="30" type="line"/>
      <point x="60" y="30" type="line"/>
      <point x="60" y="20" type="line"/>
      <point x="70" y="20" type="line"/>
      <point x="70" y="10" type="line"/>
      <point x="80" y="10" type="line"/>
      <point x="80" y="20" type="line"/>
      <point x="100" y="20" type="line"/>
      <point x="100" y="0" type="line"/>
      <point x="90" y="0" type="line"/>
      <point x="90" y="-10" type="line"/>
      <point x="60" y="-10" type="line"/>
      <point x="60" y="0" type="line"/>
      <point x="50" y="0" type="line"/>
      <point x="50" y="10" type="line"/>
      <point x="30" y="10" type="line"/>
    </contour>
    <contour>
      <point x="40" y="70" type="line"/>
      <point x="40" y="40" type="line"/>
      <point x="50" y="40" type="line"/>
      <point x="50" y="50" type="line"/>
      <point x="60" y="50" type="line"/>
      <point x="60" y="70" type="line"/>
      <point x="70" y="70" type="line"/>
      <point x="70" y="100" type="line"/>
      <point x="60" y="100" type="line"/>
      <point x="60" y="90" type="line"/>
      <point x="50" y="90" type="line"/>
      <point x="50" y="70" type="line"/>
    </contour>
  </outline>
</glyph>
<glyph name="arrowright" format="2">
  <advance width="110"/>
  <unicode hex="2192"/>
  <outline>
    <contour>
      <point x="0" y="70" type="line"/>
      <point x="60" y="70" type="line"/>
      <point x="60" y="100" type="line"/>
      <point x="70" y="100" type="line"/>
      <point x="70" y="90" type="line"/>
      <point x="80" y="90" type="line"/>
      <point x="80" y="80" type="line"/>
      <point x="90" y="80" type="line"/>
      <point x="90" y="70" type="line"/>
      <point x="100" y="70" type="line"/>
      <point x="100" y="50" type="line"/>
      <point x="90" y="50" type="line"/>
      <point x="90" y="40" type="line"/>
      <point x="80" y="40" type="line"/>
      <point x="80" y="30" type="line"/>
      <point x="70" y="30" type="line"/>
      <point x="70" y="20" type="line"/>
      <point x="60" y="20" type="line"/>
      <point x="60" y="50" type="line"/>
      <point x="0" y="50" type="line"/>
    </contour>
  </outline>
</glyph>
<glyph name="whitearrowdown" format="2">
  <advance width="110"/>
  <unicode hex="21E9"/>
  <outline>
    <contour>
      <point x="10" y="50" type="line"/>
      <point x="10" y="70" type="line"/>
      <point x="30" y="70" type="line"/>
      <point x="30" y="110" type="line"/>
      <point x="80" y="110" type="line"/>
      <point x="80" y="70" type="line"/>
      <point x="100" y="70" type="line"/>
      <point x="100" y="50" type="line"/>
      <point x="90" y="50" type="line"/>
      <point x="90" y="40" type="line"/>
      <point x="80" y="40" type="line"/>
      <point x="80" y="30" type="line"/>
      <point x="70" y="30" type="line"/>
      <point x="70" y="20" type="line"/>
      <point x="60" y="20" type="line"/>
      <point x="60" y="10" type="line"/>
      <point x="50" y="10" type="line"/>
      <point x="50" y="20" type="line"/>
      <point x="40" y="20" type="line"/>
      <point x="40" y="30" type="line"/>
      <point x="30" y="30" type="line"/>
      <point x="30" y="40" type="line"/>
      <point x="20" y="40" type="line"/>
      <point x="20" y="50" type="line"/>
    </contour>
    <contour>
      <point x="20" y="50" type="line"/>
      <point x="30" y="50" type="line"/>
      <point x="30" y="40" type="line"/>
      <point x="40" y="40" type="line"/>
      <point x="40" y="30" type="line"/>
      <point x="50" y="30" type="line"/>
      <point x="50" y="20" type="line"/>
      <point x="60" y="20" type="line"/>
      <point x="60" y="30" type="line"/>
      <point x="70" y="30" type="line"/>
      <point x="70" y="40" type="line"/>
      <point x="80" y="40" type="line"/>
      <point x="80" y="50" type="line"/>
      <point x="90" y="50" type="line"/>
      <point x="90" y="60" type="line"/>
      <point x="70" y="60" type="line"/>
      <point x="70" y="100" type="line"/>
      <point x="40" y="100" type="line"/>
      <point x="40" y="60" type="line"/>
      <point x="20" y="60" type="line"/>
    </contour>
  </outline>
</glyph>
<glyph name="minus" format="2">
  <advance width="110"/>
  <unicode hex="2212"/>
  <outline>
    <contour>
      <point x="20" y="70" type="line"/>
      <point x="80" y="70" type="line"/>
      <point x="80" y="50" type="line"/>
      <point x="20" y="50" type="line"/>
    </contour>
  </outline>
</glyph>
<glyph name="notequal" format="2">
  <advance width="110"/>
  <unicode hex="2260"/>
  <outline>
    <contour>
      <point x="0" y="30" type="line"/>
      <point x="30" y="30" type="line"/>
      <point x="30" y="0" type="line"/>
      <point x="50" y="0" type="line"/>
      <point x="50" y="30" type="line"/>
      <point x="100" y="30" type="line"/>
      <point x="100" y="50" type="line"/>
      <point x="60" y="50" type="line"/>
      <point x="60" y="70" type="line"/>
      <point x="100" y="70" type="line"/>
      <point x="100" y="90" type="line"/>
      <point x="70" y="90" type="line"/>
      <point x="70" y="120" type="line"/>
      <point x="50" y="120" type="line"/>
      <point x="50" y="90" type="line"/>
      <point x="0" y="90" type="line"/>
      <point x="0" y="70" type="line"/>
      <point x="40" y="70" type="line"/>
      <point x="40" y="50" type="line"/>
      <point x="0" y="50" type="line"/>
    </contour>
  </outline>
</glyph>
<glyph name="dotmath" format="2">
  <advance width="110"/>
  <unicode hex="22C5"/>
  <outline>
    <contour>
      <point x="40" y="70" type="line"/>
      <point x="40" y="80" type="line"/>
      <point x="60" y="80" type="line"/>
      <point x="60" y="70" type="line"/>
      <point x="70" y="70" type="line"/>
      <point x="70" y="50" type="line"/>
      <point x="60" y="50" type="line"/>
      <point x="60" y="40" type="line"/>
      <point x="40" y="40" type="line"/>
      <point x="40" y="50" type="line"/>
      <point x="30" y="50" type="line"/>
      <point x="30" y="70" type="line"/>
    </contour>
  </outline>
</glyph>
<glyph name="triagup" format="2">
  <advance width="110"/>
  <unicode hex="25B2"/>
  <outline>
    <contour>
      <point x="20" y="40" type="line"/>
      <point x="10" y="40" type="line"/>
      <point x="10" y="20" type="line"/>
      <point x="90" y="20" type="line"/>
      <point x="90" y="40" type="line"/>
      <point x="80" y="40" type="line"/>
      <point x="80" y="60" type="line"/>
      <point x="70" y="60" type="line"/>
      <point x="70" y="80" type="line"/>
      <point x="60" y="80" type="line"/>
      <point x="60" y="100" type="line"/>
      <point x="40" y="100" type="line"/>
      <point x="40" y="80" type="line"/>
      <point x="30" y="80" type="line"/>
      <point x="30" y="60" type="line"/>
      <point x="20" y="60" type="line"/>
    </contour>
  </outline>
</glyph>
<glyph name="trianglerightsmallblack" format="2">
  <advance width="110"/>
  <unicode hex="25B8"/>
  <outline>
    <contour>
      <point x="30" y="20" type="line"/>
      <point x="50" y="20" type="line"/>
      <point x="50" y="30" type="line"/>
      <point x="70" y="30" type="line"/>
      <point x="70" y="40" type="line"/>
      <point x="90" y="40" type="line"/>
      <point x="90" y="60" type="line"/>
      <point x="70" y="60" type="line"/>
      <point x="70" y="70" type="line"/>
      <point x="50" y="70" type="line"/>
      <point x="50" y="80" type="line"/>
      <point x="30" y="80" type="line"/>
    </contour>
  </outline>
</glyph>
<glyph name="triagdn" format="2">
  <advance width="110"/>
  <unicode hex="25BC"/>
  <outline>
    <contour>
      <point x="20" y="80" type="line"/>
      <point x="20" y="60" type="line"/>
      <point x="30" y="60" type="line"/>
      <point x="30" y="40" type="line"/>
      <point x="40" y="40" type="line"/>
      <point x="40" y="20" type="line"/>
      <point x="60" y="20" type="line"/>
      <point x="60" y="40" type="line"/>
      <point x="70" y="40" type="line"/>
      <point x="70" y="60" type="line"/>
      <point x="80" y="60" type="line"/>
      <point x="80" y="80" type="line"/>
      <point x="90" y="80" type="line"/>
      <point x="90" y="100" type="line"/>
      <point x="10" y="100" type="line"/>
      <point x="10" y="80" type="line"/>
    </contour>
  </outline>
</glyph>
<glyph name="triangleleftblack" format="2">
  <advance width="110"/>
  <unicode hex="25C0"/>
  <outline>
    <contour>
      <point x="70" y="30" type="line"/>
      <point x="70" y="20" type="line"/>
      <point x="90" y="20" type="line"/>
      <point x="90" y="90" type="line"/>
      <point x="70" y="90" type="line"/>
      <point x="70" y="80" type="line"/>
      <point x="50" y="80" type="line"/>
      <point x="50" y="70" type="line"/>
      <point x="30" y="70" type="line"/>
      <point x="30" y="60" type="line"/>
      <point x="10" y="60" type="line"/>
      <point x="10" y="50" type="line"/>
      <point x="30" y="50" type="line"/>
      <point x="30" y="40" type="line"/>
      <point x="50" y="40" type="line"/>
      <point x="50" y="30" type="line"/>
    </contour>
  </outline>
</glyph>
<glyph name="dietwo" format="2">
  <advance width="110"/>
  <unicode hex="2681"/>
  <outline>
    <contour>
      <point x="80" y="100" type="line"/>
      <point x="10" y="100" type="line"/>
      <point x="10" y="90" type="line"/>
      <point x="80" y="90" type="line"/>
    </contour>
    <contour>
      <point x="0" y="20" type="line"/>
      <point x="10" y="20" type="line"/>
      <point x="10" y="90" type="line"/>
      <point x="0" y="90" type="line"/>
    </contour>
    <contour>
      <point x="90" y="90" type="line"/>
      <point x="80" y="90" type="line"/>
      <point x="80" y="20" type="line"/>
      <point x="90" y="20" type="line"/>
    </contour>
    <contour>
      <point x="20" y="60" type="line"/>
      <point x="40" y="60" type="line"/>
      <point x="40" y="80" type="line"/>
      <point x="20" y="80" type="line"/>
    </contour>
    <contour>
      <point x="50" y="30" type="line"/>
      <point x="70" y="30" type="line"/>
      <point x="70" y="50" type="line"/>
      <point x="50" y="50" type="line"/>
    </contour>
    <contour>
      <point x="10" y="10" type="line"/>
      <point x="80" y="10" type="line"/>
      <point x="80" y="20" type="line"/>
      <point x="10" y="20" type="line"/>
    </contour>
  </outline>
</glyph>
<glyph name="noentry" format="2">
  <advance width="110"/>
  <unicode hex="26D4"/>
  <outline>
    <contour>
      <point x="80" y="60" type="line"/>
      <point x="80" y="40" type="line"/>
      <point x="20" y="40" type="line"/>
      <point x="20" y="60" type="line"/>
    </contour>
    <contour>
      <point x="90" y="70" type="line"/>
      <point x="90" y="90" type="line"/>
      <point x="70" y="90" type="line"/>
      <point x="70" y="100" type="line"/>
      <point x="30" y="100" type="line"/>
      <point x="30" y="90" type="line"/>
      <point x="10" y="90" type="line"/>
      <point x="10" y="70" type="line"/>
      <point x="0" y="70" type="line"/>
      <point x="0" y="30" type="line"/>
      <point x="10" y="30" type="line"/>
      <point x="10" y="10" type="line"/>
      <point x="30" y="10" type="line"/>
      <point x="30" y="0" type="line"/>
      <point x="70" y="0" type="line"/>
      <point x="70" y="10" type="line"/>
      <point x="90" y="10" type="line"/>
      <point x="90" y="30" type="line"/>
      <point x="100" y="30" type="line"/>
      <point x="100" y="70" type="line"/>
    </contour>
  </outline>
</glyph>
<glyph name="blackLargeSquare" format="2">
  <advance width="110"/>
  <unicode hex="2B1B"/>
  <outline>
    <contour>
      <point x="0" y="120" type="line"/>
      <point x="100" y="120" type="line"/>
      <point x="100" y="-10" type="line"/>
      <point x="0" y="-10" type="line"/>
    </contour>
  </outline>
</glyph>
<glyph name="whiteLargeSquare" format="2">
  <advance width="110"/>
  <unicode hex="2B1C"/>
  <outline>
    <contour>
      <point x="0" y="120" type="line"/>
      <point x="0" y="-10" type="line"/>
      <point x="100" y="-10" type="line"/>
      <point x="100" y="120" type="line"/>
    </contour>
    <contour>
      <point x="20" y="100" type="line"/>
      <point x="80" y="100" type="line"/>
      <point x="80" y="10" type="line"/>
      <point x="20" y="10" type="line"/>
    </contour>
  </outline>
</glyph>
<glyph name="ideographiccomma" format="2">
  <advance width="120"/>
  <unicode hex="3001"/>
  <outline>
    <contour>
      <point x="10" y="20" type="line"/>
      <point x="20" y="20" type="line"/>
      <point x="20" y="30" type="line"/>
      <point x="10" y="30" type="line"/>
    </contour>
    <contour>
      <point x="20" y="0" type="line"/>
      <point x="40" y="0" type="line"/>
      <point x="40" y="10" type="line"/>
      <point x="30" y="10" type="line"/>
      <point x="30" y="20" type="line"/>
      <point x="20" y="20" type="line"/>
    </contour>
  </outline>
</glyph>
<glyph name="ka-hira" format="2">
  <advance width="120"/>
  <unicode hex="304B"/>
  <outline>
    <contour>
      <point x="0" y="80" type="line"/>
      <point x="20" y="80" type="line"/>
      <point x="20" y="50" type="line"/>
      <point x="30" y="50" type="line"/>
      <point x="30" y="80" type="line"/>
      <point x="60" y="80" type="line"/>
      <point x="60" y="90" type="line"/>
      <point x="40" y="90" type="line"/>
      <point x="40" y="120" type="line"/>
      <point x="30" y="120" type="line"/>
      <point x="30" y="90" type="line"/>
      <point x="0" y="90" type="line"/>
    </contour>
    <contour>
      <point x="70" y="90" type="line"/>
      <point x="80" y="90" type="line"/>
      <point x="80" y="100" type="line"/>
      <point x="70" y="100" type="line"/>
    </contour>
    <contour>
      <point x="80" y="80" type="line"/>
      <point x="90" y="80" type="line"/>
      <point x="90" y="90" type="line"/>
      <point x="80" y="90" type="line"/>
    </contour>
    <contour>
      <point x="60" y="20" type="line"/>
      <point x="70" y="20" type="line"/>
      <point x="70" y="80" type="line"/>
      <point x="60" y="80" type="line"/>
    </contour>
    <contour>
      <point x="90" y="70" type="line"/>
      <point x="100" y="70" type="line"/>
      <point x="100" y="80" type="line"/>
      <point x="90" y="80" type="line"/>
    </contour>
    <contour>
      <point x="100" y="50" type="line"/>
      <point x="110" y="50" type="line"/>
      <point x="110" y="70" type="line"/>
      <point x="100" y="70" type="line"/>
    </contour>
    <contour>
      <point x="20" y="50" type="line"/>
      <point x="10" y="50" type="line"/>
      <point x="10" y="20" type="line"/>
      <point x="20" y="20" type="line"/>
    </contour>
    <contour>
      <point x="10" y="20" type="line"/>
      <point x="0" y="20" type="line"/>
      <point x="0" y="10" type="line"/>
      <point x="10" y="10" type="line"/>
    </contour>
    <contour>
      <point x="40" y="10" type="line"/>
      <point x="60" y="10" type="line"/>
      <point x="60" y="20" type="line"/>
      <point x="40" y="20" type="line"/>
    </contour>
  </outline>
</glyph>
<glyph name="ke-hira" format="2">
  <advance width="120"/>
  <unicode hex="3051"/>
  <outline>
    <contour>
      <point x="10" y="90" type="line"/>
      <point x="20" y="90" type="line"/>
      <point x="20" y="110" type="line"/>
      <point x="10" y="110" type="line"/>
    </contour>
    <contour>
      <point x="30" y="80" type="line"/>
      <point x="70" y="80" type="line"/>
      <point x="70" y="40" type="line"/>
      <point x="80" y="40" type="line"/>
      <point x="80" y="80" type="line"/>
      <point x="100" y="80" type="line"/>
      <point x="100" y="90" type="line"/>
      <point x="80" y="90" type="line"/>
      <point x="80" y="110" type="line"/>
      <point x="70" y="110" type="line"/>
      <point x="70" y="90" type="line"/>
      <point x="30" y="90" type="line"/>
    </contour>
    <contour>
      <point x="0" y="40" type="line"/>
      <point x="10" y="40" type="line"/>
      <point x="10" y="90" type="line"/>
      <point x="0" y="90" type="line"/>
    </contour>
    <contour>
      <point x="20" y="40" type="line"/>
      <point x="30" y="40" type="line"/>
      <point x="30" y="60" type="line"/>
      <point x="20" y="60" type="line"/>
    </contour>
    <contour>
      <point x="70" y="40" type="line"/>
      <point x="60" y="40" type="line"/>
      <point x="60" y="20" type="line"/>
      <point x="70" y="20" type="line"/>
    </contour>
    <contour>
      <point x="10" y="20" type="line"/>
      <point x="20" y="20" type="line"/>
      <point x="20" y="40" type="line"/>
      <point x="10" y="40" type="line"/>
    </contour>
    <contour>
      <point x="60" y="20" type="line"/>
      <point x="50" y="20" type="line"/>
      <point x="50" y="10" type="line"/>
      <point x="60" y="10" type="line"/>
    </contour>
  </outline>
</glyph>
<glyph name="ko-hira" format="2">
  <advance width="120"/>
  <unicode hex="3053"/>
  <outline>
    <contour>
      <point x="20" y="90" type="line"/>
      <point x="80" y="90" type="line"/>
      <point x="80" y="100" type="line"/>
      <point x="20" y="100" type="line"/>
    </contour>
    <contour>
      <point x="20" y="40" type="line"/>
      <point x="30" y="40" type="line"/>
      <point x="30" y="50" type="line"/>
      <point x="20" y="50" type="line"/>
    </contour>
    <contour>
      <point x="10" y="20" type="line"/>
      <point x="20" y="20" type="line"/>
      <point x="20" y="40" type="line"/>
      <point x="10" y="40" type="line"/>
    </contour>
    <contour>
      <point x="20" y="10" type="line"/>
      <point x="90" y="10" type="line"/>
      <point x="90" y="20" type="line"/>
      <point x="20" y="20" type="line"/>
    </contour>
  </outline>
</glyph>
<glyph name="su-hira" format="2">
  <advance width="120"/>
  <unicode hex="3059"/>
  <outline>
    <contour>
      <point x="0" y="90" type="line"/>
      <point x="60" y="90" type="line"/>
      <point x="60" y="70" type="line"/>
      <point x="50" y="70" type="line"/>
      <point x="50" y="50" type="line"/>
      <point x="60" y="50" type="line"/>
      <point x="60" y="30" type="line"/>
      <point x="70" y="30" type="line"/>
      <point x="70" y="90" type="line"/>
      <point x="100" y="90" type="line"/>
      <point x="100" y="100" type="line"/>
      <point x="70" y="100" type="line"/>
      <point x="70" y="120" type="line"/>
      <point x="60" y="120" type="line"/>
      <point x="60" y="100" type="line"/>
      <point x="0" y="100" type="line"/>
    </contour>
    <contour>
      <point x="30" y="70" type="line"/>
      <point x="50" y="70" type="line"/>
      <point x="50" y="80" type="line"/>
      <point x="30" y="80" type="line"/>
    </contour>
    <contour>
      <point x="20" y="50" type="line"/>
      <point x="30" y="50" type="line"/>
      <point x="30" y="70" type="line"/>
      <point x="20" y="70" type="line"/>
    </contour>
    <contour>
      <point x="50" y="50" type="line"/>
      <point x="30" y="50" type="line"/>
      <point x="30" y="40" type="line"/>
      <point x="50" y="40" type="line"/>
    </contour>
    <contour>
      <point x="60" y="30" type="line"/>
      <point x="50" y="30" type="line"/>
      <point x="50" y="20" type="line"/>
      <point x="60" y="20" type="line"/>
    </contour>
    <contour>
      <point x="50" y="20" type="line"/>
      <point x="20" y="20" type="line"/>
      <point x="20" y="10" type="line"/>
      <point x="50" y="10" type="line"/>
    </contour>
  </outline>
</glyph>
<glyph name="se-hira" format="2">
  <advance width="120"/>
  <unicode hex="305B"/>
  <outline>
    <contour>
      <point x="20" y="20" type="line"/>
      <point x="30" y="20" type="line"/>
      <point x="30" y="70" type="line"/>
      <point x="50" y="70" type="line"/>
      <point x="50" y="80" type="line"/>
      <point x="30" y="80" type="line"/>
      <point x="30" y="110" type="line"/>
      <point x="20" y="110" type="line"/>
      <point x="20" y="80" type="line"/>
      <point x="0" y="80" type="line"/>
      <point x="0" y="70" type="line"/>
      <point x="20" y="70" type="line"/>
    </contour>
    <contour>
      <point x="50" y="80" type="line"/>
      <point x="70" y="80" type="line"/>
      <point x="70" y="50" type="line"/>
      <point x="80" y="50" type="line"/>
      <point x="80" y="80" type="line"/>
      <point x="100" y="80" type="line"/>
      <point x="100" y="90" type="line"/>
      <point x="80" y="90" type="line"/>
      <point x="80" y="110" type="line"/>
      <point x="70" y="110" type="line"/>
      <point x="70" y="90" type="line"/>
      <point x="50" y="90" type="line"/>
    </contour>
    <contour>
      <point x="70" y="50" type="line"/>
      <point x="50" y="50" type="line"/>
      <point x="50" y="40" type="line"/>
      <point x="70" y="40" type="line"/>
    </contour>
    <contour>
      <point x="30" y="10" type="line"/>
      <point x="90" y="10" type="line"/>
      <point x="90" y="20" type="line"/>
      <point x="30" y="20" type="line"/>
    </contour>
  </outline>
</glyph>
<glyph name="tu-hira" format="2">
  <advance width="120"/>
  <unicode hex="3064"/>
  <outline>
    <contour>
      <point x="40" y="90" type="line"/>
      <point x="90" y="90" type="line"/>
      <point x="90" y="100" type="line"/>
      <point x="40" y="100" type="line"/>
    </contour>
    <contour>
      <point x="0" y="80" type="line"/>
      <point x="40" y="80" type="line"/>
      <point x="40" y="90" type="line"/>
      <point x="0" y="90" type="line"/>
    </contour>
    <contour>
      <point x="90" y="80" type="line"/>
      <point x="100" y="80" type="line"/>
      <point x="100" y="90" type="line"/>
      <point x="90" y="90" type="line"/>
    </contour>
    <contour>
      <point x="100" y="50" type="line"/>
      <point x="110" y="50" type="line"/>
      <point x="110" y="80" type="line"/>
      <point x="100" y="80" type="line"/>
    </contour>
    <contour>
      <point x="90" y="40" type="line"/>
      <point x="100" y="40" type="line"/>
      <point x="100" y="50" type="line"/>
      <point x="90" y="50" type="line"/>
    </contour>
    <contour>
      <point x="70" y="30" type="line"/>
      <point x="90" y="30" type="line"/>
      <point x="90" y="40" type="line"/>
      <point x="70" y="40" type="line"/>
    </contour>
    <contour>
      <point x="30" y="20" type="line"/>
      <point x="70" y="20" type="line"/>
      <point x="70" y="30" type="line"/>
      <point x="30" y="30" type="line"/>
    </contour>
  </outline>
</glyph>
<glyph name="to-hira" format="2">
  <advance width="120"/>
  <unicode hex="3068"/>
  <outline>
    <contour>
      <point x="100" y="10" type="line"/>
      <point x="100" y="20" type="line"/>
      <point x="30" y="20" type="line"/>
      <point x="30" y="30" type="line"/>
      <point x="20" y="30" type="line"/>
      <point x="20" y="50" type="line"/>
      <point x="30" y="50" type="line"/>
      <point x="30" y="60" type="line"/>
      <point x="50" y="60" type="line"/>
      <point x="50" y="70" type="line"/>
      <point x="40" y="70" type="line"/>
      <point x="40" y="90" type="line"/>
      <point x="30" y="90" type="line"/>
      <point x="30" y="110" type="line"/>
      <point x="20" y="110" type="line"/>
      <point x="20" y="90" type="line"/>
      <point x="30" y="90" type="line"/>
      <point x="30" y="60" type="line"/>
      <point x="20" y="60" type="line"/>
      <point x="20" y="50" type="line"/>
      <point x="10" y="50" type="line"/>
      <point x="10" y="30" type="line"/>
      <point x="20" y="30" type="line"/>
      <point x="20" y="20" type="line"/>
      <point x="30" y="20" type="line"/>
      <point x="30" y="10" type="line"/>
    </contour>
    <contour>
      <point x="70" y="80" type="line"/>
      <point x="90" y="80" type="line"/>
      <point x="90" y="90" type="line"/>
      <point x="70" y="90" type="line"/>
    </contour>
    <contour>
      <point x="50" y="70" type="line"/>
      <point x="70" y="70" type="line"/>
      <point x="70" y="80" type="line"/>
      <point x="50" y="80" type="line"/>
    </contour>
  </outline>
</glyph>
<glyph name="mo-hira" format="2">
  <advance width="120"/>
  <unicode hex="3082"/>
  <outline>
    <contour>
      <point x="0" y="100" type="line"/>
      <point x="10" y="100" type="line"/>
      <point x="10" y="90" type="line"/>
      <point x="30" y="90" type="line"/>
      <point x="30" y="70" type="line"/>
      <point x="10" y="70" type="line"/>
      <point x="10" y="80" type="line"/>
      <point x="0" y="80" type="line"/>
      <point x="0" y="70" type="line"/>
      <point x="10" y="70" type="line"/>
      <point x="10" y="60" type="line"/>
      <point x="30" y="60" type="line"/>
      <point x="30" y="30" type="line"/>
      <point x="40" y="30" type="line"/>
      <point x="40" y="20" type="line"/>
      <point x="50" y="20" type="line"/>
      <point x="50" y="10" type="line"/>
      <point x="80" y="10" type="line"/>
      <point x="80" y="20" type="line"/>
      <point x="50" y="20" type="line"/>
      <point x="50" y="30" type="line"/>
      <point x="40" y="30" type="line"/>
      <point x="40" y="60" type="line"/>
      <point x="70" y="60" type="line"/>
      <point x="70" y="70" type="line"/>
      <point x="40" y="70" type="line"/>
      <point x="40" y="90" type="line"/>
      <point x="70" y="90" type="line"/>
      <point x="70" y="100" type="line"/>
      <point x="40" y="100" type="line"/>
      <point x="40" y="120" type="line"/>
      <point x="30" y="120" type="line"/>
      <point x="30" y="100" type="line"/>
      <point x="10" y="100" type="line"/>
      <point x="10" y="110" type="line"/>
      <point x="0" y="110" type="line"/>
    </contour>
    <contour>
      <point x="90" y="30" type="line"/>
      <point x="100" y="30" type="line"/>
      <point x="100" y="60" type="line"/>
      <point x="90" y="60" type="line"/>
      <point x="90" y="70" type="line"/>
      <point x="80" y="70" type="line"/>
      <point x="80" y="60" type="line"/>
      <point x="90" y="60" type="line"/>
    </contour>
    <contour>
      <point x="80" y="20" type="line"/>
      <point x="90" y="20" type="line"/>
      <point x="90" y="30" type="line"/>
      <point x="80" y="30" type="line"/>
    </contour>
  </outline>
</glyph>
<glyph name="ru-hira" format="2">
  <advance width="120"/>
  <unicode hex="308B"/>
  <outline>
    <contour>
      <point x="60" y="90" type="line"/>
      <point x="70" y="90" type="line"/>
      <point x="70" y="100" type="line"/>
      <point x="80" y="100" type="line"/>
      <point x="80" y="110" type="line"/>
      <point x="20" y="110" type="line"/>
      <point x="20" y="100" type="line"/>
      <point x="60" y="100" type="line"/>
    </contour>
    <contour>
      <point x="40" y="70" type="line"/>
      <point x="80" y="70" type="line"/>
      <point x="80" y="80" type="line"/>
      <point x="60" y="80" type="line"/>
      <point x="60" y="90" type="line"/>
      <point x="50" y="90" type="line"/>
      <point x="50" y="80" type="line"/>
      <point x="40" y="80" type="line"/>
    </contour>
    <contour>
      <point x="80" y="60" type="line"/>
      <point x="90" y="60" type="line"/>
      <point x="90" y="70" type="line"/>
      <point x="80" y="70" type="line"/>
    </contour>
    <contour>
      <point x="20" y="60" type="line"/>
      <point x="40" y="60" type="line"/>
      <point x="40" y="70" type="line"/>
      <point x="20" y="70" type="line"/>
    </contour>
    <contour>
      <point x="90" y="30" type="line"/>
      <point x="100" y="30" type="line"/>
      <point x="100" y="60" type="line"/>
      <point x="90" y="60" type="line"/>
    </contour>
    <contour>
      <point x="10" y="50" type="line"/>
      <point x="20" y="50" type="line"/>
      <point x="20" y="60" type="line"/>
      <point x="10" y="60" type="line"/>
    </contour>
    <contour>
      <point x="30" y="40" type="line"/>
      <point x="50" y="40" type="line"/>
      <point x="50" y="50" type="line"/>
      <point x="30" y="50" type="line"/>
    </contour>
    <contour>
      <point x="20" y="20" type="line"/>
      <point x="30" y="20" type="line"/>
      <point x="30" y="40" type="line"/>
      <point x="20" y="40" type="line"/>
    </contour>
    <contour>
      <point x="50" y="30" type="line"/>
      <point x="60" y="30" type="line"/>
      <point x="60" y="40" type="line"/>
      <point x="50" y="40" type="line"/>
    </contour>
    <contour>
      <point x="30" y="10" type="line"/>
      <point x="80" y="10" type="line"/>
      <point x="80" y="20" type="line"/>
      <point x="70" y="20" type="line"/>
      <point x="70" y="30" type="line"/>
      <point x="60" y="30" type="line"/>
      <point x="60" y="20" type="line"/>
      <point x="30" y="20" type="line"/>
    </contour>
    <contour>
      <point x="80" y="20" type="line"/>
      <point x="90" y="20" type="line"/>
      <point x="90" y="30" type="line"/>
      <point x="80" y="30" type="line"/>
    </contour>
  </outline>
</glyph>
<glyph name="re-hira" format="2">
  <advance width="120"/>
  <unicode hex="308C"/>
  <outline>
    <contour>
      <point x="50" y="90" type="line"/>
      <point x="80" y="90" type="line"/>
      <point x="80" y="100" type="line"/>
      <point x="50" y="100" type="line"/>
    </contour>
    <contour>
      <point x="40" y="80" type="line"/>
      <point x="50" y="80" type="line"/>
      <point x="50" y="90" type="line"/>
      <point x="40" y="90" type="line"/>
    </contour>
    <contour>
      <point x="80" y="50" type="line"/>
      <point x="90" y="50" type="line"/>
      <point x="90" y="90" type="line"/>
      <point x="80" y="90" type="line"/>
    </contour>
    <contour>
      <point x="20" y="10" type="line"/>
      <point x="30" y="10" type="line"/>
      <point x="30" y="70" type="line"/>
      <point x="40" y="70" type="line"/>
      <point x="40" y="80" type="line"/>
      <point x="30" y="80" type="line"/>
      <point x="30" y="90" type="line"/>
      <point x="40" y="90" type="line"/>
      <point x="40" y="100" type="line"/>
      <point x="30" y="100" type="line"/>
      <point x="30" y="120" type="line"/>
      <point x="20" y="120" type="line"/>
      <point x="20" y="100" type="line"/>
      <point x="0" y="100" type="line"/>
      <point x="0" y="90" type="line"/>
      <point x="20" y="90" type="line"/>
      <point x="20" y="60" type="line"/>
      <point x="10" y="60" type="line"/>
      <point x="10" y="40" type="line"/>
      <point x="20" y="40" type="line"/>
    </contour>
    <contour>
      <point x="70" y="20" type="line"/>
      <point x="80" y="20" type="line"/>
      <point x="80" y="50" type="line"/>
      <point x="70" y="50" type="line"/>
    </contour>
    <contour>
      <point x="0" y="30" type="line"/>
      <point x="10" y="30" type="line"/>
      <point x="10" y="40" type="line"/>
      <point x="0" y="40" type="line"/>
    </contour>
    <contour>
      <point x="100" y="20" type="line"/>
      <point x="110" y="20" type="line"/>
      <point x="110" y="30" type="line"/>
      <point x="100" y="30" type="line"/>
    </contour>
    <contour>
      <point x="80" y="10" type="line"/>
      <point x="100" y="10" type="line"/>
      <point x="100" y="20" type="line"/>
      <point x="80" y="20" type="line"/>
    </contour>
  </outline>
</glyph>
<glyph name="voicedcomb-hira" format="2">
  <advance width="60"/>
  <unicode hex="3099"/>
  <outline>
    <contour>
      <point x="100" y="100" type="line"/>
      <point x="110" y="100" type="line"/>
      <point x="110" y="120" type="line"/>
      <point x="100" y="120" type="line"/>
    </contour>
    <contour>
      <point x="80" y="100" type="line"/>
      <point x="90" y="100" type="line"/>
      <point x="90" y="120" type="line"/>
      <point x="80" y="120" type="line"/>
    </contour>
  </outline>
</glyph>
<glyph name="semivoicedcomb-hira" format="2">
  <advance width="60"/>
  <unicode hex="309A"/>
  <outline>
    <contour>
      <point x="80" y="110" type="line"/>
      <point x="100" y="110" type="line"/>
      <point x="100" y="120" type="line"/>
      <point x="80" y="120" type="line"/>
    </contour>
    <contour>
      <point x="100" y="90" type="line"/>
      <point x="110" y="90" type="line"/>
      <point x="110" y="110" type="line"/>
      <point x="100" y="110" type="line"/>
    </contour>
    <contour>
      <point x="70" y="90" type="line"/>
      <point x="80" y="90" type="line"/>
      <point x="80" y="110" type="line"/>
      <point x="70" y="110" type="line"/>
    </contour>
    <contour>
      <point x="80" y="80" type="line"/>
      <point x="100" y="80" type="line"/>
      <point x="100" y="90" type="line"/>
      <point x="80" y="90" type="line"/>
    </contour>
  </outline>
</glyph>
<glyph name="voiced-hira" format="2">
  <advance width="120"/>
  <unicode hex="309B"/>
  <outline>
    <contour>
      <point x="100" y="100" type="line"/>
      <point x="110" y="100" type="line"/>
      <point x="110" y="120" type="line"/>
      <point x="100" y="120" type="line"/>
    </contour>
    <contour>
      <point x="80" y="100" type="line"/>
      <point x="90" y="100" type="line"/>
      <point x="90" y="120" type="line"/>
      <point x="80" y="120" type="line"/>
    </contour>
  </outline>
</glyph>
<glyph name="semivoiced-hira" format="2">
  <advance width="120"/>
  <unicode hex="309C"/>
  <outline>
    <contour>
      <point x="80" y="110" type="line"/>
      <point x="100" y="110" type="line"/>
      <point x="100" y="120" type="line"/>
      <point x="80" y="120" type="line"/>
    </contour>
    <contour>
      <point x="100" y="90" type="line"/>
      <point x="110" y="90" type="line"/>
      <point x="110" y="110" type="line"/>
      <point x="100" y="110" type="line"/>
    </contour>
    <contour>
      <point x="70" y="90" type="line"/>
      <point x="80" y="90" type="line"/>
      <point x="80" y="110" type="line"/>
      <point x="70" y="110" type="line"/>
    </contour>
    <contour>
      <point x="80" y="80" type="line"/>
      <point x="100" y="80" type="line"/>
      <point x="100" y="90" type="line"/>
      <point x="80" y="90" type="line"/>
    </contour>
  </outline>
</glyph>
<glyph name="a-kata" format="2">
  <advance width="120"/>
  <unicode hex="30A2"/>
  <outline>
    <contour>
      <point x="90" y="90" type="line"/>
      <point x="100" y="90" type="line"/>
      <point x="100" y="110" type="line"/>
      <point x="10" y="110" type="line"/>
      <point x="10" y="100" type="line"/>
      <point x="90" y="100" type="line"/>
    </contour>
    <contour>
      <point x="80" y="80" type="line"/>
      <point x="90" y="80" type="line"/>
      <point x="90" y="90" type="line"/>
      <point x="80" y="90" type="line"/>
    </contour>
    <contour>
      <point x="40" y="40" type="line"/>
      <point x="50" y="40" type="line"/>
      <point x="50" y="90" type="line"/>
      <point x="40" y="90" type="line"/>
    </contour>
    <contour>
      <point x="70" y="70" type="line"/>
      <point x="80" y="70" type="line"/>
      <point x="80" y="80" type="line"/>
      <point x="70" y="80" type="line"/>
    </contour>
    <contour>
      <point x="60" y="60" type="line"/>
      <point x="70" y="60" type="line"/>
      <point x="70" y="70" type="line"/>
      <point x="60" y="70" type="line"/>
    </contour>
    <contour>
      <point x="30" y="20" type="line"/>
      <point x="40" y="20" type="line"/>
      <point x="40" y="40" type="line"/>
      <point x="30" y="40" type="line"/>
    </contour>
    <contour>
      <point x="20" y="10" type="line"/>
      <point x="30" y="10" type="line"/>
      <point x="30" y="20" type="line"/>
      <point x="20" y="20" type="line"/>
    </contour>
  </outline>
</glyph>
<glyph name="esmall-kata" format="2">
  <advance width="120"/>
  <unicode hex="30A7"/>
  <outline>
    <contour>
      <point x="10" y="20" type="line"/>
      <point x="10" y="30" type="line"/>
      <point x="50" y="30" type="line"/>
      <point x="50" y="70" type="line"/>
      <point x="20" y="70" type="line"/>
      <point x="20" y="80" type="line"/>
      <point x="90" y="80" type="line"/>
      <point x="90" y="70" type="line"/>
      <point x="60" y="70" type="line"/>
      <point x="60" y="30" type="line"/>
      <point x="100" y="30" type="line"/>
      <point x="100" y="20" type="line"/>
    </contour>
  </outline>
</glyph>
<glyph name="e-kata" format="2">
  <advance width="120"/>
  <unicode hex="30A8"/>
  <outline>
    <contour>
      <point x="0" y="20" type="line"/>
      <point x="0" y="30" type="line"/>
      <point x="50" y="30" type="line"/>
      <point x="50" y="90" type="line"/>
      <point x="10" y="90" type="line"/>
      <point x="10" y="100" type="line"/>
      <point x="100" y="100" type="line"/>
      <point x="100" y="90" type="line"/>
      <point x="60" y="90" type="line"/>
      <point x="60" y="30" type="line"/>
      <point x="110" y="30" type="line"/>
      <point x="110" y="20" type="line"/>
    </contour>
  </outline>
</glyph>
<glyph name="ka-kata" format="2">
  <advance width="120"/>
  <unicode hex="30AB"/>
  <outline>
    <contour>
      <point x="90" y="80" type="line"/>
      <point x="60" y="80" type="line"/>
      <point x="60" y="60" type="line"/>
      <point x="50" y="60" type="line"/>
      <point x="50" y="40" type="line"/>
      <point x="40" y="40" type="line"/>
      <point x="40" y="30" type="line"/>
      <point x="30" y="30" type="line"/>
      <point x="30" y="20" type="line"/>
      <point x="20" y="20" type="line"/>
      <point x="20" y="30" type="line"/>
      <point x="30" y="30" type="line"/>
      <point x="30" y="40" type="line"/>
      <point x="40" y="40" type="line"/>
      <point x="40" y="60" type="line"/>
      <point x="50" y="60" type="line"/>
      <point x="50" y="80" type="line"/>
      <point x="10" y="80" type="line"/>
      <point x="10" y="90" type="line"/>
      <point x="50" y="90" type="line"/>
      <point x="50" y="110" type="line"/>
      <point x="60" y="110" type="line"/>
      <point x="60" y="90" type="line"/>
      <point x="100" y="90" type="line"/>
      <point x="100" y="20" type="line"/>
      <point x="90" y="20" type="line"/>
      <point x="90" y="10" type="line"/>
      <point x="60" y="10" type="line"/>
      <point x="60" y="20" type="line"/>
      <point x="90" y="20" type="line"/>
    </contour>
    <contour>
      <point x="10" y="20" type="line"/>
      <point x="20" y="20" type="line"/>
      <point x="20" y="10" type="line"/>
      <point x="10" y="10" type="line"/>
    </contour>
  </outline>
</glyph>
<glyph name="ga-kata" format="2">
  <advance width="120"/>
  <unicode hex="30AC"/>
  <outline>
    <component base="ka-kata" xOffset="-10"/>
    <contour>
      <point x="80" y="100" type="line"/>
      <point x="90" y="100" type="line"/>
      <point x="90" y="120" type="line"/>
      <point x="80" y="120" type="line"/>
    </contour>
    <contour>
      <point x="100" y="100" type="line"/>
      <point x="110" y="100" type="line"/>
      <point x="110" y="120" type="line"/>
      <point x="100" y="120" type="line"/>
    </contour>
  </outline>
</glyph>
<glyph name="ki-kata" format="2">
  <advance width="120"/>
  <unicode hex="30AD"/>
  <outline>
    <contour>
      <point x="0" y="50" type="line"/>
      <point x="50" y="50" type="line"/>
      <point x="50" y="10" type="line"/>
      <point x="60" y="10" type="line"/>
      <point x="60" y="50" type="line"/>
      <point x="100" y="50" type="line"/>
      <point x="100" y="60" type="line"/>
      <point x="50" y="60" type="line"/>
      <point x="50" y="80" type="line"/>
      <point x="90" y="80" type="line"/>
      <point x="90" y="90" type="line"/>
      <point x="50" y="90" type="line"/>
      <point x="50" y="110" type="line"/>
      <point x="40" y="110" type="line"/>
      <point x="40" y="90" type="line"/>
      <point x="10" y="90" type="line"/>
      <point x="10" y="80" type="line"/>
      <point x="40" y="80" type="line"/>
      <point x="40" y="60" type="line"/>
      <point x="0" y="60" type="line"/>
    </contour>
  </outline>
</glyph>
<glyph name="sa-kata" format="2">
  <advance width="120"/>
  <unicode hex="30B5"/>
  <outline>
    <contour>
      <point x="0" y="80" type="line"/>
      <point x="20" y="80" type="line"/>
      <point x="20" y="50" type="line"/>
      <point x="30" y="50" type="line"/>
      <point x="30" y="80" type="line"/>
      <point x="70" y="80" type="line"/>
      <point x="70" y="50" type="line"/>
      <point x="80" y="50" type="line"/>
      <point x="80" y="80" type="line"/>
      <point x="100" y="80" type="line"/>
      <point x="100" y="90" type="line"/>
      <point x="80" y="90" type="line"/>
      <point x="80" y="110" type="line"/>
      <point x="70" y="110" type="line"/>
      <point x="70" y="90" type="line"/>
      <point x="30" y="90" type="line"/>
      <point x="30" y="110" type="line"/>
      <point x="20" y="110" type="line"/>
      <point x="20" y="90" type="line"/>
      <point x="0" y="90" type="line"/>
    </contour>
    <contour>
      <point x="60" y="30" type="line"/>
      <point x="70" y="30" type="line"/>
      <point x="70" y="50" type="line"/>
      <point x="60" y="50" type="line"/>
    </contour>
    <contour>
      <point x="50" y="20" type="line"/>
      <point x="60" y="20" type="line"/>
      <point x="60" y="30" type="line"/>
      <point x="50" y="30" type="line"/>
    </contour>
    <contour>
      <point x="30" y="10" type="line"/>
      <point x="50" y="10" type="line"/>
      <point x="50" y="20" type="line"/>
      <point x="30" y="20" type="line"/>
    </contour>
  </outline>
</glyph>
<glyph name="zi-kata" format="2">
  <advance width="120"/>
  <unicode hex="30B8"/>
  <outline>
    <component base="si-kata"/>
    <contour>
      <point x="80" y="100" type="line"/>
      <point x="90" y="100" type="line"/>
      <point x="90" y="120" type="line"/>
      <point x="80" y="120" type="line"/>
    </contour>
    <contour>
      <point x="100" y="100" type="line"/>
      <point x="110" y="100" type="line"/>
      <point x="110" y="120" type="line"/>
      <point x="100" y="120" type="line"/>
    </contour>
  </outline>
</glyph>
<glyph name="su-kata" format="2">
  <advance width="120"/>
  <unicode hex="30B9"/>
  <outline>
    <contour>
      <point x="70" y="70" type="line"/>
      <point x="80" y="70" type="line"/>
      <point x="80" y="100" type="line"/>
      <point x="10" y="100" type="line"/>
      <point x="10" y="90" type="line"/>
      <point x="70" y="90" type="line"/>
    </contour>
    <contour>
      <point x="50" y="40" type="line"/>
      <point x="70" y="40" type="line"/>
      <point x="70" y="70" type="line"/>
      <point x="60" y="70" type="line"/>
      <point x="60" y="50" type="line"/>
      <point x="50" y="50" type="line"/>
    </contour>
    <contour>
      <point x="70" y="30" type="line"/>
      <point x="80" y="30" type="line"/>
      <point x="80" y="40" type="line"/>
      <point x="70" y="40" type="line"/>
    </contour>
    <contour>
      <point x="40" y="30" type="line"/>
      <point x="50" y="30" type="line"/>
      <point x="50" y="40" type="line"/>
      <point x="40" y="40" type="line"/>
    </contour>
    <contour>
      <point x="80" y="20" type="line"/>
      <point x="90" y="20" type="line"/>
      <point x="90" y="30" type="line"/>
      <point x="80" y="30" type="line"/>
    </contour>
    <contour>
      <point x="20" y="20" type="line"/>
      <point x="40" y="20" type="line"/>
      <point x="40" y="30" type="line"/>
      <point x="20" y="30" type="line"/>
    </contour>
    <contour>
      <point x="90" y="10" type="line"/>
      <point x="100" y="10" type="line"/>
      <point x="100" y="20" type="line"/>
      <point x="90" y="20" type="line"/>
    </contour>
    <contour>
      <point x="0" y="10" type="line"/>
      <point x="20" y="10" type="line"/>
      <point x="20" y="20" type="line"/>
      <point x="0" y="20" type="line"/>
    </contour>
  </outline>
</glyph>
<glyph name="zu-kata" format="2">
  <advance width="120"/>
  <unicode hex="30BA"/>
  <outline>
    <component base="su-kata"/>
    <contour>
      <point x="100" y="100" type="line"/>
      <point x="110" y="100" type="line"/>
      <point x="110" y="120" type="line"/>
      <point x="100" y="120" type="line"/>
    </contour>
    <contour>
      <point x="80" y="100" type="line"/>
      <point x="90" y="100" type="line"/>
      <point x="90" y="120" type="line"/>
      <point x="80" y="120" type="line"/>
    </contour>
  </outline>
</glyph>
<glyph name="se-kata" format="2">
  <advance width="120"/>
  <unicode hex="30BB"/>
  <outline>
    <contour>
      <point x="0" y="60" type="line"/>
      <point x="30" y="60" type="line"/>
      <point x="30" y="20" type="line"/>
      <point x="40" y="20" type="line"/>
      <point x="40" y="70" type="line"/>
      <point x="70" y="70" type="line"/>
      <point x="70" y="80" type="line"/>
      <point x="40" y="80" type="line"/>
      <point x="40" y="110" type="line"/>
      <point x="30" y="110" type="line"/>
      <point x="30" y="70" type="line"/>
      <point x="0" y="70" type="line"/>
    </contour>
    <contour>
      <point x="70" y="80" type="line"/>
      <point x="90" y="80" type="line"/>
      <point x="90" y="70" type="line"/>
      <point x="100" y="70" type="line"/>
      <point x="100" y="90" type="line"/>
      <point x="70" y="90" type="line"/>
    </contour>
    <contour>
      <point x="90" y="70" type="line"/>
      <point x="80" y="70" type="line"/>
      <point x="80" y="50" type="line"/>
      <point x="90" y="50" type="line"/>
    </contour>
    <contour>
      <point x="80" y="50" type="line"/>
      <point x="70" y="50" type="line"/>
      <point x="70" y="40" type="line"/>
      <point x="80" y="40" type="line"/>
    </contour>
    <contour>
      <point x="40" y="10" type="line"/>
      <point x="100" y="10" type="line"/>
      <point x="100" y="20" type="line"/>
      <point x="40" y="20" type="line"/>
    </contour>
  </outline>
</glyph>
<glyph name="da-kata" format="2">
  <advance width="120"/>
  <unicode hex="30C0"/>
  <outline>
    <component base="ta-kata" xOffset="-10"/>
    <contour>
      <point x="100" y="100" type="line"/>
      <point x="110" y="100" type="line"/>
      <point x="110" y="120" type="line"/>
      <point x="100" y="120" type="line"/>
    </contour>
    <contour>
      <point x="80" y="100" type="line"/>
      <point x="90" y="100" type="line"/>
      <point x="90" y="120" type="line"/>
      <point x="80" y="120" type="line"/>
    </contour>
  </outline>
</glyph>
<glyph name="te-kata" format="2">
  <advance width="120"/>
  <unicode hex="30C6"/>
  <outline>
    <contour>
      <point x="10" y="90" type="line"/>
      <point x="90" y="90" type="line"/>
      <point x="90" y="100" type="line"/>
      <point x="10" y="100" type="line"/>
    </contour>
    <contour>
      <point x="0" y="60" type="line"/>
      <point x="50" y="60" type="line"/>
      <point x="50" y="30" type="line"/>
      <point x="60" y="30" type="line"/>
      <point x="60" y="60" type="line"/>
      <point x="100" y="60" type="line"/>
      <point x="100" y="70" type="line"/>
      <point x="0" y="70" type="line"/>
    </contour>
    <contour>
      <point x="40" y="20" type="line"/>
      <point x="50" y="20" type="line"/>
      <point x="50" y="30" type="line"/>
      <point x="40" y="30" type="line"/>
    </contour>
    <contour>
      <point x="20" y="10" type="line"/>
      <point x="40" y="10" type="line"/>
      <point x="40" y="20" type="line"/>
      <point x="20" y="20" type="line"/>
    </contour>
  </outline>
</glyph>
<glyph name="to-kata" format="2">
  <advance width="120"/>
  <unicode hex="30C8"/>
  <outline>
    <contour>
      <point x="30" y="10" type="line"/>
      <point x="40" y="10" type="line"/>
      <point x="40" y="60" type="line"/>
      <point x="70" y="60" type="line"/>
      <point x="70" y="70" type="line"/>
      <point x="40" y="70" type="line"/>
      <point x="40" y="110" type="line"/>
      <point x="30" y="110" type="line"/>
    </contour>
    <contour>
      <point x="70" y="50" type="line"/>
      <point x="100" y="50" type="line"/>
      <point x="100" y="60" type="line"/>
      <point x="70" y="60" type="line"/>
    </contour>
  </outline>
</glyph>
<glyph name="do-kata" format="2">
  <advance width="120"/>
  <unicode hex="30C9"/>
  <outline>
    <component base="to-kata"/>
    <contour>
      <point x="70" y="90" type="line"/>
      <point x="80" y="90" type="line"/>
      <point x="80" y="110" type="line"/>
      <point x="70" y="110" type="line"/>
    </contour>
    <contour>
      <point x="90" y="90" type="line"/>
      <point x="100" y="90" type="line"/>
      <point x="100" y="110" type="line"/>
      <point x="90" y="110" type="line"/>
    </contour>
  </outline>
</glyph>
<glyph name="na-kata" format="2">
  <advance width="120"/>
  <unicode hex="30CA"/>
  <outline>
    <contour>
      <point x="10" y="70" type="line"/>
      <point x="60" y="70" type="line"/>
      <point x="60" y="50" type="line"/>
      <point x="70" y="50" type="line"/>
      <point x="70" y="70" type="line"/>
      <point x="110" y="70" type="line"/>
      <point x="110" y="80" type="line"/>
      <point x="70" y="80" type="line"/>
      <point x="70" y="110" type="line"/>
      <point x="60" y="110" type="line"/>
      <point x="60" y="80" type="line"/>
      <point x="10" y="80" type="line"/>
    </contour>
    <contour>
      <point x="50" y="30" type="line"/>
      <point x="40" y="30" type="line"/>
      <point x="40" y="20" type="line"/>
      <point x="50" y="20" type="line"/>
    </contour>
    <contour>
      <point x="40" y="20" type="line"/>
      <point x="20" y="20" type="line"/>
      <point x="20" y="10" type="line"/>
      <point x="40" y="10" type="line"/>
    </contour>
    <contour>
      <point x="50" y="30" type="line"/>
      <point x="60" y="30" type="line"/>
      <point x="60" y="50" type="line"/>
      <point x="50" y="50" type="line"/>
    </contour>
  </outline>
</glyph>
<glyph name="bi-kata" format="2">
  <advance width="120"/>
  <unicode hex="30D3"/>
  <outline>
    <component base="hi-kata"/>
    <contour>
      <point x="100" y="100" type="line"/>
      <point x="110" y="100" type="line"/>
      <point x="110" y="120" type="line"/>
      <point x="100" y="120" type="line"/>
    </contour>
    <contour>
      <point x="80" y="100" type="line"/>
      <point x="90" y="100" type="line"/>
      <point x="90" y="120" type="line"/>
      <point x="80" y="120" type="line"/>
    </contour>
  </outline>
</glyph>
<glyph name="he-kata" format="2">
  <advance width="120"/>
  <unicode hex="30D8"/>
  <outline>
    <contour>
      <point x="30" y="80" type="line"/>
      <point x="50" y="80" type="line"/>
      <point x="50" y="90" type="line"/>
      <point x="30" y="90" type="line"/>
    </contour>
    <contour>
      <point x="20" y="70" type="line"/>
      <point x="30" y="70" type="line"/>
      <point x="30" y="80" type="line"/>
      <point x="20" y="80" type="line"/>
    </contour>
    <contour>
      <point x="50" y="70" type="line"/>
      <point x="60" y="70" type="line"/>
      <point x="60" y="80" type="line"/>
      <point x="50" y="80" type="line"/>
    </contour>
    <contour>
      <point x="10" y="60" type="line"/>
      <point x="20" y="60" type="line"/>
      <point x="20" y="70" type="line"/>
      <point x="10" y="70" type="line"/>
    </contour>
    <contour>
      <point x="60" y="60" type="line"/>
      <point x="70" y="60" type="line"/>
      <point x="70" y="70" type="line"/>
      <point x="60" y="70" type="line"/>
    </contour>
    <contour>
      <point x="0" y="50" type="line"/>
      <point x="10" y="50" type="line"/>
      <point x="10" y="60" type="line"/>
      <point x="0" y="60" type="line"/>
    </contour>
    <contour>
      <point x="70" y="50" type="line"/>
      <point x="80" y="50" type="line"/>
      <point x="80" y="60" type="line"/>
      <point x="70" y="60" type="line"/>
    </contour>
    <contour>
      <point x="80" y="40" type="line"/>
      <point x="90" y="40" type="line"/>
      <point x="90" y="50" type="line"/>
      <point x="80" y="50" type="line"/>
    </contour>
    <contour>
      <point x="90" y="30" type="line"/>
      <point x="100" y="30" type="line"/>
      <point x="100" y="40" type="line"/>
      <point x="90" y="40" type="line"/>
    </contour>
  </outline>
</glyph>
<glyph name="mi-kata" format="2">
  <advance width="120"/>
  <unicode hex="30DF"/>
  <outline>
    <contour>
      <point x="30" y="100" type="line"/>
      <point x="60" y="100" type="line"/>
      <point x="60" y="110" type="line"/>
      <point x="30" y="110" type="line"/>
    </contour>
    <contour>
      <point x="60" y="90" type="line"/>
      <point x="90" y="90" type="line"/>
      <point x="90" y="100" type="line"/>
      <point x="60" y="100" type="line"/>
    </contour>
    <contour>
      <point x="30" y="60" type="line"/>
      <point x="60" y="60" type="line"/>
      <point x="60" y="70" type="line"/>
      <point x="30" y="70" type="line"/>
    </contour>
    <contour>
      <point x="60" y="50" type="line"/>
      <point x="90" y="50" type="line"/>
      <point x="90" y="60" type="line"/>
      <point x="60" y="60" type="line"/>
    </contour>
    <contour>
      <point x="20" y="20" type="line"/>
      <point x="60" y="20" type="line"/>
      <point x="60" y="30" type="line"/>
      <point x="20" y="30" type="line"/>
    </contour>
    <contour>
      <point x="60" y="10" type="line"/>
      <point x="100" y="10" type="line"/>
      <point x="100" y="20" type="line"/>
      <point x="60" y="20" type="line"/>
    </contour>
  </outline>
</glyph>
<glyph name="mo-kata" format="2">
  <advance width="120"/>
  <unicode hex="30E2"/>
  <outline>
    <contour>
      <point x="0" y="60" type="line"/>
      <point x="40" y="60" type="line"/>
      <point x="40" y="20" type="line"/>
      <point x="50" y="20" type="line"/>
      <point x="50" y="60" type="line"/>
      <point x="100" y="60" type="line"/>
      <point x="100" y="70" type="line"/>
      <point x="50" y="70" type="line"/>
      <point x="50" y="100" type="line"/>
      <point x="90" y="100" type="line"/>
      <point x="90" y="110" type="line"/>
      <point x="10" y="110" type="line"/>
      <point x="10" y="100" type="line"/>
      <point x="40" y="100" type="line"/>
      <point x="40" y="70" type="line"/>
      <point x="0" y="70" type="line"/>
    </contour>
    <contour>
      <point x="50" y="10" type="line"/>
      <point x="100" y="10" type="line"/>
      <point x="100" y="20" type="line"/>
      <point x="50" y="20" type="line"/>
    </contour>
  </outline>
</glyph>
<glyph name="yasmall-kata" format="2">
  <advance width="120"/>
  <unicode hex="30E3"/>
  <outline>
    <contour>
      <point x="60" y="70" type="line"/>
      <point x="40" y="70" type="line"/>
      <point x="40" y="90" type="line"/>
      <point x="30" y="90" type="line"/>
      <point x="30" y="60" type="line"/>
      <point x="40" y="60" type="line"/>
      <point x="40" y="30" type="line"/>
      <point x="50" y="30" type="line"/>
      <point x="50" y="60" type="line"/>
      <point x="60" y="60" type="line"/>
    </contour>
    <contour>
      <point x="60" y="70" type="line"/>
      <point x="80" y="70" type="line"/>
      <point x="80" y="60" type="line"/>
      <point x="90" y="60" type="line"/>
      <point x="90" y="80" type="line"/>
      <point x="60" y="80" type="line"/>
    </contour>
    <contour>
      <point x="10" y="60" type="line"/>
      <point x="10" y="50" type="line"/>
      <point x="30" y="50" type="line"/>
      <point x="30" y="60" type="line"/>
    </contour>
    <contour>
      <point x="70" y="50" type="line"/>
      <point x="80" y="50" type="line"/>
      <point x="80" y="60" type="line"/>
      <point x="70" y="60" type="line"/>
    </contour>
    <contour>
      <point x="60" y="40" type="line"/>
      <point x="70" y="40" type="line"/>
      <point x="70" y="50" type="line"/>
      <point x="60" y="50" type="line"/>
    </contour>
    <contour>
      <point x="50" y="10" type="line"/>
      <point x="60" y="10" type="line"/>
      <point x="60" y="30" type="line"/>
      <point x="50" y="30" type="line"/>
    </contour>
  </outline>
</glyph>
<glyph name="yosmall-kata" format="2">
  <advance width="120"/>
  <unicode hex="30E7"/>
  <outline>
    <contour>
      <point x="20" y="10" type="line"/>
      <point x="90" y="10" type="line"/>
      <point x="90" y="80" type="line"/>
      <point x="20" y="80" type="line"/>
      <point x="20" y="70" type="line"/>
      <point x="80" y="70" type="line"/>
      <point x="80" y="50" type="line"/>
      <point x="30" y="50" type="line"/>
      <point x="30" y="40" type="line"/>
      <point x="80" y="40" type="line"/>
      <point x="80" y="20" type="line"/>
      <point x="20" y="20" type="line"/>
    </contour>
  </outline>
</glyph>
<glyph name="ri-kata" format="2">
  <advance width="120"/>
  <unicode hex="30EA"/>
  <outline>
    <contour>
      <point x="20" y="50" type="line"/>
      <point x="30" y="50" type="line"/>
      <point x="30" y="110" type="line"/>
      <point x="20" y="110" type="line"/>
    </contour>
    <contour>
      <point x="70" y="30" type="line"/>
      <point x="80" y="30" type="line"/>
      <point x="80" y="50" type="line"/>
      <point x="70" y="50" type="line"/>
    </contour>
    <contour>
      <point x="60" y="20" type="line"/>
      <point x="70" y="20" type="line"/>
      <point x="70" y="30" type="line"/>
      <point x="60" y="30" type="line"/>
    </contour>
    <contour>
      <point x="40" y="10" type="line"/>
      <point x="60" y="10" type="line"/>
      <point x="60" y="20" type="line"/>
      <point x="40" y="20" type="line"/>
    </contour>
    <contour>
      <point x="80" y="50" type="line"/>
      <point x="90" y="50" type="line"/>
      <point x="90" y="110" type="line"/>
      <point x="80" y="110" type="line"/>
    </contour>
  </outline>
</glyph>
<glyph name="ru-kata" format="2">
  <advance width="120"/>
  <unicode hex="30EB"/>
  <outline>
    <contour>
      <point x="20" y="40" type="line"/>
      <point x="30" y="40" type="line"/>
      <point x="30" y="110" type="line"/>
      <point x="20" y="110" type="line"/>
    </contour>
    <contour>
      <point x="90" y="40" type="line"/>
      <point x="100" y="40" type="line"/>
      <point x="100" y="50" type="line"/>
      <point x="90" y="50" type="line"/>
    </contour>
    <contour>
      <point x="80" y="30" type="line"/>
      <point x="90" y="30" type="line"/>
      <point x="90" y="40" type="line"/>
      <point x="80" y="40" type="line"/>
    </contour>
    <contour>
      <point x="10" y="20" type="line"/>
      <point x="20" y="20" type="line"/>
      <point x="20" y="40" type="line"/>
      <point x="10" y="40" type="line"/>
    </contour>
    <contour>
      <point x="70" y="20" type="line"/>
      <point x="80" y="20" type="line"/>
      <point x="80" y="30" type="line"/>
      <point x="70" y="30" type="line"/>
    </contour>
    <contour>
      <point x="50" y="10" type="line"/>
      <point x="70" y="10" type="line"/>
      <point x="70" y="20" type="line"/>
      <point x="60" y="20" type="line"/>
      <point x="60" y="110" type="line"/>
      <point x="50" y="110" type="line"/>
    </contour>
    <contour>
      <point x="0" y="10" type="line"/>
      <point x="10" y="10" type="line"/>
      <point x="10" y="20" type="line"/>
      <point x="0" y="20" type="line"/>
    </contour>
  </outline>
</glyph>
<glyph name="ro-kata" format="2">
  <advance width="120"/>
  <unicode hex="30ED"/>
  <outline>
    <contour>
      <point x="10" y="20" type="line"/>
      <point x="100" y="20" type="line"/>
      <point x="100" y="100" type="line"/>
      <point x="10" y="100" type="line"/>
    </contour>
    <contour>
      <point x="20" y="30" type="line"/>
      <point x="20" y="90" type="line"/>
      <point x="90" y="90" type="line"/>
      <point x="90" y="30" type="line"/>
    </contour>
  </outline>
</glyph>
<glyph name="uni4E2D" format="2">
  <advance width="120"/>
  <unicode hex="4E2D"/>
  <outline>
    <contour>
      <point x="50" y="40" type="line"/>
      <point x="50" y="0" type="line"/>
      <point x="60" y="0" type="line"/>
      <point x="60" y="40" type="line"/>
      <point x="100" y="40" type="line"/>
      <point x="100" y="90" type="line"/>
      <point x="60" y="90" type="line"/>
      <point x="60" y="120" type="line"/>
      <point x="50" y="120" type="line"/>
      <point x="50" y="90" type="line"/>
      <point x="10" y="90" type="line"/>
      <point x="10" y="40" type="line"/>
    </contour>
    <contour>
      <point x="60" y="50" type="line"/>
      <point x="60" y="80" type="line"/>
      <point x="90" y="80" type="line"/>
      <point x="90" y="50" type="line"/>
    </contour>
    <contour>
      <point x="20" y="80" type="line"/>
      <point x="50" y="80" type="line"/>
      <point x="50" y="50" type="line"/>
      <point x="20" y="50" type="line"/>
    </contour>
  </outline>
</glyph>
<glyph name="uni4E86" format="2">
  <advance width="120"/>
  <unicode hex="4E86"/>
  <outline>
    <contour>
      <point x="30" y="0" type="line"/>
      <point x="30" y="10" type="line"/>
      <point x="50" y="10" type="line"/>
      <point x="50" y="90" type="line"/>
      <point x="60" y="90" type="line"/>
      <point x="60" y="100" type="line"/>
      <point x="70" y="100" type="line"/>
      <point x="70" y="110" type="line"/>
      <point x="10" y="110" type="line"/>
      <point x="10" y="120" type="line"/>
      <point x="90" y="120" type="line"/>
      <point x="90" y="110" type="line"/>
      <point x="80" y="110" type="line"/>
      <point x="80" y="100" type="line"/>
      <point x="70" y="100" type="line"/>
      <point x="70" y="90" type="line"/>
      <point x="60" y="90" type="line"/>
      <point x="60" y="0" type="line"/>
    </contour>
  </outline>
</glyph>
<glyph name="uni4E94" format="2">
  <advance width="120"/>
  <unicode hex="4E94"/>
  <outline>
    <contour>
      <point x="10" y="120" type="line"/>
      <point x="100" y="120" type="line"/>
      <point x="100" y="110" type="line"/>
      <point x="50" y="110" type="line"/>
      <point x="50" y="80" type="line"/>
      <point x="90" y="80" type="line"/>
      <point x="90" y="20" type="line"/>
      <point x="110" y="20" type="line"/>
      <point x="110" y="10" type="line"/>
      <point x="0" y="10" type="line"/>
      <point x="0" y="20" type="line"/>
      <point x="30" y="20" type="line"/>
      <point x="30" y="50" type="line"/>
      <point x="40" y="50" type="line"/>
      <point x="40" y="20" type="line"/>
      <point x="80" y="20" type="line"/>
      <point x="80" y="70" type="line"/>
      <point x="50" y="70" type="line"/>
      <point x="50" y="50" type="line"/>
      <point x="40" y="50" type="line"/>
      <point x="40" y="70" type="line"/>
      <point x="10" y="70" type="line"/>
      <point x="10" y="80" type="line"/>
      <point x="40" y="80" type="line"/>
      <point x="40" y="110" type="line"/>
      <point x="10" y="110" type="line"/>
    </contour>
  </outline>
</glyph>
<glyph name="uni5186" format="2">
  <advance width="120"/>
  <unicode hex="5186"/>
  <outline>
    <contour>
      <point x="0" y="0" type="line"/>
      <point x="10" y="0" type="line"/>
      <point x="10" y="50" type="line"/>
      <point x="100" y="50" type="line"/>
      <point x="100" y="10" type="line"/>
      <point x="90" y="10" type="line"/>
      <point x="90" y="0" type="line"/>
      <point x="110" y="0" type="line"/>
      <point x="110" y="110" type="line"/>
      <point x="0" y="110" type="line"/>
    </contour>
    <contour>
      <point x="10" y="100" type="line"/>
      <point x="50" y="100" type="line"/>
      <point x="50" y="60" type="line"/>
      <point x="10" y="60" type="line"/>
    </contour>
    <contour>
      <point x="60" y="60" type="line"/>
      <point x="60" y="100" type="line"/>
      <point x="100" y="100" type="line"/>
      <point x="100" y="60" type="line"/>
    </contour>
  </outline>
</glyph>
<glyph name="uni5225" format="2">
  <advance width="120"/>
  <unicode hex="5225"/>
  <outline>
    <contour>
      <point x="10" y="120" type="line"/>
      <point x="60" y="120" type="line"/>
      <point x="60" y="70" type="line"/>
      <point x="30" y="70" type="line"/>
      <point x="30" y="60" type="line"/>
      <point x="60" y="60" type="line"/>
      <point x="60" y="10" type="line"/>
      <point x="50" y="10" type="line"/>
      <point x="50" y="50" type="line"/>
      <point x="30" y="50" type="line"/>
      <point x="30" y="40" type="line"/>
      <point x="20" y="40" type="line"/>
      <point x="20" y="70" type="line"/>
      <point x="10" y="70" type="line"/>
    </contour>
    <contour>
      <point x="100" y="120" type="line"/>
      <point x="110" y="120" type="line"/>
      <point x="110" y="0" type="line"/>
      <point x="90" y="0" type="line"/>
      <point x="90" y="10" type="line"/>
      <point x="100" y="10" type="line"/>
    </contour>
    <contour>
      <point x="20" y="110" type="line"/>
      <point x="20" y="80" type="line"/>
      <point x="50" y="80" type="line"/>
      <point x="50" y="110" type="line"/>
    </contour>
    <contour>
      <point x="70" y="110" type="line"/>
      <point x="80" y="110" type="line"/>
      <point x="80" y="20" type="line"/>
      <point x="70" y="20" type="line"/>
    </contour>
    <contour>
      <point x="10" y="40" type="line"/>
      <point x="20" y="40" type="line"/>
      <point x="20" y="20" type="line"/>
      <point x="10" y="20" type="line"/>
    </contour>
    <contour>
      <point x="50" y="10" type="line"/>
      <point x="50" y="0" type="line"/>
      <point x="30" y="0" type="line"/>
      <point x="30" y="10" type="line"/>
    </contour>
    <contour>
      <point x="0" y="20" type="line"/>
      <point x="10" y="20" type="line"/>
      <point x="10" y="10" type="line"/>
      <point x="0" y="10" type="line"/>
    </contour>
  </outline>
</glyph>
<glyph name="uni5341" format="2">
  <advance width="120"/>
  <unicode hex="5341"/>
  <outline>
    <contour>
      <point x="50" y="120" type="line"/>
      <point x="60" y="120" type="line"/>
      <point x="60" y="70" type="line"/>
      <point x="110" y="70" type="line"/>
      <point x="110" y="60" type="line"/>
      <point x="60" y="60" type="line"/>
      <point x="60" y="0" type="line"/>
      <point x="50" y="0" type="line"/>
      <point x="50" y="60" type="line"/>
      <point x="0" y="60" type="line"/>
      <point x="0" y="70" type="line"/>
      <point x="50" y="70" type="line"/>
    </contour>
  </outline>
</glyph>
<glyph name="uni56DB" format="2">
  <advance width="120"/>
  <unicode hex="56DB"/>
  <outline>
    <contour>
      <point x="10" y="120" type="line"/>
      <point x="110" y="120" type="line"/>
      <point x="110" y="0" type="line"/>
      <point x="100" y="0" type="line"/>
      <point x="100" y="10" type="line"/>
      <point x="20" y="10" type="line"/>
      <point x="20" y="0" type="line"/>
      <point x="10" y="0" type="line"/>
    </contour>
    <contour>
      <point x="20" y="110" type="line"/>
      <point x="20" y="40" type="line"/>
      <point x="30" y="40" type="line"/>
      <point x="30" y="30" type="line"/>
      <point x="20" y="30" type="line"/>
      <point x="20" y="20" type="line"/>
      <point x="100" y="20" type="line"/>
      <point x="100" y="40" type="line"/>
      <point x="80" y="40" type="line"/>
      <point x="80" y="50" type="line"/>
      <point x="100" y="50" type="line"/>
      <point x="100" y="110" type="line"/>
      <point x="80" y="110" type="line"/>
      <point x="80" y="50" type="line"/>
      <point x="70" y="50" type="line"/>
      <point x="70" y="110" type="line"/>
      <point x="50" y="110" type="line"/>
      <point x="50" y="50" type="line"/>
      <point x="40" y="50" type="line"/>
      <point x="40" y="110" type="line"/>
    </contour>
    <contour>
      <point x="30" y="50" type="line"/>
      <point x="40" y="50" type="line"/>
      <point x="40" y="40" type="line"/>
      <point x="30" y="40" type="line"/>
    </contour>
  </outline>
</glyph>
<glyph name="uni5BC6" format="2">
  <advance width="120"/>
  <unicode hex="5BC6"/>
  <outline>
    <contour>
      <point x="20" y="70" type="line"/>
      <point x="0" y="70" type="line"/>
      <point x="0" y="80" type="line"/>
      <point x="20" y="80" type="line"/>
      <point x="20" y="90" type="line"/>
      <point x="40" y="90" type="line"/>
      <point x="40" y="70" type="line"/>
      <point x="50" y="70" type="line"/>
      <point x="50" y="80" type="line"/>
      <point x="60" y="80" type="line"/>
      <point x="60" y="90" type="line"/>
      <point x="50" y="90" type="line"/>
      <point x="50" y="100" type="line"/>
      <point x="10" y="100" type="line"/>
      <point x="10" y="90" type="line"/>
      <point x="0" y="90" type="line"/>
      <point x="0" y="110" type="line"/>
      <point x="50" y="110" type="line"/>
      <point x="50" y="120" type="line"/>
      <point x="60" y="120" type="line"/>
      <point x="60" y="110" type="line"/>
      <point x="110" y="110" type="line"/>
      <point x="110" y="90" type="line"/>
      <point x="100" y="90" type="line"/>
      <point x="100" y="100" type="line"/>
      <point x="80" y="100" type="line"/>
      <point x="80" y="90" type="line"/>
      <point x="70" y="90" type="line"/>
      <point x="70" y="80" type="line"/>
      <point x="60" y="80" type="line"/>
      <point x="60" y="70" type="line"/>
      <point x="50" y="70" type="line"/>
      <point x="50" y="60" type="line"/>
      <point x="80" y="60" type="line"/>
      <point x="80" y="80" type="line"/>
      <point x="100" y="80" type="line"/>
      <point x="100" y="70" type="line"/>
      <point x="110" y="70" type="line"/>
      <point x="110" y="60" type="line"/>
      <point x="100" y="60" type="line"/>
      <point x="100" y="70" type="line"/>
      <point x="90" y="70" type="line"/>
      <point x="90" y="50" type="line"/>
      <point x="60" y="50" type="line"/>
      <point x="60" y="20" type="line"/>
      <point x="90" y="20" type="line"/>
      <point x="90" y="40" type="line"/>
      <point x="100" y="40" type="line"/>
      <point x="100" y="0" type="line"/>
      <point x="90" y="0" type="line"/>
      <point x="90" y="10" type="line"/>
      <point x="10" y="10" type="line"/>
      <point x="10" y="40" type="line"/>
      <point x="20" y="40" type="line"/>
      <point x="20" y="20" type="line"/>
      <point x="50" y="20" type="line"/>
      <point x="50" y="50" type="line"/>
      <point x="40" y="50" type="line"/>
      <point x="40" y="60" type="line"/>
      <point x="30" y="60" type="line"/>
      <point x="30" y="50" type="line"/>
      <point x="0" y="50" type="line"/>
      <point x="0" y="60" type="line"/>
      <point x="30" y="60" type="line"/>
      <point x="30" y="80" type="line"/>
      <point x="20" y="80" type="line"/>
    </contour>
    <contour>
      <point x="60" y="90" type="line"/>
      <point x="70" y="90" type="line"/>
      <point x="70" y="100" type="line"/>
      <point x="60" y="100" type="line"/>
    </contour>
  </outline>
</glyph>
<glyph name="uni5DE5" format="2">
  <advance width="120"/>
  <unicode hex="5DE5"/>
  <outline>
    <contour>
      <point x="0" y="0" type="line"/>
      <point x="0" y="10" type="line"/>
      <point x="50" y="10" type="line"/>
      <point x="50" y="100" type="line"/>
      <point x="10" y="100" type="line"/>
      <point x="10" y="110" type="line"/>
      <point x="100" y="110" type="line"/>
      <point x="100" y="100" type="line"/>
      <point x="60" y="100" type="line"/>
      <point x="60" y="10" type="line"/>
      <point x="110" y="10" type="line"/>
      <point x="110" y="0" type="line"/>
    </contour>
  </outline>
</glyph>
<glyph name="uni5F00" format="2">
  <advance width="120"/>
  <unicode hex="5F00"/>
  <outline>
    <contour>
      <point x="0" y="0" type="line"/>
      <point x="0" y="10" type="line"/>
      <point x="10" y="10" type="line"/>
      <point x="10" y="20" type="line"/>
      <point x="20" y="20" type="line"/>
      <point x="20" y="40" type="line"/>
      <point x="30" y="40" type="line"/>
      <point x="30" y="60" type="line"/>
      <point x="0" y="60" type="line"/>
      <point x="0" y="70" type="line"/>
      <point x="30" y="70" type="line"/>
      <point x="30" y="110" type="line"/>
      <point x="10" y="110" type="line"/>
      <point x="10" y="120" type="line"/>
      <point x="100" y="120" type="line"/>
      <point x="100" y="110" type="line"/>
      <point x="80" y="110" type="line"/>
      <point x="80" y="70" type="line"/>
      <point x="110" y="70" type="line"/>
      <point x="110" y="60" type="line"/>
      <point x="80" y="60" type="line"/>
      <point x="80" y="0" type="line"/>
      <point x="70" y="0" type="line"/>
      <point x="70" y="60" type="line"/>
      <point x="40" y="60" type="line"/>
      <point x="40" y="40" type="line"/>
      <point x="30" y="40" type="line"/>
      <point x="30" y="20" type="line"/>
      <point x="20" y="20" type="line"/>
      <point x="20" y="10" type="line"/>
      <point x="10" y="10" type="line"/>
      <point x="10" y="0" type="line"/>
    </contour>
    <contour>
      <point x="70" y="70" type="line"/>
      <point x="70" y="110" type="line"/>
      <point x="40" y="110" type="line"/>
      <point x="40" y="70" type="line"/>
    </contour>
  </outline>
</glyph>
<glyph name="uni5F15" format="2">
  <advance width="120"/>
  <unicode hex="5F15"/>
  <outline>
    <contour>
      <point x="0" y="120" type="line"/>
      <point x="60" y="120" type="line"/>
      <point x="60" y="80" type="line"/>
      <point x="10" y="80" type="line"/>
      <point x="10" y="60" type="line"/>
      <point x="60" y="60" type="line"/>
      <point x="60" y="20" type="line"/>
      <point x="50" y="20" type="line"/>
      <point x="50" y="50" type="line"/>
      <point x="0" y="50" type="line"/>
      <point x="0" y="90" type="line"/>
      <point x="50" y="90" type="line"/>
      <point x="50" y="110" type="line"/>
      <point x="0" y="110" type="line"/>
    </contour>
    <contour>
      <point x="90" y="120" type="line"/>
      <point x="100" y="120" type="line"/>
      <point x="100" y="0" type="line"/>
      <point x="90" y="0" type="line"/>
    </contour>
    <contour>
      <point x="20" y="20" type="line"/>
      <point x="30" y="20" type="line"/>
      <point x="30" y="10" type="line"/>
      <point x="20" y="10" type="line"/>
    </contour>
    <contour>
      <point x="40" y="20" type="line"/>
      <point x="50" y="20" type="line"/>
      <point x="50" y="10" type="line"/>
      <point x="40" y="10" type="line"/>
    </contour>
    <contour>
      <point x="30" y="10" type="line"/>
      <point x="40" y="10" type="line"/>
      <point x="40" y="0" type="line"/>
      <point x="30" y="0" type="line"/>
    </contour>
  </outline>
</glyph>
<glyph name="uni6536" format="2">
  <advance width="120"/>
  <unicode hex="6536"/>
  <outline>
    <contour>
      <point x="0" y="100" type="line"/>
      <point x="10" y="100" type="line"/>
      <point x="10" y="40" type="line"/>
      <point x="20" y="40" type="line"/>
      <point x="20" y="50" type="line"/>
      <point x="30" y="50" type="line"/>
      <point x="30" y="120" type="line"/>
      <point x="40" y="120" type="line"/>
      <point x="40" y="80" type="line"/>
      <point x="50" y="80" type="line"/>
      <point x="50" y="100" type="line"/>
      <point x="60" y="100" type="line"/>
      <point x="60" y="120" type="line"/>
      <point x="70" y="120" type="line"/>
      <point x="70" y="100" type="line"/>
      <point x="110" y="100" type="line"/>
      <point x="110" y="90" type="line"/>
      <point x="100" y="90" type="line"/>
      <point x="100" y="60" type="line"/>
      <point x="90" y="60" type="line"/>
      <point x="90" y="40" type="line"/>
      <point x="80" y="40" type="line"/>
      <point x="80" y="30" type="line"/>
      <point x="90" y="30" type="line"/>
      <point x="90" y="20" type="line"/>
      <point x="100" y="20" type="line"/>
      <point x="100" y="10" type="line"/>
      <point x="110" y="10" type="line"/>
      <point x="110" y="0" type="line"/>
      <point x="100" y="0" type="line"/>
      <point x="100" y="10" type="line"/>
      <point x="90" y="10" type="line"/>
      <point x="90" y="20" type="line"/>
      <point x="80" y="20" type="line"/>
      <point x="80" y="30" type="line"/>
      <point x="70" y="30" type="line"/>
      <point x="70" y="20" type="line"/>
      <point x="60" y="20" type="line"/>
      <point x="60" y="10" type="line"/>
      <point x="50" y="10" type="line"/>
      <point x="50" y="0" type="line"/>
      <point x="30" y="0" type="line"/>
      <point x="30" y="40" type="line"/>
      <point x="20" y="40" type="line"/>
      <point x="20" y="30" type="line"/>
      <point x="0" y="30" type="line"/>
    </contour>
    <contour>
      <point x="40" y="10" type="line"/>
      <point x="50" y="10" type="line"/>
      <point x="50" y="20" type="line"/>
      <point x="60" y="20" type="line"/>
      <point x="60" y="30" type="line"/>
      <point x="70" y="30" type="line"/>
      <point x="70" y="50" type="line"/>
      <point x="80" y="50" type="line"/>
      <point x="80" y="60" type="line"/>
      <point x="90" y="60" type="line"/>
      <point x="90" y="90" type="line"/>
      <point x="60" y="90" type="line"/>
      <point x="60" y="70" type="line"/>
      <point x="40" y="70" type="line"/>
    </contour>
    <contour>
      <point x="60" y="70" type="line"/>
      <point x="70" y="70" type="line"/>
      <point x="70" y="50" type="line"/>
      <point x="60" y="50" type="line"/>
    </contour>
  </outline>
</glyph>
<glyph name="uni65E5" format="2">
  <advance width="120"/>
  <unicode hex="65E5"/>
  <outline>
    <contour>
      <point x="10" y="0" type="line"/>
      <point x="90" y="0" type="line"/>
      <point x="90" y="120" type="line"/>
      <point x="10" y="120" type="line"/>
    </contour>
    <contour>
      <point x="20" y="70" type="line"/>
      <point x="20" y="110" type="line"/>
      <point x="80" y="110" type="line"/>
      <point x="80" y="70" type="line"/>
    </contour>
    <contour>
      <point x="20" y="10" type="line"/>
      <point x="20" y="60" type="line"/>
      <point x="80" y="60" type="line"/>
      <point x="80" y="10" type="line"/>
    </contour>
  </outline>
</glyph>
<glyph name="uni66F2" format="2">
  <advance width="120"/>
  <unicode hex="66F2"/>
  <outline>
    <contour>
      <point x="10" y="0" type="line"/>
      <point x="110" y="0" type="line"/>
      <point x="110" y="90" type="line"/>
      <point x="80" y="90" type="line"/>
      <point x="80" y="120" type="line"/>
      <point x="70" y="120" type="line"/>
      <point x="70" y="90" type="line"/>
      <point x="50" y="90" type="line"/>
      <point x="50" y="120" type="line"/>
      <point x="40" y="120" type="line"/>
      <point x="40" y="90" type="line"/>
      <point x="10" y="90" type="line"/>
    </contour>
    <contour>
      <point x="80" y="50" type="line"/>
      <point x="80" y="80" type="line"/>
      <point x="100" y="80" type="line"/>
      <point x="100" y="50" type="line"/>
    </contour>
    <contour>
      <point x="100" y="40" type="line"/>
      <point x="100" y="10" type="line"/>
      <point x="80" y="10" type="line"/>
      <point x="80" y="40" type="line"/>
    </contour>
    <contour>
      <point x="50" y="40" type="line"/>
      <point x="70" y="40" type="line"/>
      <point x="70" y="10" type="line"/>
      <point x="50" y="10" type="line"/>
    </contour>
    <contour>
      <point x="40" y="80" type="line"/>
      <point x="40" y="50" type="line"/>
      <point x="20" y="50" type="line"/>
      <point x="20" y="80" type="line"/>
    </contour>
    <contour>
      <point x="50" y="80" type="line"/>
      <point x="70" y="80" type="line"/>
      <point x="70" y="50" type="line"/>
      <point x="50" y="50" type="line"/>
    </contour>
    <contour>
      <point x="40" y="40" type="line"/>
      <point x="40" y="10" type="line"/>
      <point x="20" y="10" type="line"/>
      <point x="20" y="40" type="line"/>
    </contour>
  </outline>
</glyph>
<glyph name="uni6B62" format="2">
  <advance width="120"/>
  <unicode hex="6B62"/>
  <outline>
    <contour>
      <point x="0" y="10" type="line"/>
      <point x="20" y="10" type="line"/>
      <point x="20" y="80" type="line"/>
      <point x="30" y="80" type="line"/>
      <point x="30" y="10" type="line"/>
      <point x="60" y="10" type="line"/>
      <point x="60" y="120" type="line"/>
      <point x="70" y="120" type="line"/>
      <point x="70" y="70" type="line"/>
      <point x="100" y="70" type="line"/>
      <point x="100" y="60" type="line"/>
      <point x="70" y="60" type="line"/>
      <point x="70" y="10" type="line"/>
      <point x="110" y="10" type="line"/>
      <point x="110" y="0" type="line"/>
      <point x="0" y="0" type="line"/>
    </contour>
  </outline>
</glyph>
